<?xml version="1.0" encoding="UTF-8" standalone="no"?>
<!-- Created with Inkscape (http://www.inkscape.org/) -->

<svg
   xmlns:dc="http://purl.org/dc/elements/1.1/"
   xmlns:cc="http://creativecommons.org/ns#"
   xmlns:rdf="http://www.w3.org/1999/02/22-rdf-syntax-ns#"
   xmlns:svg="http://www.w3.org/2000/svg"
   xmlns="http://www.w3.org/2000/svg"
   xmlns:sodipodi="http://sodipodi.sourceforge.net/DTD/sodipodi-0.dtd"
   xmlns:inkscape="http://www.inkscape.org/namespaces/inkscape"
   width="162"
   height="95"
   id="svg4618"
   version="1.1"
   inkscape:version="0.48.5 r10040"
   sodipodi:docname="Documento nuevo 22">
  <defs
     id="defs4620" />
  <sodipodi:namedview
     id="base"
     pagecolor="#ffffff"
     bordercolor="#666666"
     borderopacity="1.0"
     inkscape:pageopacity="0.0"
     inkscape:pageshadow="2"
     inkscape:zoom="1.4"
     inkscape:cx="126.85029"
     inkscape:cy="125.98552"
     inkscape:document-units="px"
     inkscape:current-layer="layer1"
     showgrid="false"
     inkscape:window-width="1280"
     inkscape:window-height="734"
     inkscape:window-x="0"
     inkscape:window-y="27"
     inkscape:window-maximized="1" />
  <metadata
     id="metadata4623">
    <rdf:RDF>
      <cc:Work
         rdf:about="">
        <dc:format>image/svg+xml</dc:format>
        <dc:type
           rdf:resource="http://purl.org/dc/dcmitype/StillImage" />
        <dc:title></dc:title>
      </cc:Work>
    </rdf:RDF>
  </metadata>
  <g
     inkscape:label="Capa 1"
     inkscape:groupmode="layer"
     id="layer1"
     transform="translate(0,-957.36218)">
    <g
       transform="translate(-321.21086,-3073.7096)"
       id="g1511">
      <g
         id="g1513">
        <g
           id="g1515">
          <g
             id="g1517">
            <path
               style="fill:#62163b"
               inkscape:connector-curvature="0"
               d="m 413.44,4045.255 c -2.972,-1.823 -6.481,-2.893 -9.807,-3.945 0.202,-0.708 0.046,-0.768 -0.167,-0.053 -0.175,-0.055 -0.352,-0.111 -0.524,-0.166 -5.155,-1.649 -10.389,-3.058 -15.642,-4.356 -0.921,-0.228 -1.849,-0.451 -2.781,-0.666 -0.006,-0.078 -0.015,-0.155 -0.02,-0.23 -0.005,-0.095 -0.138,-0.088 -0.144,0 -0.004,0.062 -0.006,0.123 -0.008,0.185 -2.56,-0.594 -5.152,-1.128 -7.751,-1.517 -0.187,-0.594 -0.382,-1.184 -0.597,-1.768 -0.031,-0.087 -0.158,-0.049 -0.138,0.043 0.124,0.554 0.234,1.11 0.336,1.669 -1.137,-0.165 -2.275,-0.302 -3.411,-0.4 -1.699,-0.146 -5.048,-0.757 -6.695,0.319 -0.091,0.011 -0.178,0.049 -0.25,0.133 -1.866,2.183 -3.286,4.645 -4.582,7.197 -1.263,2.484 -2.721,5.601 -2.972,8.396 -0.002,0.018 0.001,0.034 0,0.051 -0.61,0.388 -0.848,1.371 -0.218,1.922 0.682,0.596 1.062,1.058 1.531,1.798 0.13,0.205 1.044,0.993 1.354,1.155 0.437,0.679 1.106,1.204 1.911,1.36 0.079,0.015 0.157,0.021 0.237,0.035 0.241,0.208 0.481,0.414 0.722,0.608 -1.392,0.53 -2.846,0.926 -4.257,1.35 -4.185,1.262 -8.451,2.243 -12.706,3.26 -0.074,-0.348 -0.147,-0.695 -0.21,-1.044 -0.005,-0.024 -0.043,-0.013 -0.039,0.013 0.062,0.35 0.131,0.696 0.199,1.044 -1.025,0.244 -2.051,0.49 -3.073,0.743 -2.619,0.65 -24.537,6.383 -19.064,11.885 0.007,0.01 0.015,0.013 0.023,0.019 -0.22,2.775 0.694,5.545 1.501,8.166 0.983,3.192 2.478,6.331 4.021,9.29 0.574,1.104 1.612,1.292 2.506,0.946 0.395,0.758 1.207,1.272 2.255,0.938 6.322,-2.024 12.234,-4.931 18.058,-8.027 0.236,0.032 0.495,-0.091 0.619,-0.331 6.693,-3.579 13.291,-7.379 20.283,-10.356 0.069,0.024 0.142,0.046 0.22,0.065 0.814,0.206 1.086,-0.161 1.223,-0.665 0.081,-0.033 0.161,-0.064 0.241,-0.098 -0.391,0.786 -0.655,1.663 -0.923,2.459 -0.429,1.272 -0.757,2.586 -1.14,3.879 -1.367,-0.596 -2.913,1.303 -1.582,2.359 0.201,0.157 0.403,0.319 0.605,0.48 -0.128,0.768 0.677,1.324 1.303,1.034 3.94,3.118 8.306,6.384 13.149,7.659 0.192,2.081 3.247,3.309 4.289,0.986 6.89,-15.374 15.757,-29.75 22.994,-44.949 0.522,-1.096 0.144,-2.253 -0.879,-2.879 z m -65.923,19.509 c 1.483,5.673 3.976,10.901 8.177,15.202 -0.202,0.262 -0.403,0.522 -0.604,0.787 -0.74,0.355 -1.479,0.713 -2.218,1.069 -0.184,-0.967 -0.269,-1.946 -0.153,-2.938 0.064,-0.553 -0.536,-0.937 -0.967,-0.514 -1.576,1.54 -2.974,3.273 -4.142,5.145 -0.142,-0.539 -0.259,-1.116 -0.216,-1.486 0.125,-0.182 0.244,-0.367 0.356,-0.56 0.293,-0.497 -0.341,-1.06 -0.809,-0.751 -0.281,0.185 -0.451,0.45 -0.55,0.763 -0.278,0.406 -0.592,0.784 -0.92,1.151 -2.913,-4.771 -4.442,-10.149 -6.13,-15.462 2.716,-0.846 5.463,-1.602 8.176,-2.406 z m 11.501,14.127 c -0.633,0.295 -1.267,0.591 -1.898,0.892 0.652,-0.868 1.273,-1.754 1.755,-2.722 0.081,0.574 -0.022,1.25 0.143,1.83 z m -20.552,9.361 c 0.358,-0.921 0.73,-1.837 1.088,-2.758 0.065,0.764 0.129,1.527 0.126,2.293 -0.402,0.158 -0.807,0.313 -1.214,0.465 z m 7.695,-3.772 c 0.17,0.18 0.472,-0.075 0.331,-0.275 -0.139,-0.199 -0.268,-0.401 -0.402,-0.603 0.104,-0.108 0.208,-0.218 0.309,-0.33 0.102,0.525 0.255,1.037 0.383,1.454 -1.196,0.554 -2.397,1.097 -3.606,1.621 0.836,-0.794 1.721,-1.551 2.539,-2.362 0.144,0.168 0.294,0.332 0.446,0.495 z m 5.681,-2.159 c -1.018,0.492 -2.037,0.982 -3.059,1.467 0.822,-1.275 1.757,-2.477 2.784,-3.595 0.031,0.717 0.133,1.426 0.275,2.128 z m -21.369,-11.773 c 1.313,4.809 2.375,9.905 4.36,14.44 0.17,0.386 0.7,0.224 0.623,-0.189 -0.889,-4.9 -2.873,-9.75 -4.473,-14.501 0.594,-0.279 1.194,-0.531 1.767,-0.773 2.036,-0.856 4.128,-1.579 6.241,-2.245 1.354,5.521 2.536,11.327 6.025,15.851 -1.359,1.404 -2.957,2.617 -4.229,4.096 -0.078,-1.551 -0.34,-3.094 -0.172,-4.648 0.077,-0.708 -0.879,-0.97 -1.094,-0.26 -0.477,1.577 -1.066,3.115 -1.644,4.655 0.207,-1.415 0.413,-2.826 0.45,-4.233 0.019,-0.209 0.026,-0.419 0.013,-0.637 -0.018,-0.318 -0.423,-0.328 -0.522,-0.055 -0.51,1.407 -0.807,2.975 -0.993,4.558 -0.268,0.604 -0.515,1.192 -0.644,1.74 -0.005,0.025 0.034,0.035 0.039,0.01 0.128,-0.579 0.347,-1.126 0.596,-1.662 -0.085,0.745 -0.146,1.491 -0.194,2.227 -0.79,0.275 -1.585,0.535 -2.385,0.782 -0.044,-0.129 -0.098,-0.259 -0.17,-0.389 -1.584,-2.917 -2.826,-5.998 -4.262,-8.988 -0.722,-1.502 -1.336,-3.051 -1.968,-4.593 -0.209,-0.512 -0.453,-1.082 -0.526,-1.634 -0.037,-0.288 -0.111,-0.541 -0.278,-0.761 0.344,-0.387 0.554,-0.782 1.042,-1.223 0.692,-0.626 1.528,-1.131 2.398,-1.568 z m 30.954,7.247 c 1.053,-1.521 2.305,-2.888 3.752,-4.061 0.185,0.609 0.371,1.216 0.557,1.823 0.044,0.146 0.141,0.25 0.259,0.315 -1.537,0.606 -3.057,1.251 -4.568,1.923 z m 5.444,-2.263 c 1.077,-1.26 1.673,-2.824 2.7,-4.112 0.554,0.756 1.052,2.293 1.97,2.177 0.59,-0.074 1.022,-0.347 1.409,-0.68 -0.053,0.207 -0.083,0.407 -0.087,0.599 -2.032,0.582 -4.025,1.263 -5.992,2.016 z m 38.251,-18.958 c -1.725,-0.723 -3.278,-1.859 -4.709,-3.05 -0.215,-0.18 -0.514,0.146 -0.294,0.317 1.49,1.171 3.098,2.284 4.871,2.975 -0.936,1.725 -1.88,3.443 -2.83,5.16 -1.508,-0.683 -3.047,-1.315 -4.548,-1.947 -0.214,-0.091 -0.37,0.194 -0.17,0.318 1.385,0.861 2.96,1.413 4.528,1.973 -1.836,3.319 -3.682,6.633 -5.491,9.966 -1.31,-0.92 -2.531,-1.95 -3.635,-3.205 -0.138,-0.157 -0.384,0.062 -0.275,0.229 0.885,1.371 2.249,2.432 3.722,3.326 -1.826,3.371 -3.612,6.763 -5.308,10.2 -3.001,-1.386 -5.871,-3.05 -8.559,-4.983 -0.336,-0.241 -0.783,0.234 -0.442,0.479 2.746,1.973 5.665,3.668 8.722,5.081 -1.149,2.347 -2.254,4.715 -3.298,7.113 -3.255,-1.655 -6.265,-3.836 -9.141,-6.143 0.076,-0.229 0.105,-0.488 0.074,-0.778 -0.381,-3.455 0.358,-6.418 1.607,-9.611 0.476,-1.222 -0.739,-2.089 -1.657,-1.547 -0.161,-0.212 -0.474,-0.34 -0.716,-0.236 -0.418,0.178 -0.767,0.429 -1.064,0.731 -0.135,-0.163 -0.351,-0.261 -0.624,-0.21 0.009,-0.01 0.014,-0.015 0.021,-0.021 0.209,-0.163 0.074,-0.572 -0.209,-0.458 -0.307,0.126 -0.446,0.276 -0.619,0.563 -0.025,0.04 -0.045,0.082 -0.064,0.125 -0.308,0.076 -0.612,0.153 -0.917,0.234 -0.027,-0.015 -0.054,-0.03 -0.082,-0.044 0.229,-0.64 0.512,-1.254 0.846,-1.845 0.271,-0.518 -0.307,-0.947 -0.772,-0.716 -0.382,0.188 -0.661,0.443 -0.967,0.735 -0.331,0.313 -1.322,1.726 -1.512,1.206 -0.365,-0.996 -0.957,-1.778 -1.821,-2.376 -0.202,-0.138 -0.506,-0.052 -0.659,0.111 -1.114,1.186 -1.71,2.698 -2.641,3.995 l -0.488,-1.6 c -0.099,-0.324 -0.531,-0.522 -0.825,-0.305 -2.143,1.597 -3.921,3.563 -5.313,5.829 -0.217,-0.879 0.194,-2.088 -0.664,-2.799 -0.341,-0.284 -0.782,-0.12 -0.92,0.28 -0.495,1.43 -1.333,2.659 -2.234,3.854 -3.938,-4.018 -6.774,-9.307 -8.399,-14.777 3.52,-1.045 7.109,-2.002 10.605,-3.188 1.456,3.959 3.618,7.845 6.811,10.561 0.213,0.182 0.49,-0.118 0.294,-0.319 -3.019,-3.086 -5.288,-6.422 -6.893,-10.311 1.271,-0.437 2.529,-0.901 3.768,-1.415 0.944,-0.392 2.367,-0.895 3.639,-1.588 1.119,0.627 2.354,1.031 3.873,1.057 1.807,0.028 3.427,-1.408 3.832,-3.116 0.56,-2.35 -0.943,-4.108 -3.007,-4.878 -1.589,-0.591 -1.735,-0.307 -2.834,-1.29 -1.302,-1.166 -3.661,-1.341 -5.076,-0.234 -0.14,-0.263 -0.266,-0.528 -0.377,-0.794 -0.197,-0.474 -0.574,-0.704 -0.958,-0.742 0.563,-1.798 0.981,-3.672 1.623,-5.426 0.996,-2.716 2.078,-5.409 3.531,-7.919 0.585,-0.126 1.379,0.136 1.946,0.291 -0.14,0.566 -0.141,1.217 -0.181,1.711 -0.198,2.411 -0.703,5.059 -0.369,7.456 0.051,0.362 0.527,0.433 0.642,0.066 0.6,-1.922 0.469,-4.066 0.559,-6.063 0.035,-0.771 0.071,-1.543 0.116,-2.314 0.014,-0.225 0.005,-0.44 -0.007,-0.659 1.442,0.364 2.881,0.754 4.308,1.168 1.065,0.31 2.135,0.604 3.206,0.896 0.388,2.887 0.674,5.789 1.256,8.644 0.051,0.249 0.423,0.166 0.424,-0.069 0.011,-2.803 -0.293,-5.615 -0.887,-8.361 2.339,0.629 4.687,1.236 7.028,1.857 0.03,0.228 0.059,0.456 0.093,0.686 0.219,1.535 0.229,3.127 0.521,4.642 0.041,0.216 0.379,0.189 0.418,-0.013 0.32,-1.617 0.019,-3.38 -0.344,-5.13 0.71,0.189 1.423,0.377 2.13,0.573 1.3,0.358 2.595,0.729 3.889,1.104 0.094,2.914 0.582,6.035 1.169,8.807 0.063,0.302 0.474,0.183 0.494,-0.079 0.218,-2.844 -0.758,-5.695 -1.074,-8.553 3.422,1.007 6.827,2.076 10.198,3.24 0.295,0.102 0.594,0.205 0.893,0.309 0.013,1.218 0.179,2.438 0.492,3.616 0.049,0.18 0.328,0.095 0.277,-0.085 -0.316,-1.121 -0.494,-2.284 -0.53,-3.449 2.179,0.749 4.419,1.538 6.485,2.583 -1.457,2.888 -2.969,5.739 -4.507,8.579 z"
               id="path1519" />
          </g>
        </g>
        <g
           id="g1521">
          <g
             id="g1523">
            <path
               style="fill:#62163b"
               inkscape:connector-curvature="0"
               d="m 394.695,4112.603 c 2.972,1.823 6.481,2.893 9.807,3.945 -0.202,0.708 -0.046,0.768 0.167,0.053 0.175,0.055 0.351,0.111 0.524,0.166 5.155,1.649 10.389,3.058 15.642,4.356 0.921,0.228 1.849,0.451 2.781,0.666 0.006,0.078 0.015,0.155 0.021,0.23 0.005,0.095 0.138,0.088 0.144,0 0.004,-0.062 0.006,-0.123 0.008,-0.185 2.56,0.594 5.152,1.128 7.751,1.517 0.187,0.594 0.382,1.184 0.597,1.768 0.031,0.087 0.158,0.049 0.138,-0.043 -0.124,-0.554 -0.235,-1.11 -0.336,-1.669 1.137,0.165 2.275,0.302 3.411,0.4 1.699,0.146 5.048,0.757 6.695,-0.319 0.09,-0.011 0.178,-0.049 0.25,-0.133 1.866,-2.183 3.286,-4.645 4.582,-7.197 1.263,-2.484 2.721,-5.601 2.972,-8.396 0.002,-0.018 -10e-4,-0.034 0,-0.051 0.61,-0.388 0.848,-1.371 0.218,-1.922 -0.682,-0.596 -1.062,-1.058 -1.531,-1.798 -0.13,-0.205 -1.044,-0.993 -1.354,-1.155 -0.437,-0.679 -1.106,-1.204 -1.911,-1.36 -0.079,-0.015 -0.157,-0.021 -0.237,-0.035 -0.241,-0.208 -0.481,-0.414 -0.722,-0.608 1.392,-0.53 2.846,-0.926 4.257,-1.35 4.185,-1.262 8.451,-2.243 12.706,-3.26 0.074,0.348 0.147,0.695 0.21,1.044 0.005,0.024 0.043,0.013 0.039,-0.013 -0.062,-0.35 -0.131,-0.696 -0.199,-1.044 1.025,-0.244 2.051,-0.49 3.073,-0.743 2.619,-0.65 24.537,-6.383 19.064,-11.885 -0.007,-0.01 -0.016,-0.013 -0.023,-0.019 0.22,-2.775 -0.694,-5.545 -1.501,-8.166 -0.983,-3.192 -2.478,-6.331 -4.021,-9.29 -0.574,-1.104 -1.612,-1.292 -2.506,-0.946 -0.395,-0.758 -1.207,-1.272 -2.255,-0.938 -6.322,2.024 -12.233,4.931 -18.058,8.027 -0.236,-0.032 -0.495,0.091 -0.619,0.331 -6.693,3.579 -13.291,7.379 -20.283,10.356 -0.069,-0.024 -0.142,-0.046 -0.22,-0.065 -0.814,-0.206 -1.086,0.161 -1.223,0.665 -0.081,0.033 -0.161,0.064 -0.241,0.098 0.391,-0.786 0.655,-1.663 0.923,-2.459 0.429,-1.272 0.757,-2.586 1.14,-3.879 1.367,0.596 2.913,-1.303 1.582,-2.359 -0.201,-0.157 -0.403,-0.319 -0.605,-0.48 0.128,-0.768 -0.677,-1.324 -1.303,-1.034 -3.94,-3.118 -8.306,-6.384 -13.149,-7.659 -0.192,-2.081 -3.247,-3.309 -4.289,-0.986 -6.89,15.374 -15.757,29.75 -22.994,44.949 -0.523,1.095 -0.145,2.253 0.878,2.879 z m 65.924,-19.509 c -1.483,-5.673 -3.976,-10.901 -8.177,-15.202 0.202,-0.262 0.403,-0.522 0.604,-0.787 0.74,-0.355 1.479,-0.713 2.217,-1.069 0.185,0.967 0.27,1.946 0.153,2.938 -0.064,0.553 0.536,0.937 0.968,0.514 1.576,-1.54 2.973,-3.273 4.142,-5.145 0.142,0.539 0.259,1.116 0.216,1.486 -0.125,0.182 -0.244,0.367 -0.356,0.56 -0.292,0.497 0.341,1.06 0.81,0.751 0.281,-0.185 0.451,-0.45 0.55,-0.763 0.278,-0.406 0.592,-0.784 0.92,-1.151 2.913,4.771 4.442,10.149 6.13,15.462 -2.717,0.845 -5.464,1.601 -8.177,2.406 z m -11.501,-14.127 c 0.633,-0.295 1.267,-0.591 1.898,-0.892 -0.652,0.868 -1.273,1.754 -1.755,2.722 -0.081,-0.574 0.021,-1.25 -0.143,-1.83 z m 20.551,-9.362 c -0.358,0.921 -0.73,1.837 -1.088,2.758 -0.065,-0.764 -0.129,-1.527 -0.126,-2.293 0.402,-0.158 0.808,-0.312 1.214,-0.465 z m -7.695,3.772 c -0.17,-0.18 -0.472,0.075 -0.331,0.275 0.139,0.199 0.268,0.401 0.402,0.603 -0.104,0.108 -0.208,0.218 -0.309,0.33 -0.102,-0.525 -0.256,-1.037 -0.383,-1.454 1.196,-0.554 2.397,-1.097 3.607,-1.621 -0.837,0.794 -1.721,1.551 -2.539,2.362 -0.145,-0.168 -0.295,-0.332 -0.447,-0.495 z m -5.681,2.159 c 1.018,-0.492 2.037,-0.982 3.059,-1.467 -0.822,1.275 -1.757,2.477 -2.784,3.595 -0.03,-0.717 -0.132,-1.426 -0.275,-2.128 z m 21.369,11.774 c -1.313,-4.809 -2.375,-9.905 -4.36,-14.44 -0.17,-0.386 -0.7,-0.224 -0.623,0.189 0.889,4.9 2.873,9.75 4.473,14.501 -0.594,0.279 -1.194,0.531 -1.767,0.773 -2.036,0.856 -4.128,1.579 -6.241,2.245 -1.353,-5.521 -2.536,-11.327 -6.025,-15.851 1.359,-1.404 2.957,-2.617 4.229,-4.096 0.078,1.551 0.34,3.094 0.172,4.648 -0.076,0.708 0.879,0.97 1.094,0.26 0.478,-1.577 1.066,-3.115 1.645,-4.655 -0.207,1.415 -0.413,2.826 -0.45,4.233 -0.019,0.209 -0.026,0.419 -0.013,0.637 0.018,0.318 0.423,0.328 0.522,0.055 0.51,-1.407 0.807,-2.975 0.993,-4.558 0.268,-0.604 0.515,-1.192 0.644,-1.74 0.005,-0.025 -0.034,-0.035 -0.039,-0.01 -0.128,0.579 -0.347,1.126 -0.596,1.662 0.085,-0.745 0.146,-1.491 0.194,-2.227 0.79,-0.275 1.585,-0.535 2.385,-0.782 0.044,0.129 0.098,0.259 0.17,0.389 1.584,2.917 2.826,5.998 4.262,8.988 0.722,1.502 1.336,3.051 1.968,4.593 0.209,0.512 0.453,1.082 0.526,1.634 0.037,0.288 0.111,0.541 0.278,0.761 -0.344,0.387 -0.553,0.782 -1.042,1.223 -0.692,0.625 -1.529,1.13 -2.399,1.568 z m -30.954,-7.247 c -1.053,1.521 -2.305,2.888 -3.752,4.061 -0.185,-0.609 -0.371,-1.216 -0.557,-1.823 -0.044,-0.146 -0.141,-0.25 -0.259,-0.315 1.537,-0.606 3.057,-1.252 4.568,-1.923 z m -5.444,2.262 c -1.077,1.26 -1.673,2.824 -2.7,4.112 -0.554,-0.756 -1.052,-2.293 -1.97,-2.177 -0.589,0.074 -1.021,0.347 -1.409,0.68 0.053,-0.207 0.083,-0.407 0.087,-0.599 2.033,-0.581 4.025,-1.263 5.992,-2.016 z m -38.251,18.958 c 1.725,0.723 3.278,1.859 4.709,3.05 0.215,0.18 0.514,-0.146 0.294,-0.317 -1.49,-1.171 -3.098,-2.284 -4.871,-2.975 0.936,-1.725 1.88,-3.443 2.83,-5.16 1.508,0.683 3.047,1.315 4.548,1.947 0.214,0.091 0.37,-0.194 0.17,-0.318 -1.385,-0.861 -2.96,-1.413 -4.528,-1.973 1.836,-3.319 3.682,-6.633 5.491,-9.966 1.31,0.92 2.531,1.95 3.635,3.205 0.138,0.157 0.384,-0.062 0.275,-0.229 -0.885,-1.371 -2.249,-2.432 -3.722,-3.326 1.826,-3.371 3.612,-6.763 5.308,-10.2 3.001,1.386 5.871,3.05 8.559,4.983 0.336,0.241 0.783,-0.234 0.442,-0.479 -2.746,-1.973 -5.665,-3.668 -8.722,-5.081 1.149,-2.347 2.254,-4.715 3.298,-7.113 3.255,1.655 6.265,3.836 9.141,6.143 -0.076,0.229 -0.105,0.488 -0.074,0.778 0.38,3.455 -0.358,6.418 -1.607,9.611 -0.476,1.222 0.739,2.089 1.657,1.547 0.161,0.212 0.474,0.34 0.716,0.236 0.419,-0.178 0.767,-0.429 1.065,-0.731 0.135,0.163 0.351,0.261 0.624,0.21 -0.009,0.01 -0.014,0.015 -0.022,0.021 -0.209,0.163 -0.074,0.572 0.209,0.458 0.307,-0.126 0.446,-0.276 0.619,-0.563 0.025,-0.04 0.045,-0.082 0.064,-0.125 0.308,-0.076 0.612,-0.153 0.917,-0.234 0.027,0.015 0.054,0.03 0.082,0.044 -0.229,0.64 -0.512,1.254 -0.846,1.845 -0.271,0.518 0.307,0.947 0.772,0.716 0.382,-0.188 0.661,-0.443 0.967,-0.735 0.331,-0.313 1.322,-1.726 1.512,-1.206 0.365,0.996 0.957,1.778 1.821,2.376 0.202,0.138 0.506,0.052 0.659,-0.111 1.114,-1.186 1.71,-2.698 2.641,-3.995 l 0.488,1.6 c 0.099,0.324 0.531,0.522 0.825,0.305 2.142,-1.597 3.921,-3.563 5.313,-5.829 0.216,0.879 -0.194,2.088 0.664,2.799 0.342,0.284 0.782,0.12 0.92,-0.28 0.495,-1.43 1.333,-2.659 2.234,-3.854 3.938,4.018 6.774,9.307 8.399,14.777 -3.52,1.045 -7.109,2.002 -10.605,3.188 -1.456,-3.959 -3.618,-7.845 -6.811,-10.561 -0.213,-0.182 -0.49,0.118 -0.294,0.319 3.019,3.086 5.288,6.422 6.893,10.311 -1.271,0.437 -2.53,0.901 -3.768,1.415 -0.944,0.392 -2.367,0.895 -3.639,1.588 -1.119,-0.627 -2.354,-1.031 -3.873,-1.057 -1.807,-0.028 -3.427,1.408 -3.832,3.116 -0.56,2.35 0.943,4.108 3.007,4.878 1.589,0.591 1.735,0.307 2.834,1.29 1.302,1.166 3.661,1.341 5.076,0.234 0.14,0.263 0.266,0.528 0.377,0.794 0.197,0.474 0.574,0.704 0.958,0.742 -0.563,1.798 -0.981,3.672 -1.623,5.426 -0.996,2.716 -2.078,5.409 -3.531,7.919 -0.585,0.126 -1.379,-0.136 -1.946,-0.291 0.14,-0.566 0.141,-1.217 0.181,-1.711 0.198,-2.411 0.703,-5.059 0.369,-7.456 -0.051,-0.362 -0.527,-0.433 -0.642,-0.066 -0.6,1.922 -0.469,4.066 -0.559,6.063 -0.036,0.771 -0.071,1.543 -0.116,2.314 -0.014,0.225 -0.005,0.44 0.007,0.659 -1.442,-0.364 -2.881,-0.754 -4.308,-1.168 -1.065,-0.31 -2.135,-0.604 -3.206,-0.896 -0.389,-2.887 -0.674,-5.789 -1.256,-8.644 -0.051,-0.249 -0.423,-0.166 -0.424,0.069 -0.011,2.803 0.293,5.615 0.887,8.361 -2.339,-0.629 -4.687,-1.236 -7.028,-1.857 -0.03,-0.228 -0.059,-0.456 -0.093,-0.686 -0.219,-1.535 -0.229,-3.127 -0.521,-4.642 -0.041,-0.216 -0.379,-0.189 -0.418,0.013 -0.32,1.617 -0.019,3.38 0.344,5.13 -0.71,-0.189 -1.423,-0.377 -2.13,-0.573 -1.299,-0.358 -2.595,-0.729 -3.889,-1.104 -0.094,-2.914 -0.582,-6.035 -1.169,-8.807 -0.063,-0.302 -0.474,-0.183 -0.494,0.079 -0.218,2.844 0.758,5.695 1.074,8.553 -3.422,-1.007 -6.827,-2.076 -10.198,-3.24 -0.295,-0.102 -0.594,-0.205 -0.893,-0.309 -0.013,-1.218 -0.179,-2.438 -0.493,-3.616 -0.048,-0.18 -0.328,-0.095 -0.277,0.085 0.316,1.121 0.493,2.284 0.53,3.449 -2.179,-0.749 -4.419,-1.538 -6.485,-2.583 1.458,-2.887 2.971,-5.739 4.508,-8.579 z"
               id="path1525" />
          </g>
        </g>
      </g>
    </g>
  </g>
</svg>
