<?xml version="1.0" encoding="UTF-8" standalone="no"?>
<!-- Created with Inkscape (http://www.inkscape.org/) -->

<svg
   xmlns:dc="http://purl.org/dc/elements/1.1/"
   xmlns:cc="http://creativecommons.org/ns#"
   xmlns:rdf="http://www.w3.org/1999/02/22-rdf-syntax-ns#"
   xmlns:svg="http://www.w3.org/2000/svg"
   xmlns="http://www.w3.org/2000/svg"
   xmlns:sodipodi="http://sodipodi.sourceforge.net/DTD/sodipodi-0.dtd"
   xmlns:inkscape="http://www.inkscape.org/namespaces/inkscape"
   width="120"
   height="142"
   id="svg4302"
   version="1.1"
   inkscape:version="0.48.5 r10040"
   sodipodi:docname="Documento nuevo 16">
  <defs
     id="defs4304" />
  <sodipodi:namedview
     id="base"
     pagecolor="#ffffff"
     bordercolor="#666666"
     borderopacity="1.0"
     inkscape:pageopacity="0.0"
     inkscape:pageshadow="2"
     inkscape:zoom="3.959798"
     inkscape:cx="40.667989"
     inkscape:cy="59.665159"
     inkscape:document-units="px"
     inkscape:current-layer="layer1"
     showgrid="false"
     inkscape:window-width="1280"
     inkscape:window-height="734"
     inkscape:window-x="0"
     inkscape:window-y="27"
     inkscape:window-maximized="1" />
  <metadata
     id="metadata4307">
    <rdf:RDF>
      <cc:Work
         rdf:about="">
        <dc:format>image/svg+xml</dc:format>
        <dc:type
           rdf:resource="http://purl.org/dc/dcmitype/StillImage" />
        <dc:title></dc:title>
      </cc:Work>
    </rdf:RDF>
  </metadata>
  <g
     inkscape:label="Capa 1"
     inkscape:groupmode="layer"
     id="layer1"
     transform="translate(0,-910.36218)">
    <g
       transform="translate(-622.57579,-1580.4661)"
       id="g977">
      <g
         id="g979">
        <path
           style="fill:#62163b"
           inkscape:connector-curvature="0"
           d="m 739.61,2611.327 c 0.102,-0.105 0.193,-0.226 0.252,-0.378 0.822,-2.122 0.615,-4.523 0.604,-6.743 -0.012,-2.473 -0.039,-4.946 -0.074,-7.417 -0.072,-5.28 -0.197,-10.559 -0.348,-15.836 -0.291,-10.288 -0.748,-20.566 -1.256,-30.847 -0.504,-10.21 -1.004,-20.422 -1.396,-30.636 -0.188,-4.889 -0.324,-9.773 -0.615,-14.657 -0.145,-2.419 -0.273,-4.838 -0.396,-7.258 -0.047,-0.905 -0.078,-1.842 -0.174,-2.772 1.398,-0.717 1.148,-3.002 -0.748,-3.152 -0.057,-0.131 -0.107,-0.266 -0.17,-0.395 -0.01,-0.017 -0.039,-0.017 -0.047,0 -0.063,0.123 -0.113,0.252 -0.17,0.378 -15.965,0.032 -31.896,0.448 -47.857,-0.11 -7.225,-0.252 -14.457,-0.165 -21.661,0.423 -3.957,0.323 -8.078,0.787 -12.104,1.544 0.146,-0.236 -0.035,-0.578 -0.423,-0.5 -3.313,0.66 -6.779,0.838 -10.038,1.558 -0.009,-0.064 -0.016,-0.129 -0.025,-0.194 -0.041,-0.278 -0.449,-0.279 -0.487,0 -0.015,0.106 -0.025,0.212 -0.04,0.317 -2.053,0.499 -4.014,1.241 -5.787,2.492 -2.202,1.552 -3.797,3.407 -5.332,5.482 -1.637,2.217 -3.404,4.441 -4.342,6.979 -0.063,0.173 -0.033,0.327 0.044,0.457 -0.163,0.679 -0.184,1.334 0.004,1.937 0.087,0.279 0.382,0.444 0.679,0.441 -0.881,1.822 -1.08,3.79 -1.187,5.849 -0.186,3.613 0.058,7.248 0.097,10.863 0.042,4.024 -0.365,8.052 -0.321,12.084 0.028,2.431 0.105,4.86 0.166,7.291 0.058,2.239 -0.146,4.547 0.518,6.723 0.064,0.207 0.223,0.336 0.408,0.407 0.574,5.866 1.22,11.729 1.229,17.627 -0.032,0.081 -0.072,0.161 -0.104,0.243 -0.052,0.144 0.006,0.248 0.107,0.309 -0.002,0.084 0.002,0.169 0,0.254 -0.07,8.216 -0.596,16.422 -0.787,24.635 -0.24,0.675 -0.396,1.393 -0.44,2.166 -0.012,0.211 0.22,0.289 0.397,0.229 -0.012,0.781 -0.025,1.562 -0.028,2.344 -0.019,4.911 0.128,9.835 0.73,14.718 0.447,3.62 0.791,7.832 2.372,11.3 -0.055,0.419 -0.088,0.841 -0.1,1.265 -0.008,0.333 0.555,0.491 0.728,0.175 0.024,-0.042 0.044,-0.085 0.067,-0.127 0.518,0.596 1.768,0.238 1.729,-0.563 -0.014,-0.283 -0.046,-0.567 -0.069,-0.852 6.859,0.718 13.88,0.848 20.776,1.079 7.645,0.254 15.295,0.446 22.942,0.661 7.563,0.213 15.129,0.384 22.697,0.441 3.701,0.028 7.404,0.016 11.105,-0.029 2.916,-0.036 5.949,0.225 8.697,-0.671 3.104,0.502 6.809,-3.573 8.559,-5.295 2.754,-2.712 5.055,-5.816 7.041,-9.016 1.908,-0.573 3.652,-1.409 5.012,-2.653 0.978,-0.895 0.478,-2.061 -0.434,-2.57 z m -97.757,-110.242 c -4.486,3.19 -11.96,7.756 -10.937,13.385 0.039,0.215 0.417,0.198 0.471,0 0.386,-1.451 0.51,-2.797 1.191,-4.188 0.76,-1.549 2.014,-2.89 3.275,-4.129 1.822,-1.787 3.947,-3.315 5.993,-4.897 -0.307,6.587 0.134,13.255 0.663,19.864 -5.518,1.57 -11.314,4.919 -12.846,10.198 -0.112,0.389 0.498,0.514 0.659,0.161 2.249,-4.906 6.718,-8.315 12.194,-10.255 0.24,3.005 0.498,5.998 0.709,8.965 0.135,1.897 0.261,3.794 0.382,5.69 -0.769,0.777 -1.48,1.585 -2.114,2.43 -4.828,3.64 -11.926,7.177 -11.799,13.364 -0.317,-3.072 -0.604,-6.146 -0.775,-9.228 -0.027,-0.488 -0.045,-0.976 -0.063,-1.465 0.076,0 0.154,-0.025 0.222,-0.101 0.772,-0.864 1.246,-1.887 1.94,-2.808 0.907,-1.203 2.111,-2.227 3.307,-3.199 2.352,-1.914 4.996,-3.523 7.375,-5.411 0.189,-0.15 -0.086,-0.385 -0.277,-0.246 -2.471,1.813 -5.151,3.38 -7.638,5.175 -1.753,1.266 -4.097,3.13 -4.972,5.178 -0.124,-5.497 0.211,-10.984 0.404,-16.475 1.279,-1.839 2.435,-3.754 3.813,-5.538 2.33,-3.013 5.193,-5.63 8.58,-7.703 0.103,-0.063 0.01,-0.211 -0.099,-0.149 -4.868,2.744 -9.271,6.931 -12.235,11.541 0.096,-3.453 0.107,-6.908 -0.122,-10.367 0.253,-0.513 0.452,-1.057 0.674,-1.589 2.678,-1.964 4.421,-5.104 6.431,-7.708 1.784,-1.526 3.723,-2.875 5.848,-4.011 -0.109,1.17 -0.198,2.342 -0.254,3.516 z m -13.211,10.642 c 0,0 10e-4,0 0.002,0 -0.083,2.714 -0.273,5.424 -0.512,8.133 -0.247,-2.769 -0.27,-5.514 0.51,-8.13 z m 4.392,116.029 c 0.859,-1.897 1.685,-3.803 2.85,-5.605 1.941,-2.997 4.341,-5.726 7.076,-8.176 0.316,-0.283 -0.149,-0.678 -0.481,-0.43 -3.783,2.815 -7.785,6.652 -9.997,10.959 -0.463,-2.369 -0.987,-4.74 -1.211,-7.116 -0.072,-0.769 -0.126,-1.538 -0.185,-2.306 0.168,0.019 0.357,-0.053 0.395,-0.212 0.607,-2.621 0.998,-4.87 2.331,-7.329 1.403,-2.587 3.428,-4.912 5.645,-6.981 0.259,-0.244 -0.147,-0.607 -0.415,-0.369 -3.259,2.917 -7.32,7.416 -8.152,11.903 -0.107,-1.952 -0.188,-3.904 -0.224,-5.858 0.165,0.392 0.887,0.342 1.004,-0.071 0.921,-3.264 2.077,-5.779 4.544,-8.388 2.035,-2.155 4.173,-3.99 5.477,-6.602 0.076,-0.154 -0.141,-0.266 -0.254,-0.131 -3.185,3.761 -9.776,7.479 -10.797,12.479 -0.003,-0.298 -0.01,-0.597 -0.01,-0.896 -0.002,-2.141 0.034,-4.281 0.086,-6.42 0.978,-1.226 2.098,-2.376 3.326,-3.537 2.141,-2.021 4.229,-4.028 5.301,-6.685 0.038,-0.092 -0.133,-0.157 -0.178,-0.066 -1.703,3.446 -5.563,5.76 -8.404,8.561 0.016,-0.513 0.031,-1.025 0.047,-1.539 1.375,-3.378 3.285,-5.915 6.146,-8.61 2.44,-2.299 4.688,-4.573 5.908,-7.599 0.056,-0.141 -0.188,-0.228 -0.268,-0.101 -2.454,4.01 -8.738,7.466 -11.632,11.799 0.008,-0.229 0.017,-0.457 0.024,-0.686 0.182,0.106 0.444,0.089 0.495,-0.155 0.996,-4.855 3.256,-10.907 8.937,-12.909 0.059,-0.02 0.037,-0.096 -0.025,-0.083 -4.379,0.844 -8.111,5.158 -9.271,9.354 0.021,-0.589 0.041,-1.179 0.06,-1.768 0.151,0 0.298,-0.078 0.347,-0.246 0.429,-1.465 0.57,-2.893 1.352,-4.267 0.762,-1.339 1.984,-2.433 3.145,-3.499 1.973,-1.815 4.104,-3.531 5.749,-5.601 0.161,-0.201 -0.202,-0.448 -0.383,-0.263 -2.421,2.476 -7.914,5.37 -10.077,8.916 0.021,-1.044 0.039,-2.088 0.047,-3.133 0.009,-1.048 -0.008,-2.095 -0.035,-3.141 0.628,-0.807 1.286,-1.595 2.068,-2.334 1.732,-1.635 3.788,-2.984 5.93,-4.16 0.161,-0.088 0.018,-0.306 -0.147,-0.225 -2.603,1.279 -5.624,3.051 -7.86,5.239 0.689,-1.727 1.539,-3.337 2.81,-4.948 1.966,-2.491 4.778,-4.446 7.61,-6.094 0.367,-0.213 0.039,-0.721 -0.345,-0.525 -3.815,1.961 -8.067,4.857 -10.277,8.52 -0.093,-1.403 -0.204,-2.806 -0.332,-4.208 1.719,-2.555 4.016,-4.695 6.224,-7.076 0.078,-0.084 -0.055,-0.208 -0.138,-0.123 -1.632,1.664 -3.599,3.314 -5.233,5.135 0.611,-1.069 0.891,-2.26 1.514,-3.346 0.818,-1.43 2.006,-2.725 3.16,-3.944 1.807,-1.91 4.168,-3.667 5.34,-5.975 0.043,-0.084 -0.072,-0.184 -0.153,-0.105 -2.228,2.171 -4.62,4.176 -6.88,6.319 -1.839,1.744 -4.206,4.605 -3.854,7.125 0.033,0.233 0.296,0.393 0.516,0.335 -0.202,0.236 -0.396,0.476 -0.584,0.717 -0.29,-3.06 -0.634,-6.118 -0.953,-9.176 0.115,0.188 0.465,0.208 0.537,-0.043 0.971,-3.324 2.354,-5.93 5.092,-8.394 1.932,-1.741 4.142,-3.21 6.176,-4.853 0.067,0.01 0.135,-0.01 0.192,-0.052 0.666,-0.529 1.313,-1.082 1.951,-1.643 0.211,3.422 0.398,6.842 0.54,10.263 -1.753,1.92 -3.172,4.087 -4.103,6.6 -0.103,0.278 0.393,0.469 0.535,0.2 1.052,-1.983 2.252,-3.772 3.621,-5.416 0.217,5.643 0.316,11.29 0.233,16.952 -0.087,5.978 -0.224,11.954 -0.177,17.931 0.037,4.598 0.398,9.187 0.371,13.784 -0.041,6.633 -1.117,14.763 1.977,21.083 -2.086,0.251 -3.97,1.484 -5.5,2.762 -1.165,0.973 -2.088,2.204 -3.015,3.354 -0.775,0.962 -2.481,2.293 -2.307,3.544 0.029,0.213 0.122,0.431 0.268,0.607 -0.985,0.069 -1.968,0.153 -2.944,0.252 -0.046,-0.425 -0.097,-0.849 -0.156,-1.275 z m 94.33,-3.822 c -1.525,1.314 -3.191,2.483 -4.973,3.508 -1.244,0.715 -2.66,1.022 -3.51,2.056 -2.629,-0.547 -5.455,-0.156 -8.146,-0.107 -3.701,0.068 -7.404,0.082 -11.105,0.074 -7.569,-0.016 -15.135,-0.171 -22.697,-0.351 -7.301,-0.173 -14.6,-0.38 -21.9,-0.546 -5.538,-0.125 -11.221,-0.215 -16.813,0.078 1.372,-0.935 2.315,-2.99 3.137,-4.088 1.688,-2.262 3.318,-3.899 5.954,-4.897 0.893,1.276 3.086,0.143 2.528,-1.243 2.265,-0.023 4.522,-0.325 6.788,-0.452 2.729,-0.152 5.466,-0.171 8.199,-0.162 5.479,0.017 10.963,0.01 16.444,0.013 7.549,0.01 14.992,-0.412 22.541,-0.123 7.051,0.27 14.123,0.58 21.176,0.209 2.865,-0.151 6.248,-0.349 9.301,-1.146 -2.071,2.569 -4.368,4.972 -6.924,7.177 z m -4.926,-9.253 c -7.023,0.222 -14.056,-0.178 -21.07,-0.446 -7.41,-0.282 -14.736,0.293 -22.148,0.417 -5.479,0.093 -10.982,0.029 -16.448,0.431 -4.393,0.324 -9.4,0.527 -13.58,1.976 -1.181,-2.863 -1.217,-6.169 -1.308,-9.146 -0.124,-4.079 0.057,-8.162 0.046,-12.24 -0.014,-4.638 -0.365,-9.272 -0.386,-13.915 -0.022,-4.766 0.075,-9.533 0.157,-14.3 3.357,-3.459 6.058,-7.352 9.641,-10.68 4.027,-3.741 8.73,-7.184 14.305,-8.885 0.033,-0.011 0.018,-0.058 -0.015,-0.047 -5.11,1.624 -9.678,4.024 -13.626,7.362 -3.722,3.146 -7.634,7.068 -10.286,11.102 0.014,-0.829 0.029,-1.656 0.041,-2.484 0.081,-6.109 -0.07,-12.2 -0.381,-18.286 1.563,-1.417 3.295,-2.729 5.223,-3.979 5.003,-3.244 10.386,-6.117 15.581,-9.114 0.029,-0.016 0.002,-0.059 -0.027,-0.042 -6.561,3.931 -14.779,7.157 -20.833,12.071 -0.183,-3.358 -0.409,-6.716 -0.678,-10.073 1.709,-1.618 3.398,-3.256 5.178,-4.788 3.609,-3.105 7.261,-6.166 10.631,-9.481 0.085,-0.083 -0.051,-0.204 -0.137,-0.122 -3.46,3.241 -7.193,6.229 -10.891,9.25 -1.574,1.285 -3.262,2.577 -4.877,3.937 -0.109,-1.315 -0.222,-2.63 -0.342,-3.946 -0.246,-2.727 -0.463,-5.46 -0.674,-8.198 2.979,-5.414 9.191,-8.86 14.563,-12.268 0.051,-0.031 0.004,-0.106 -0.049,-0.074 -5.301,3.211 -11.307,6.432 -14.582,11.453 -0.212,-2.787 -0.418,-5.576 -0.643,-8.365 1.207,-2.052 2.996,-3.745 5.043,-5.194 -1.999,1.337 -3.787,2.833 -5.077,4.783 -0.191,-2.363 -0.401,-4.722 -0.635,-7.08 0.731,-4.442 6.11,-6.026 10.183,-7.839 0.113,-0.049 0.015,-0.198 -0.098,-0.15 -3.912,1.687 -8.807,3.158 -10.187,6.936 -0.216,-2.104 -0.465,-4.202 -0.738,-6.295 0.156,-0.075 0.312,-0.153 0.472,-0.226 0.029,0 0.057,0.011 0.092,0.01 7.246,-0.479 14.4,-1.752 21.676,-2.203 7.211,-0.447 14.454,-0.276 21.661,0.137 15.635,0.895 31.295,0.349 46.951,0.326 -0.391,2.951 -0.068,6.182 -0.133,8.9 -0.127,5.194 -0.02,10.375 0.113,15.567 0.26,10.213 0.645,20.426 1.024,30.636 0.381,10.283 0.813,20.564 1.184,30.847 0.18,4.968 0.328,9.937 0.441,14.907 0.059,2.473 0.101,4.947 0.137,7.42 0.035,2.501 -0.254,5.279 0.674,7.668 0.053,0.132 0.125,0.244 0.211,0.341 -0.135,0.073 -0.266,0.16 -0.393,0.274 -3.437,3.132 -10.484,2.975 -14.986,3.117 z"
           id="path981" />
        <path
           style="fill:#62163b"
           inkscape:connector-curvature="0"
           d="m 680.645,2619.195 c -5.754,-0.59 -11.508,-1.242 -17.309,-1.241 -4.35,0 -9.152,0.303 -12.555,2.982 -0.041,0.033 0.013,0.093 0.06,0.068 4.241,-2.205 9.902,-2.004 14.628,-1.711 5.663,0.351 11.256,1.317 16.854,2.109 6.129,0.869 12.301,0.991 18.494,1.218 8.008,0.295 16.02,0.505 24.035,0.505 1.635,0 1.635,-2.253 0,-2.258 -14.664,-0.034 -29.631,-0.175 -44.207,-1.672 z"
           id="path983" />
        <path
           style="fill:#62163b"
           inkscape:connector-curvature="0"
           d="m 721.604,2624.747 c -2.482,-1.016 -5.648,-0.404 -8.314,-0.334 -3.686,0.096 -7.375,0.124 -11.063,0.112 -7.283,-0.021 -14.559,-0.191 -21.797,-0.935 -6.387,-0.655 -12.891,-1.767 -19.333,-1.216 -4.514,0.387 -10.478,2.042 -14.869,0.525 -0.16,-0.056 -0.247,0.163 -0.113,0.238 3.67,2.063 8.667,1.123 12.715,0.808 6.586,-0.51 12.993,0.53 19.518,1.256 7.609,0.847 15.203,1.116 22.867,1.194 3.689,0.038 7.381,0.01 11.07,-0.063 2.893,-0.055 6.744,0.433 9.318,-0.912 0.263,-0.136 0.308,-0.547 0.001,-0.673 z"
           id="path985" />
        <path
           style="fill:#62163b"
           inkscape:connector-curvature="0"
           d="m 713.993,2627.754 c -5.445,-1.021 -11.398,-0.758 -16.943,-0.999 -6.328,-0.274 -12.65,-0.654 -18.977,-0.997 -5.936,-0.322 -11.862,-0.601 -17.811,-0.621 -5.676,-0.02 -12.052,-0.459 -17.568,0.892 -0.088,0.022 -0.098,0.153 0,0.167 5.352,0.836 11.101,0.389 16.527,0.621 6.285,0.268 12.573,0.602 18.852,0.938 5.975,0.32 11.945,0.671 17.924,0.949 5.822,0.271 12.24,0.942 17.996,-0.113 0.466,-0.085 0.465,-0.749 0,-0.837 z"
           id="path987" />
        <path
           style="fill:#62163b"
           inkscape:connector-curvature="0"
           d="m 633.953,2616.333 c -0.027,-3.367 1.035,-5.854 3.359,-8.479 1.775,-2.009 3.504,-3.946 4.438,-6.403 0.072,-0.188 -0.252,-0.306 -0.355,-0.134 -2.897,4.783 -11.201,8.802 -8.4,15.131 0.192,0.435 0.962,0.406 0.958,-0.115 z"
           id="path989" />
        <path
           style="fill:#62163b"
           inkscape:connector-curvature="0"
           d="m 642.686,2608.581 c -4,2.946 -8.746,6.877 -10.66,11.287 -0.103,0.236 0.311,0.457 0.49,0.253 1.581,-1.803 2.741,-3.892 4.282,-5.738 1.748,-2.095 3.798,-3.981 5.956,-5.74 0.047,-0.038 -0.022,-0.096 -0.068,-0.062 z"
           id="path991" />
        <path
           style="fill:#62163b"
           inkscape:connector-curvature="0"
           d="m 654.852,2503.581 c -0.314,0.187 -0.629,0.372 -0.943,0.557 0.324,-0.174 0.647,-0.347 0.971,-0.515 0.029,-0.017 10e-4,-0.06 -0.028,-0.042 z"
           id="path993" />
        <path
           style="fill:#62163b"
           inkscape:connector-curvature="0"
           d="m 649.865,2506.606 c 1.287,-0.861 2.662,-1.658 4.043,-2.469 -1.389,0.751 -2.764,1.563 -4.043,2.469 z"
           id="path995" />
        <path
           style="fill:#62163b"
           inkscape:connector-curvature="0"
           d="m 649.208,2583.455 c 2.382,-3.899 4.696,-7.683 7.701,-11.245 3.344,-3.963 7.25,-7.531 11.294,-10.925 0.045,-0.039 -0.023,-0.1 -0.068,-0.062 -7.586,6.247 -15.159,13.522 -19.195,22.131 -0.065,0.139 0.191,0.228 0.268,0.101 z"
           id="path997" />
        <path
           style="fill:#62163b"
           inkscape:connector-curvature="0"
           d="m 662.42,2585.994 c 0.043,-0.04 -0.025,-0.101 -0.069,-0.062 -5.71,5.102 -11.845,10.861 -13.894,18.036 -0.015,0.054 0.078,0.078 0.094,0.023 2.047,-7.168 8.161,-12.897 13.869,-17.997 z"
           id="path999" />
        <path
           style="fill:#62163b"
           inkscape:connector-curvature="0"
           d="m 673.27,2590.503 c -6.618,6.419 -12.686,13.275 -18.037,20.573 -0.173,0.235 0.252,0.455 0.421,0.219 5.278,-7.305 11.275,-14.171 17.823,-20.607 0.127,-0.125 -0.078,-0.309 -0.207,-0.185 z"
           id="path1001" />
        <path
           style="fill:#62163b"
           inkscape:connector-curvature="0"
           d="m 685.485,2597.257 c -3.734,3.863 -7.246,8.103 -9.406,12.854 -0.094,0.206 0.285,0.3 0.375,0.092 2.051,-4.736 5.479,-9.007 9.102,-12.885 0.038,-0.042 -0.028,-0.104 -0.071,-0.061 z"
           id="path1003" />
        <path
           style="fill:#62163b"
           inkscape:connector-curvature="0"
           d="m 695.764,2600.289 c -2.172,3.337 -4.916,6.368 -6.898,9.803 -0.086,0.148 0.164,0.279 0.252,0.13 2.014,-3.421 4.781,-6.435 6.982,-9.758 0.129,-0.193 -0.211,-0.369 -0.336,-0.175 z"
           id="path1005" />
        <path
           style="fill:#62163b"
           inkscape:connector-curvature="0"
           d="m 715.881,2599.708 c -3.58,4.137 -8.879,7.387 -10.93,12.451 -0.094,0.231 0.322,0.384 0.445,0.167 2.742,-4.852 7.336,-8.041 11.02,-12.249 0.305,-0.348 -0.234,-0.716 -0.535,-0.369 z"
           id="path1007" />
        <path
           style="fill:#62163b"
           inkscape:connector-curvature="0"
           d="m 728.239,2600.332 c -2.623,3.328 -6.221,6.008 -8.182,9.737 -0.107,0.203 0.232,0.378 0.336,0.175 1.898,-3.746 5.449,-6.47 8.014,-9.824 0.07,-0.093 -0.098,-0.179 -0.168,-0.088 z"
           id="path1009" />
        <path
           style="fill:#62163b"
           inkscape:connector-curvature="0"
           d="m 734.512,2602.282 c -3.172,3.42 -5.414,7.584 -6.379,11.946 -0.047,0.218 0.299,0.307 0.377,0.092 1.539,-4.277 3.082,-8.211 6.348,-11.732 0.197,-0.214 -0.145,-0.523 -0.346,-0.306 z"
           id="path1011" />
      </g>
    </g>
  </g>
</svg>
