<?xml version="1.0" encoding="UTF-8" standalone="no"?>
<!-- Created with Inkscape (http://www.inkscape.org/) -->

<svg
   xmlns:dc="http://purl.org/dc/elements/1.1/"
   xmlns:cc="http://creativecommons.org/ns#"
   xmlns:rdf="http://www.w3.org/1999/02/22-rdf-syntax-ns#"
   xmlns:svg="http://www.w3.org/2000/svg"
   xmlns="http://www.w3.org/2000/svg"
   xmlns:sodipodi="http://sodipodi.sourceforge.net/DTD/sodipodi-0.dtd"
   xmlns:inkscape="http://www.inkscape.org/namespaces/inkscape"
   width="505"
   height="460"
   id="svg2997"
   version="1.1"
   inkscape:version="0.48.5 r10040"
   sodipodi:docname="Documento nuevo 2">
  <defs
     id="defs2999" />
  <sodipodi:namedview
     id="base"
     pagecolor="#ffffff"
     bordercolor="#666666"
     borderopacity="1.0"
     inkscape:pageopacity="0.0"
     inkscape:pageshadow="2"
     inkscape:zoom="0.35"
     inkscape:cx="350"
     inkscape:cy="520"
     inkscape:document-units="px"
     inkscape:current-layer="layer1"
     showgrid="false"
     inkscape:window-width="1280"
     inkscape:window-height="734"
     inkscape:window-x="0"
     inkscape:window-y="27"
     inkscape:window-maximized="1" />
  <metadata
     id="metadata3002">
    <rdf:RDF>
      <cc:Work
         rdf:about="">
        <dc:format>image/svg+xml</dc:format>
        <dc:type
           rdf:resource="http://purl.org/dc/dcmitype/StillImage" />
        <dc:title></dc:title>
      </cc:Work>
    </rdf:RDF>
  </metadata>
  <g
     inkscape:label="Capa 1"
     inkscape:groupmode="layer"
     id="layer1"
     transform="translate(0,-592.36218)">
    <path
       style="fill:#ffffff"
       inkscape:connector-curvature="0"
       d="m 493.63793,640.83137 c -22.1102,-32.42468 -73.56817,-34.44509 -104.67494,-16.44107 -31.43898,18.20552 -21.05916,78.63283 -56.08695,86.10455 -3.20762,-0.57181 -6.40434,-1.00204 -9.45947,-0.56637 -7.73313,1.10007 -17.14358,-17.23616 -20.44377,-22.32804 -2.78828,-4.30223 -5.56568,-8.32673 -8.51189,-11.95367 -8.67526,-12.81956 -20.21504,-24.47371 -30.4805,-33.98219 -2.78283,-2.58678 -7.43905,-2.16745 -10.32535,-0.10892 -32.53359,23.25384 -70.5784,41.82968 -101.15692,67.39801 -9.23074,7.71135 -8.65893,-55.25373 -8.70249,-58.09103 -0.30497,-19.06052 -9.67186,-35.22929 -25.85152,-45.16254 -30.360693,-18.63575 -71.438843,-1.66644 -92.203923,23.51524 -23.9999199,29.09725 -27.9100499,67.24007 9.00202,85.34757 14.98701,7.35736 34.15101,11.95367 50.76634,10.19466 15.242973,-1.61198 19.468963,9.71542 27.490723,17.30151 0.098,0.098 -51.136663,26.18915 -55.939913,28.3675 -10.21645,4.65077 -64.9473799,27.22932 -51.3926199,43.83376 -0.75153,8.58812 4.2641099,18.62485 7.1177399,25.90052 5.83252,14.89444 13.47852,29.95225 21.94683,43.5179 3.79032,6.07759 10.33625,16.49552 16.599,20.33486 14.64937,8.96933 26.004,-13.5602 31.60779,-23.3791 10.36348,-18.16195 20.138803,-32.59894 42.951533,-34.05298 23.63505,-1.49761 47.77656,19.36004 40.20681,43.82831 -11.55612,37.38585 -73.715213,26.09113 -94.545643,56.17408 -0.5936,0.86045 -0.62083,1.97141 -0.27774,2.91899 -1.49217,2.48331 -1.73179,5.78895 0.43567,9.3451 8.72427,14.32807 18.11839,28.13878 25.32326,43.32188 4.106193,8.6643 6.834563,16.9475 7.488073,26.6085 2.46697,36.3674 45.39127,21.4512 66.27071,12.8032 13.35871,-5.5494 34.25993,-7.6133 43.86099,-19.616 11.00064,-13.7345 -0.005,-38.80725 5.15179,-55.63496 2.74471,-8.93667 6.81277,-16.82772 9.26341,-25.1599 6.23007,-7.09051 13.52753,-13.26067 20.82498,-18.00402 14.30084,-9.29064 30.76913,-15.97272 48.0652,-15.29743 8.03809,0.31041 14.57313,3.83389 20.88488,7.59153 4.20966,4.20421 8.00542,9.33421 11.17492,15.49893 2.37439,4.63988 9.23618,6.93803 12.75421,1.86249 13.8924,-20.02445 31.12856,-37.28783 47.21564,-55.49336 10.5922,-11.99179 32.56082,-27.64865 28.40562,-45.4784 -3.14226,-13.51119 -17.96046,-27.21298 -25.93865,-38.02847 -11.14223,-15.10683 -22.09931,-30.3389 -33.19798,-45.47841 0.3322,-2.10754 1.26889,-4.19331 3.04424,-6.25185 4.19331,-3.12048 10.14019,-6.65484 11.42542,-7.43905 9.46491,-5.7835 18.83724,-8.4193 29.82699,-8.61535 20.03534,-0.35943 39.44984,2.97344 59.40349,-0.90402 38.25719,-7.42271 51.64857,-53.55462 30.68199,-84.30196 z M 210.57827,1014.8533 c 0.1307,-0.093 0.2723,-0.1852 0.39755,-0.2832 0.11981,0.2015 0.22328,0.4139 0.34309,0.6154 -0.23417,-0.1253 -0.47924,-0.2396 -0.74064,-0.3322 z M 485.13149,692.8557 c -9.50848,15.75488 -29.98492,19.05508 -47.76022,20.40565 -28.47642,-10.58131 -68.90652,-0.0599 -88.59876,21.84881 -12.10071,13.46762 -0.92035,31.24836 12.01358,42.8426 0.15248,0.23418 0.28318,0.47379 0.44656,0.71886 10.75558,16.62622 37.27149,30.77457 38.52948,52.0679 1.77535,30.07206 -40.89299,61.8868 -59.48517,80.25569 -7.58608,-11.66504 -25.51387,-14.82364 -38.0448,-18.01491 -26.61394,-6.76377 -53.51106,-1.02927 -71.77104,20.46555 -17.25249,20.30763 -26.79365,45.78338 -24.86581,72.29384 1.72089,23.67321 -2.81007,31.30281 -25.6718,39.35731 -19.79027,6.9707 -40.25038,9.7263 -61.11349,10.7283 -3.56159,-15.7059 -4.2042,-31.1177 -10.68478,-46.28984 -6.27364,-14.68749 -14.899883,-28.92298 -23.330083,-42.39605 34.238143,-6.97615 93.342103,-17.19804 100.579663,-59.81737 6.87812,-40.56079 -46.31163,-70.22441 -80.52254,-55.03045 -25.388623,11.27839 -26.973373,36.52541 -41.541053,55.66217 -5.7944,-13.26612 -6.75832,-27.64865 -14.54046,-40.94744 -2.00952,-3.44179 -24.83314,-37.58736 -27.08773,-36.23134 22.27903,-13.37504 45.19523,-25.65001 67.42524,-39.06862 12.166063,-7.35192 43.550583,-23.25928 39.689463,-41.76977 -3.77399,-18.0476 -37.249713,-21.5384 -51.212903,-24.68611 -16.50642,-3.72497 -41.91682,-6.81822 -48.56622,-25.41584 -12.14972,-33.96585 32.23407,-69.73973 63.16113,-65.33403 11.223933,1.5902 18.804573,6.11571 24.043493,12.47648 15.84202,19.22389 10.27634,55.25373 19.4853,78.08824 18.67387,46.27895 99.25087,-27.7848 120.25556,-42.65201 16.63167,20.76508 39.70035,57.05087 68.82483,61.03724 24.32122,3.33287 37.82152,-22.26814 47.35178,-40.37563 10.36348,-19.69769 19.65957,-46.0121 40.99102,-56.56619 19.64868,-9.70997 42.63022,-0.96936 57.69348,13.13543 13.74536,12.87402 25.23613,35.10403 14.30628,53.21153 z"
       id="path957" />
  </g>
</svg>
