<?xml version="1.0" encoding="UTF-8" standalone="no"?>
<!-- Created with Inkscape (http://www.inkscape.org/) -->

<svg
   xmlns:dc="http://purl.org/dc/elements/1.1/"
   xmlns:cc="http://creativecommons.org/ns#"
   xmlns:rdf="http://www.w3.org/1999/02/22-rdf-syntax-ns#"
   xmlns:svg="http://www.w3.org/2000/svg"
   xmlns="http://www.w3.org/2000/svg"
   xmlns:sodipodi="http://sodipodi.sourceforge.net/DTD/sodipodi-0.dtd"
   xmlns:inkscape="http://www.inkscape.org/namespaces/inkscape"
   width="258"
   height="335"
   id="svg4112"
   version="1.1"
   inkscape:version="0.48.5 r10040"
   sodipodi:docname="Documento nuevo 10">
  <defs
     id="defs4114" />
  <sodipodi:namedview
     id="base"
     pagecolor="#ffffff"
     bordercolor="#666666"
     borderopacity="1.0"
     inkscape:pageopacity="0.0"
     inkscape:pageshadow="2"
     inkscape:zoom="0.98994949"
     inkscape:cx="207.42746"
     inkscape:cy="172.91151"
     inkscape:document-units="px"
     inkscape:current-layer="layer1"
     showgrid="false"
     inkscape:window-width="1280"
     inkscape:window-height="734"
     inkscape:window-x="0"
     inkscape:window-y="27"
     inkscape:window-maximized="1" />
  <metadata
     id="metadata4117">
    <rdf:RDF>
      <cc:Work
         rdf:about="">
        <dc:format>image/svg+xml</dc:format>
        <dc:type
           rdf:resource="http://purl.org/dc/dcmitype/StillImage" />
        <dc:title></dc:title>
      </cc:Work>
    </rdf:RDF>
  </metadata>
  <g
     inkscape:label="Capa 1"
     inkscape:groupmode="layer"
     id="layer1"
     transform="translate(0,-717.36218)">
    <g
       transform="translate(-261.90252,-1029.0464)"
       id="g951">
      <rect
         style="fill:#62163b"
         x="263.96899"
         y="1747.6851"
         width="255.664"
         height="331.63101"
         id="rect953" />
      <text
         style="font-size:21.12929916px;fill:#ffffff;font-family:Geometric415BT-BlackA"
         transform="translate(314.1426,1983.8286)"
         font-size="21.1293"
         id="text955">PMO SELFCODE</text>
      <path
         style="fill:#ffffff"
         inkscape:connector-curvature="0"
         d="m 447.963,1847.239 c -4.06,-5.954 -13.509,-6.325 -19.221,-3.019 -5.773,3.343 -3.867,14.439 -10.299,15.811 -0.589,-0.105 -1.176,-0.184 -1.737,-0.104 -1.42,0.202 -3.148,-3.165 -3.754,-4.1 -0.512,-0.79 -1.022,-1.529 -1.563,-2.195 -1.593,-2.354 -3.712,-4.494 -5.597,-6.24 -0.511,-0.475 -1.366,-0.398 -1.896,-0.02 -5.974,4.27 -12.96,7.681 -18.575,12.376 -1.695,1.416 -1.59,-10.146 -1.598,-10.667 -0.056,-3.5 -1.776,-6.469 -4.747,-8.293 -5.575,-3.422 -13.118,-0.306 -16.931,4.318 -4.407,5.343 -5.125,12.347 1.653,15.672 2.752,1.351 6.271,2.195 9.322,1.872 2.799,-0.296 3.575,1.784 5.048,3.177 0.018,0.018 -9.39,4.809 -10.272,5.209 -1.876,0.854 -11.926,5 -9.437,8.049 -0.138,1.577 0.783,3.42 1.307,4.756 1.071,2.735 2.475,5.5 4.03,7.991 0.696,1.116 1.898,3.029 3.048,3.734 2.69,1.647 4.775,-2.49 5.804,-4.293 1.903,-3.335 3.698,-5.986 7.887,-6.253 4.34,-0.275 8.773,3.555 7.383,8.048 -2.122,6.865 -13.536,4.791 -17.361,10.315 -0.109,0.158 -0.114,0.362 -0.051,0.536 -0.274,0.456 -0.318,1.063 0.08,1.716 1.602,2.631 3.327,5.167 4.65,7.955 0.754,1.591 1.255,3.112 1.375,4.886 0.453,6.678 8.335,3.939 12.169,2.351 2.453,-1.019 6.291,-1.398 8.054,-3.602 2.02,-2.522 -10e-4,-7.126 0.946,-10.216 0.504,-1.641 1.251,-3.09 1.701,-4.62 1.144,-1.302 2.484,-2.435 3.824,-3.306 2.626,-1.706 5.65,-2.933 8.826,-2.809 1.476,0.057 2.676,0.704 3.835,1.394 0.773,0.772 1.47,1.714 2.052,2.846 0.436,0.852 1.696,1.274 2.342,0.342 2.551,-3.677 5.716,-6.847 8.67,-10.19 1.945,-2.202 5.979,-5.077 5.216,-8.351 -0.577,-2.481 -3.298,-4.997 -4.763,-6.983 -2.046,-2.774 -4.058,-5.571 -6.096,-8.351 0.061,-0.387 0.233,-0.77 0.559,-1.148 0.77,-0.573 1.862,-1.222 2.098,-1.366 1.738,-1.062 3.459,-1.546 5.477,-1.582 3.679,-0.066 7.244,0.546 10.908,-0.166 7.025,-1.363 9.484,-9.834 5.634,-15.48 z m -51.977,68.68 c 0.024,-0.017 0.05,-0.034 0.073,-0.052 0.022,0.037 0.041,0.076 0.063,0.113 -0.043,-0.023 -0.088,-0.044 -0.136,-0.061 z m 50.415,-59.127 c -1.746,2.893 -5.506,3.499 -8.77,3.747 -5.229,-1.943 -12.653,-0.011 -16.269,4.012 -2.222,2.473 -0.169,5.738 2.206,7.867 0.028,0.043 0.052,0.087 0.082,0.132 1.975,3.053 6.844,5.651 7.075,9.561 0.326,5.522 -7.509,11.364 -10.923,14.737 -1.393,-2.142 -4.685,-2.722 -6.986,-3.308 -4.887,-1.242 -9.826,-0.189 -13.179,3.758 -3.168,3.729 -4.92,8.407 -4.566,13.275 0.316,4.347 -0.516,5.748 -4.714,7.227 -3.634,1.28 -7.391,1.786 -11.222,1.97 -0.654,-2.884 -0.772,-5.714 -1.962,-8.5 -1.152,-2.697 -2.736,-5.311 -4.284,-7.785 6.287,-1.281 17.14,-3.158 18.469,-10.984 1.263,-7.448 -8.504,-12.895 -14.786,-10.105 -4.662,2.071 -4.953,6.707 -7.628,10.221 -1.064,-2.436 -1.241,-5.077 -2.67,-7.519 -0.369,-0.632 -4.56,-6.902 -4.974,-6.653 4.091,-2.456 8.299,-4.71 12.381,-7.174 2.234,-1.35 7.997,-4.271 7.288,-7.67 -0.693,-3.314 -6.84,-3.955 -9.404,-4.533 -3.031,-0.684 -7.697,-1.252 -8.918,-4.667 -2.231,-6.237 5.919,-12.806 11.598,-11.997 2.061,0.292 3.453,1.123 4.415,2.291 2.909,3.53 1.887,10.146 3.578,14.339 3.429,8.498 18.225,-5.102 22.082,-7.832 3.054,3.813 7.29,10.476 12.638,11.208 4.466,0.612 6.945,-4.089 8.695,-7.414 1.903,-3.617 3.61,-8.449 7.527,-10.387 3.608,-1.783 7.828,-0.178 10.594,2.412 2.524,2.364 4.634,6.446 2.627,9.771 z"
         id="path957" />
    </g>
  </g>
</svg>
