<?xml version="1.0" encoding="UTF-8" standalone="no"?>
<!-- Created with Inkscape (http://www.inkscape.org/) -->

<svg
   xmlns:dc="http://purl.org/dc/elements/1.1/"
   xmlns:cc="http://creativecommons.org/ns#"
   xmlns:rdf="http://www.w3.org/1999/02/22-rdf-syntax-ns#"
   xmlns:svg="http://www.w3.org/2000/svg"
   xmlns="http://www.w3.org/2000/svg"
   xmlns:sodipodi="http://sodipodi.sourceforge.net/DTD/sodipodi-0.dtd"
   xmlns:inkscape="http://www.inkscape.org/namespaces/inkscape"
   width="503"
   height="623"
   id="svg6023"
   version="1.1"
   inkscape:version="0.48.5 r10040"
   sodipodi:docname="Documento nuevo 5">
  <defs
     id="defs6025" />
  <sodipodi:namedview
     id="base"
     pagecolor="#ffffff"
     bordercolor="#666666"
     borderopacity="1.0"
     inkscape:pageopacity="0.0"
     inkscape:pageshadow="2"
     inkscape:zoom="0.35"
     inkscape:cx="350"
     inkscape:cy="520"
     inkscape:document-units="px"
     inkscape:current-layer="layer1"
     showgrid="false"
     inkscape:window-width="1280"
     inkscape:window-height="734"
     inkscape:window-x="0"
     inkscape:window-y="27"
     inkscape:window-maximized="1" />
  <metadata
     id="metadata6028">
    <rdf:RDF>
      <cc:Work
         rdf:about="">
        <dc:format>image/svg+xml</dc:format>
        <dc:type
           rdf:resource="http://purl.org/dc/dcmitype/StillImage" />
        <dc:title></dc:title>
      </cc:Work>
    </rdf:RDF>
  </metadata>
  <g
     inkscape:label="Capa 1"
     inkscape:groupmode="layer"
     id="layer1"
     transform="translate(0,-429.36218)">
    <g
       transform="matrix(7.1272806,0,0,7.1272806,-4523.9591,-12641.85)"
       id="g911">
      <g
         id="g913">
        <path
           style="fill:#ffffff"
           inkscape:connector-curvature="0"
           d="m 704.619,1916.618 c -1.368,-2.668 -1.758,-5.673 -3.673,-8.016 -0.042,-0.052 -0.093,-0.088 -0.144,-0.122 -2.547,-5.49 -5.854,-10.889 -9.723,-15.39 -3.566,-4.15 -7.353,-10.551 -12.572,-12.847 -2.634,-4.578 -2.124,-12.099 -2.108,-16.468 0.024,-6.612 0.875,-13.191 0.974,-19.794 2.055,0.423 4.349,-0.562 4.639,-3.015 0.587,-4.95 -4.059,-6.293 -8.079,-6.505 -4.878,-0.256 -11.394,-0.938 -15.115,2.815 -2.645,2.667 -0.796,6.497 3.01,4.938 0.392,-0.161 0.584,-0.744 0.128,-0.982 -0.544,-0.283 -2.876,-0.753 -2.33,-1.776 0.734,-1.373 2.284,-2.123 3.685,-2.551 2.554,-0.784 5.531,-0.36 8.16,-0.365 1.923,0 3.797,0.027 5.677,0.491 1.412,0.348 2.535,1.176 2.969,2.6 0.823,2.706 -1.64,3.227 -3.342,2.728 0,-10e-4 -10e-4,-10e-4 -10e-4,-10e-4 -0.011,0 -0.023,-0.01 -0.034,-0.01 -0.039,-0.104 -0.105,-0.198 -0.231,-0.242 -2.101,-0.734 -4.615,-0.562 -6.833,-0.783 -2.074,-0.207 -4.045,-0.25 -6.095,0.019 -0.277,-0.258 -0.822,-0.142 -0.852,0.354 -0.068,1.105 -0.135,2.209 -0.204,3.313 0,0 0,10e-4 0,0 -0.076,0.09 -0.14,0.192 -0.173,0.316 -0.613,2.263 -0.229,4.947 -0.165,7.271 0.093,3.37 0.196,6.737 0.179,10.109 -0.031,5.577 -0.211,12.135 -2.916,17.215 -2.069,1.993 -3.514,4.751 -5.25,7.043 -2.421,3.195 -5.032,6.25 -7.567,9.356 -2.375,2.91 -5.158,6.095 -7.243,9.54 -3.282,3.774 -6.729,8.023 -3.418,12.263 3.789,4.852 13.933,3.082 19.12,2.91 4.563,-0.152 9.105,0.517 13.685,0.399 5.095,-0.131 10.221,-1.214 15.308,-1.023 5.646,0.213 16.175,3.082 20.338,-2.268 0.369,-0.473 0.483,-0.969 0.196,-1.525 z m -10.387,1.98 c -3.39,-0.021 -6.764,-0.465 -10.147,-0.637 -3.898,-0.198 -7.886,0.602 -11.772,0.886 -4.78,0.351 -9.496,0.223 -14.265,-0.16 -6.027,-0.483 -12.163,1.238 -18.088,-0.574 -3.58,-1.095 -3.657,-3.504 -2.509,-6.246 4.174,-5.125 7.786,-10.735 12.082,-15.809 0.902,-1.066 1.805,-2.132 2.703,-3.2 0.005,0.079 0.055,0.153 0.15,0.143 1.842,-0.198 3.736,-0.314 5.41,0.644 0.035,0.021 0.065,-0.031 0.031,-0.054 -1.496,-0.975 -3.708,-1.318 -5.444,-0.907 1.209,-1.439 2.409,-2.886 3.582,-4.355 1.849,-2.32 4.115,-4.791 4.994,-7.657 0.079,-0.253 0.025,-0.477 -0.091,-0.655 2.616,-4.305 3.112,-9.502 3.393,-14.489 0.208,-3.716 0.136,-7.446 0.079,-11.165 -0.046,-2.909 0.349,-6.182 -0.222,-9.033 -0.028,-0.143 -0.091,-0.251 -0.167,-0.347 -0.026,-0.981 -0.117,-1.968 -0.185,-2.947 1.974,0.07 3.951,0.284 5.911,0.52 1.849,0.222 3.886,0.735 5.767,0.5 0.003,10e-4 0.005,0 0.007,0 -0.011,0.06 -0.019,0.121 -0.02,0.188 -0.069,7.856 -1.152,15.657 -1.027,23.532 0.035,2.284 0.069,6.125 0.808,9.608 -0.007,10e-4 -0.009,0 -0.016,-10e-4 -2.211,0.484 -4.235,1.088 -6.536,0.862 -0.107,-0.01 -0.129,0.167 -0.025,0.186 2.2,0.417 4.656,0.421 6.655,-0.677 0.616,2.689 1.676,5.12 3.517,6.39 -1.106,-0.153 -2.247,-0.037 -3.365,0.026 -1.764,0.1 -3.69,0.247 -5.296,1.035 -0.127,0.063 -0.035,0.286 0.097,0.23 3.051,-1.232 6.298,0.093 9.333,-0.652 0.08,-0.019 0.123,-0.074 0.15,-0.136 0.374,0.158 0.773,0.278 1.202,0.348 1.168,1.288 2.28,2.633 3.372,3.997 -0.038,-0.028 -0.083,-0.049 -0.142,-0.055 -4.291,-0.409 -9.082,0.558 -13.198,1.711 -0.118,0.033 -0.069,0.212 0.05,0.184 4.396,-1.041 8.716,-0.908 13.148,-1.39 0.202,-0.022 0.279,-0.201 0.23,-0.341 0.961,1.206 1.91,2.418 2.861,3.624 -4.883,-0.369 -10.178,0.01 -14.739,1.799 -0.111,0.044 -0.067,0.224 0.05,0.183 4.729,-1.62 10.197,-1.675 15.169,-1.374 0.462,0.582 0.927,1.159 1.396,1.73 1.829,2.221 3.552,4.612 5.138,7.105 -0.03,-0.01 -0.053,-0.022 -0.089,-0.017 -5.721,0.882 -11.186,1.454 -16.989,1.479 -0.368,10e-4 -0.368,0.567 0,0.568 5.445,0.018 11.978,0.533 17.107,-1.621 0.078,-0.031 0.116,-0.086 0.135,-0.147 2.233,3.543 4.18,7.289 5.684,11.085 0.074,0.184 0.178,0.328 0.302,0.442 0.115,0.388 0.237,0.773 0.372,1.155 -2.638,-0.461 -5.418,-0.026 -8.065,0.233 -3.62,0.357 -7.247,0.755 -10.886,0.872 -0.124,0 -0.118,0.176 0,0.189 3.269,0.374 6.416,0.224 9.687,-0.028 3.169,-0.243 6.421,-0.083 9.561,-0.482 0.282,0.718 0.594,1.425 0.928,2.117 -2.003,1.726 -5.3,1.594 -7.778,1.581 z"
           id="path915" />
        <path
           style="fill:#ffffff"
           inkscape:connector-curvature="0"
           d="m 691.291,1897.766 c 0.352,-0.158 0.083,-0.631 -0.244,-0.578 -6.021,1.005 -12.946,-1.025 -18.53,1.827 -0.031,0.017 -0.009,0.07 0.024,0.058 6.036,-2.205 12.972,1.301 18.75,-1.307 z"
           id="path917" />
        <path
           style="fill:#ffffff"
           inkscape:connector-curvature="0"
           d="m 696.557,1906.413 c -6.992,0.082 -13.941,0.839 -20.923,1.091 -0.082,0 -0.082,0.124 0,0.126 6.987,0.159 13.941,-0.448 20.923,-0.459 0.489,0 0.489,-0.765 0,-0.758 z"
           id="path919" />
        <path
           style="fill:#ffffff"
           inkscape:connector-curvature="0"
           d="m 698.106,1910.066 c -6.342,0.153 -12.645,0.934 -18.985,1.091 -0.367,0.01 -0.368,0.565 0,0.568 6.334,0.056 12.651,-0.516 18.985,-0.458 0.775,0.01 0.773,-1.22 0,-1.201 z"
           id="path921" />
        <path
           style="fill:#ffffff"
           inkscape:connector-curvature="0"
           d="m 657.81,1901.272 c -3.731,-0.169 -8.002,-0.883 -11.674,-0.088 -0.181,0.04 -0.181,0.326 0,0.366 3.672,0.795 7.943,0.082 11.674,-0.088 0.122,0 0.122,-0.185 0,-0.19 z"
           id="path923" />
        <path
           style="fill:#ffffff"
           inkscape:connector-curvature="0"
           d="m 642.975,1905.825 c -0.203,0.149 -0.084,0.453 0.169,0.405 3.057,-0.581 6.309,-0.674 9.249,-1.73 0.042,-0.014 0.023,-0.082 -0.018,-0.065 -2.852,1.137 -6.861,-0.476 -9.4,1.39 z"
           id="path925" />
        <path
           style="fill:#ffffff"
           inkscape:connector-curvature="0"
           d="m 640.677,1908.812 c -0.391,0.114 -0.227,0.709 0.168,0.609 2.89,-0.737 6.315,0.063 9.206,0.502 0.049,0.01 0.058,-0.059 0.009,-0.066 -3.068,-0.373 -6.28,-1.961 -9.383,-1.045 z"
           id="path927" />
        <path
           style="fill:#ffffff"
           inkscape:connector-curvature="0"
           d="m 646.961,1912.801 -9.299,-0.095 c -0.367,0 -0.367,0.574 0,0.57 l 9.299,-0.095 c 0.244,0 0.244,-0.377 0,-0.38 z"
           id="path929" />
        <path
           style="fill:#ffffff"
           inkscape:connector-curvature="0"
           d="m 645.411,1915.869 c -2.324,-0.01 -4.649,-0.021 -6.974,-0.032 -0.325,0 -0.325,0.507 0,0.505 2.324,-0.011 4.65,-0.02 6.974,-0.031 0.285,0 0.285,-0.439 0,-0.442 z"
           id="path931" />
        <path
           style="fill:#ffffff"
           inkscape:connector-curvature="0"
           d="m 650.061,1898.488 c 0.865,-0.056 1.693,-0.456 2.542,-0.651 1.179,-0.27 2.404,-0.311 3.599,-0.132 0.276,0.042 0.401,-0.371 0.117,-0.426 -1.879,-0.363 -4.83,-0.403 -6.413,0.832 -0.154,0.118 -0.026,0.389 0.155,0.377 z"
           id="path933" />
        <path
           style="fill:#ffffff"
           inkscape:connector-curvature="0"
           d="m 673.308,1846.537 c 0.245,-0.025 0.245,-0.354 0,-0.379 -1.279,-0.131 -2.592,0.263 -3.874,0.156 -0.044,0 -0.044,0.071 0,0.067 1.282,-0.107 2.595,0.288 3.874,0.156 z"
           id="path935" />
        <path
           style="fill:#ffffff"
           inkscape:connector-curvature="0"
           d="m 670.251,1848.52 c -0.197,-0.035 -0.285,0.251 -0.084,0.304 1.508,0.391 3.628,0.295 4.871,-0.749 0.21,-0.175 -0.02,-0.467 -0.246,-0.422 -0.696,0.141 -1.316,0.523 -1.998,0.735 -0.829,0.258 -1.692,0.277 -2.543,0.132 z"
           id="path937" />
        <path
           style="fill:#ffffff"
           inkscape:connector-curvature="0"
           d="m 669.434,1851.866 c 1.552,0.089 3.094,0.194 4.649,0.158 0.326,-0.01 0.326,-0.498 0,-0.506 -1.555,-0.037 -3.097,0.069 -4.649,0.158 -0.122,0.01 -0.122,0.183 0,0.19 z"
           id="path939" />
        <path
           style="fill:#ffffff"
           inkscape:connector-curvature="0"
           d="m 669.434,1855.741 c 1.39,0.031 2.879,0.218 4.261,0.063 0.204,-0.022 0.204,-0.292 0,-0.316 -1.382,-0.155 -2.871,0.032 -4.261,0.064 -0.122,0 -0.122,0.186 0,0.189 z"
           id="path941" />
        <path
           style="fill:#ffffff"
           inkscape:connector-curvature="0"
           d="m 668.658,1860.359 c 1.52,0.057 3.187,0.317 4.692,0.089 0.152,-0.022 0.152,-0.282 0,-0.304 -1.506,-0.228 -3.172,0.032 -4.692,0.088 -0.081,0 -0.081,0.124 0,0.127 z"
           id="path943" />
        <path
           style="fill:#ffffff"
           inkscape:connector-curvature="0"
           d="m 672.922,1864.297 c 0.164,0 0.164,-0.256 0,-0.253 -1.034,0.021 -2.066,0.042 -3.1,0.063 -0.082,0 -0.082,0.125 0,0.126 1.033,0.022 2.066,0.043 3.1,0.064 z"
           id="path945" />
        <path
           style="fill:#ffffff"
           inkscape:connector-curvature="0"
           d="m 673.308,1867.887 -3.874,0.126 c -0.041,10e-4 -0.041,0.062 0,0.063 l 3.874,0.127 c 0.205,0.01 0.205,-0.322 0,-0.316 z"
           id="path947" />
        <path
           style="fill:#ffffff"
           inkscape:connector-curvature="0"
           d="m 672.922,1872.536 -3.487,0.095 c -0.083,0 -0.083,0.125 0,0.126 l 3.487,0.095 c 0.204,0.01 0.204,-0.321 0,-0.316 z"
           id="path949" />
      </g>
    </g>
  </g>
</svg>
