<?xml version="1.0" encoding="UTF-8" standalone="no"?>
<!-- Created with Inkscape (http://www.inkscape.org/) -->

<svg
   xmlns:dc="http://purl.org/dc/elements/1.1/"
   xmlns:cc="http://creativecommons.org/ns#"
   xmlns:rdf="http://www.w3.org/1999/02/22-rdf-syntax-ns#"
   xmlns:svg="http://www.w3.org/2000/svg"
   xmlns="http://www.w3.org/2000/svg"
   xmlns:sodipodi="http://sodipodi.sourceforge.net/DTD/sodipodi-0.dtd"
   xmlns:inkscape="http://www.inkscape.org/namespaces/inkscape"
   width="503"
   height="518"
   id="svg6860"
   version="1.1"
   inkscape:version="0.48.5 r10040"
   sodipodi:docname="Documento nuevo 10">
  <defs
     id="defs6862" />
  <sodipodi:namedview
     id="base"
     pagecolor="#ffffff"
     bordercolor="#666666"
     borderopacity="1.0"
     inkscape:pageopacity="0.0"
     inkscape:pageshadow="2"
     inkscape:zoom="0.35"
     inkscape:cx="350"
     inkscape:cy="520"
     inkscape:document-units="px"
     inkscape:current-layer="layer1"
     showgrid="false"
     inkscape:window-width="1280"
     inkscape:window-height="734"
     inkscape:window-x="0"
     inkscape:window-y="27"
     inkscape:window-maximized="1" />
  <metadata
     id="metadata6865">
    <rdf:RDF>
      <cc:Work
         rdf:about="">
        <dc:format>image/svg+xml</dc:format>
        <dc:type
           rdf:resource="http://purl.org/dc/dcmitype/StillImage" />
        <dc:title></dc:title>
      </cc:Work>
    </rdf:RDF>
  </metadata>
  <g
     inkscape:label="Capa 1"
     inkscape:groupmode="layer"
     id="layer1"
     transform="translate(0,-534.36218)">
    <g
       transform="matrix(5.2798156,0,0,5.2798156,-4721.8018,-9145.6223)"
       id="g965">
      <g
         id="g967">
        <path
           style="fill:#ffffff"
           inkscape:connector-curvature="0"
           d="m 918.193,1840.127 c -5.356,-0.012 -9.519,3.913 -12.128,8.225 -2.401,3.967 -3.901,8.417 -3.137,13.037 0.311,1.874 0.828,3.77 1.542,5.59 -0.095,0.034 -0.177,0.119 -0.18,0.226 -0.128,4.054 3.335,7.397 6.617,9.251 3.287,1.858 7.202,2.787 10.973,2.513 6.139,-0.446 10.574,-4.846 12.648,-10.396 4.402,-11.777 -2.288,-28.416 -16.335,-28.446 z m 14.282,28.398 c -1.848,4.519 -5.632,7.876 -10.595,8.314 -2.171,0.191 -4.454,-0.12 -6.642,-0.837 0.594,-0.202 1.175,-0.521 1.727,-0.981 0.032,-0.026 -0.008,-0.068 -0.041,-0.055 -1.004,0.448 -1.943,0.635 -2.821,0.625 -2.114,-0.843 -4.097,-2.065 -5.751,-3.579 -1.903,-2.617 -3.152,-6.144 -3.82,-8.739 -0.829,-3.229 -0.805,-5.907 0.266,-9.059 1.374,-4.04 3.728,-8.035 7.243,-10.554 6.66,-4.773 15.415,-0.442 19.158,5.861 3.302,5.565 3.715,13.043 1.276,19.004 z"
           id="path969" />
        <path
           style="fill:#ffffff"
           inkscape:connector-curvature="0"
           d="m 988.953,1919.991 c -1.447,-3.323 -4.121,-6.135 -6.671,-8.638 -3.264,-3.202 -6.851,-6.076 -10.474,-8.856 -3.271,-2.512 -6.625,-4.916 -9.939,-7.37 -1.239,-0.917 -2.474,-1.844 -3.665,-2.824 -0.547,-0.451 -1.007,-0.94 -1.509,-1.367 0.002,-0.01 0.005,-0.018 0.008,-0.025 0.654,-2.334 -2.504,-3.207 -3.481,-1.122 -0.208,0.441 -0.477,0.835 -0.782,1.204 -5.61,-4.797 -10.349,-10.527 -15.955,-15.318 0.894,-1.049 1.708,-2.108 2.425,-3.136 4.67,-6.698 3.633,-14.78 0.713,-21.93 -2.917,-7.146 -7.437,-14.452 -15.298,-16.675 -7.705,-2.178 -15.596,2.373 -21.052,7.44 -4.341,4.033 -7.437,9.226 -8.085,15.173 -0.584,5.358 1.369,10.578 4.109,15.081 3.574,5.872 10.671,13.81 18.009,12.416 -0.089,0.417 0.099,0.904 0.579,0.988 5.347,0.923 10.558,-1.767 14.789,-5.478 4.76,5.476 9.882,10.635 15.034,15.745 -0.616,0.664 -1.138,1.407 -1.505,2.288 -0.55,1.322 1.063,2.258 2.116,1.707 0.436,1.333 1.273,2.599 2.011,3.672 2.128,3.099 5.243,5.65 8.019,8.148 1.707,1.537 3.412,3.009 5.011,4.629 0.744,1.168 1.577,2.343 2.641,3.144 0.07,0.052 0.15,0.042 0.214,10e-4 1.842,2.098 3.684,4.195 5.668,6.163 3.917,3.884 9.15,8.233 14.57,4.586 3.445,-2.32 4.106,-5.958 2.5,-9.646 z m -35.986,-22.986 c 2.343,3.484 4.15,7.286 6.04,11.029 -0.822,-0.871 -1.632,-1.754 -2.417,-2.66 -1.849,-2.133 -3.926,-4.537 -5.2,-7.169 0.532,-0.263 1.064,-0.684 1.577,-1.2 z m -28.222,-15.053 c -1.509,0.606 -3.091,0.862 -4.678,1.111 0.308,-0.164 0.616,-0.342 0.924,-0.544 0.02,-0.013 10e-4,-0.046 -0.02,-0.034 -0.449,0.262 -0.9,0.474 -1.351,0.648 -0.581,0.091 -1.16,0.186 -1.736,0.301 -0.16,0.032 -0.287,0.113 -0.385,0.219 -5.426,0.609 -10.668,-4.121 -13.903,-8.13 -4.715,-5.842 -8.233,-13.084 -6.732,-20.762 1.689,-8.638 9.74,-15.862 17.856,-18.523 8.34,-2.733 15.581,1.787 19.781,8.904 3.968,6.725 7.353,15.58 4.147,23.234 -1.691,4.038 -5.11,7.362 -8.378,10.169 -1.644,1.412 -3.512,2.599 -5.525,3.407 z m 8.32,-2.745 c 1.085,-0.982 2.103,-2.026 3.037,-3.09 4.654,5.694 9.587,11.256 15.177,16.047 -0.505,0.44 -1.038,0.855 -1.544,1.276 -0.317,0.263 -0.623,0.533 -0.917,0.811 -5.113,-5.154 -10.275,-10.28 -15.753,-15.044 z m 21.97,26.825 c -1.647,-1.479 -3.222,-3.066 -4.664,-4.746 -0.6,-0.698 -1.201,-1.504 -1.603,-2.376 0.021,-0.028 0.045,-0.051 0.065,-0.081 0.135,-0.207 0.279,-0.408 0.43,-0.604 0.557,0.335 1.151,0.348 1.754,0.139 0.927,2.5 2.57,4.719 4.221,6.787 1.083,1.355 2.237,2.652 3.416,3.925 -1.225,-0.998 -2.451,-1.996 -3.619,-3.044 z m 32.375,20.146 c -0.097,0.164 -0.208,0.324 -0.326,0.482 -0.71,-0.985 -1.729,-1.773 -2.523,-2.688 -1.056,-1.218 -1.858,-2.613 -2.894,-3.845 -0.022,-0.027 -0.067,0 -0.06,0.029 0.378,1.628 1.194,2.999 2.099,4.396 0.7,1.085 1.483,2.293 2.604,2.97 -0.392,0.364 -0.834,0.694 -1.305,0.968 -3.716,-3.227 -5.834,-7.572 -7.753,-12.067 -0.016,-0.036 -0.076,-0.015 -0.065,0.022 0.812,2.614 1.694,5.224 2.996,7.641 0.907,1.683 2.172,3.875 3.974,4.824 -0.78,0.324 -1.601,0.492 -2.375,0.433 -1.758,-0.132 -3.45,-1.048 -5.001,-2.232 -1.418,-3.472 -3.783,-6.721 -5.62,-9.942 -2.375,-4.167 -4.576,-8.347 -5.948,-12.964 -0.013,-0.042 -0.077,-0.031 -0.068,0.014 0.971,4.217 2.538,8.302 4.595,12.109 1.096,2.029 2.274,4.013 3.424,6.011 0.582,1.011 1.115,2.063 1.664,3.104 -0.933,-0.875 -1.789,-1.771 -2.546,-2.543 -2.799,-2.853 -5.271,-6.002 -8.038,-8.882 -0.447,-0.464 -0.913,-0.912 -1.384,-1.351 0.106,-0.066 0.167,-0.189 0.086,-0.333 -0.625,-1.12 -1.63,-1.919 -2.529,-2.822 -0.081,-0.082 -0.157,-0.166 -0.236,-0.248 -0.373,-0.69 -0.743,-1.383 -1.109,-2.076 -1.861,-3.52 -3.661,-7.078 -5.949,-10.343 1.117,-1.176 2.124,-2.77 2.795,-4.082 0.578,0.587 1.267,1.099 1.931,1.629 1.771,1.415 3.614,2.739 5.443,4.077 4.834,3.536 9.685,7.069 14.219,10.99 3.789,3.277 8.04,7.054 9.996,11.788 0.396,0.959 0.603,1.991 0.514,2.994 -0.164,-0.771 -0.706,-1.396 -1.146,-2.064 -0.624,-0.947 -1.404,-1.752 -2.243,-2.511 -0.1,-0.091 -0.228,0.028 -0.153,0.138 0.604,0.887 1.079,1.834 1.611,2.764 0.448,0.782 0.728,1.726 1.502,2.229 0.102,0.066 0.247,0.053 0.352,-0.013 -0.099,0.478 -0.271,0.947 -0.534,1.394 z"
           id="path971" />
        <path
           style="fill:#ffffff"
           inkscape:connector-curvature="0"
           d="m 959.05,1900.932 c -0.045,-0.063 -0.154,0.012 -0.112,0.077 1.861,2.878 3.58,5.84 5.216,8.852 1.592,2.928 2.949,6.25 4.939,8.924 0.16,0.214 0.556,0.019 0.476,-0.239 -0.986,-3.156 -3.045,-6.205 -4.765,-9.008 -1.806,-2.942 -3.718,-5.818 -5.754,-8.606 z"
           id="path973" />
        <path
           style="fill:#ffffff"
           inkscape:connector-curvature="0"
           d="m 971.775,1911.477 c -0.029,-0.073 -0.154,-0.03 -0.13,0.043 1.024,3.101 1.958,6.228 3.194,9.253 1.182,2.892 2.884,6.476 5.58,8.249 0.243,0.161 0.613,-0.13 0.445,-0.398 -1.748,-2.79 -3.924,-5.155 -5.409,-8.156 -1.436,-2.901 -2.495,-5.984 -3.68,-8.991 z"
           id="path975" />
      </g>
    </g>
  </g>
</svg>
