<?xml version="1.0" encoding="UTF-8" standalone="no"?>
<!-- Created with Inkscape (http://www.inkscape.org/) -->

<svg
   xmlns:dc="http://purl.org/dc/elements/1.1/"
   xmlns:cc="http://creativecommons.org/ns#"
   xmlns:rdf="http://www.w3.org/1999/02/22-rdf-syntax-ns#"
   xmlns:svg="http://www.w3.org/2000/svg"
   xmlns="http://www.w3.org/2000/svg"
   xmlns:sodipodi="http://sodipodi.sourceforge.net/DTD/sodipodi-0.dtd"
   xmlns:inkscape="http://www.inkscape.org/namespaces/inkscape"
   width="505"
   height="505"
   id="svg2"
   version="1.1"
   inkscape:version="0.48.5 r10040"
   sodipodi:docname="Documento nuevo 1">
  <defs
     id="defs4" />
  <sodipodi:namedview
     id="base"
     pagecolor="#ffffff"
     bordercolor="#666666"
     borderopacity="1.0"
     inkscape:pageopacity="0.0"
     inkscape:pageshadow="2"
     inkscape:zoom="0.35"
     inkscape:cx="350"
     inkscape:cy="171.42857"
     inkscape:document-units="px"
     inkscape:current-layer="layer1"
     showgrid="false"
     inkscape:window-width="1280"
     inkscape:window-height="734"
     inkscape:window-x="0"
     inkscape:window-y="27"
     inkscape:window-maximized="1" />
  <metadata
     id="metadata7">
    <rdf:RDF>
      <cc:Work
         rdf:about="">
        <dc:format>image/svg+xml</dc:format>
        <dc:type
           rdf:resource="http://purl.org/dc/dcmitype/StillImage" />
        <dc:title></dc:title>
      </cc:Work>
    </rdf:RDF>
  </metadata>
  <g
     inkscape:label="Capa 1"
     inkscape:groupmode="layer"
     id="layer1"
     transform="translate(0,-547.36218)">
    <g
       transform="matrix(3.9109014,0,0,3.9109014,-2418.1296,-18254.218)"
       id="g1539">
      <path
         style="fill:#62163b"
         inkscape:connector-curvature="0"
         d="m 747.035,4876.265 c -0.922,-7.029 -2.744,-14.197 -4.404,-21.088 -1.678,-6.958 -4.004,-13.814 -7.933,-19.842 -3.826,-5.867 -8.79,-11.146 -14.279,-15.474 -20.696,-16.312 -49.048,-14.253 -72.095,-4.347 -14.799,6.361 -23.023,23.373 -26.619,38.14 -2.902,11.923 -3.519,26.235 1.823,37.702 0.547,2.006 1.364,3.904 2.483,5.66 -0.076,0.234 -0.05,0.503 0.14,0.779 6.572,9.613 11.38,20.934 20.74,28.283 11.718,9.199 26.548,10.484 40.817,8.74 7.178,-0.879 14.403,-1.512 21.553,-2.585 4.863,-0.729 9.666,-1.851 13.987,-4.274 4.397,-2.469 7.774,-6.348 10.683,-10.39 4.289,-5.962 7.743,-12.568 10.254,-19.466 2.526,-6.939 3.816,-14.474 2.85,-21.838 z m -120.657,20.271 c -0.123,-0.234 -0.24,-0.471 -0.354,-0.709 0.145,0.216 0.285,0.436 0.436,0.65 -0.029,0.018 -0.054,0.042 -0.082,0.059 z m 49.725,37.117 c -8.523,-0.076 -16.902,-2.545 -24.236,-6.842 -11.473,-6.721 -16.702,-19.541 -23.955,-30.047 -0.191,-0.277 -0.453,-0.414 -0.721,-0.445 -1.24,-2.25 -2.23,-4.641 -3.014,-7.113 -0.145,-1.148 -0.219,-2.316 -0.229,-3.497 2.108,1.946 3.337,4.781 4.739,7.229 1.641,2.869 3.149,5.9 5.256,8.467 5.371,6.547 11.043,12.588 17.305,18.3 4.477,4.089 9.381,7.743 14.963,10.175 5.415,2.357 11.281,3.219 17.146,3.416 0.185,0.01 0.373,0 0.559,0.01 -2.597,0.226 -5.198,0.373 -7.813,0.349 z m -48.489,-67.697 c 3.437,-11.072 7.917,-23.36 16.583,-31.395 19.093,-17.707 51.131,-16.244 71.5,-1.881 19.649,13.855 28.648,39.58 21.69,62.575 -1.766,5.834 -4.472,11.517 -8.601,16.041 -4.088,4.481 -9.372,7.737 -14.834,10.27 -11.029,5.116 -24.293,7.315 -36.327,5.275 -23.565,-3.993 -42.827,-22.427 -48.107,-45.638 -0.38,-1.67 -2.921,-0.959 -2.557,0.705 1.167,5.324 3.05,10.386 5.522,15.098 -0.697,-1.035 -1.37,-2.092 -2.018,-3.176 -1.833,-3.064 -3.756,-5.964 -6.52,-8.233 -0.041,-6.741 1.873,-13.859 3.669,-19.641 z m 46.68,64.508 c -5.959,-1.193 -11.317,-3.951 -16.176,-7.531 6.649,3.609 13.988,6.043 21.709,7.002 11.718,1.453 24.072,-1.045 34.808,-5.74 10.932,-4.779 18.991,-12.471 23.578,-23.49 3.218,-7.732 4.496,-15.932 4.084,-24.031 0.979,8.399 0.581,16.861 -2.821,24.83 -4.778,11.197 -14.615,19.18 -25.506,24.061 -12.095,5.419 -26.64,7.508 -39.676,4.899 z m 56.067,-11.033 c -7.193,8.986 -17.488,11.074 -28.344,12.003 15.938,-3.708 30.854,-12.87 38.074,-27.534 -2.706,5.727 -6.15,11.057 -9.73,15.531 z m 11.305,-19.108 c 2.241,-5.889 2.916,-12.283 2.527,-18.543 -0.211,-3.406 -0.703,-6.83 -1.17,-10.209 -0.504,-3.641 -1.036,-7.695 -3.244,-10.73 -0.133,-0.184 -0.38,-0.169 -0.499,-0.035 -0.739,-2.213 -1.604,-4.385 -2.593,-6.504 0.416,0.427 0.859,0.813 1.336,1.131 0.395,0.262 0.994,-0.175 0.823,-0.635 -0.657,-1.762 -1.946,-3.242 -2.905,-4.859 -1.266,-2.131 -2.312,-4.393 -3.346,-6.641 -1.877,-4.086 -3.807,-8.051 -5.975,-11.988 -3.121,-5.667 -7.485,-7.658 -13.383,-9.525 -9.241,-2.928 -17.854,-6.84 -27.548,-8.248 -9.286,-1.35 -18.663,0.152 -27.237,3.873 -0.053,0.022 -0.016,0.111 0.039,0.094 9.354,-3.457 18.977,-3.912 28.756,-2.234 8.938,1.531 16.998,5.365 25.521,8.215 2.445,0.818 4.938,1.492 7.151,2.853 3.014,1.856 4.604,5.249 6.343,8.183 2.039,3.437 3.567,7.17 5.266,10.785 -1.77,-2.563 -3.733,-5.002 -5.891,-7.279 -16.849,-17.779 -43.812,-23.227 -66.618,-14.913 -7.672,2.796 -14.654,7.403 -19.92,13.671 -4.902,5.835 -7.635,13.32 -10.307,20.368 -2.682,7.075 -5.957,16.63 -6.193,25.548 -0.841,-4.851 -1.035,-9.832 -0.801,-14.573 0.566,-11.491 3.873,-23.104 9.575,-33.097 2.651,-4.645 5.98,-8.892 9.997,-12.432 4.447,-3.916 9.779,-6.008 15.324,-7.889 12.676,-4.296 26.402,-6.2 39.634,-3.596 14.036,2.765 25.886,11.176 34.446,22.461 9.069,11.953 11.394,27.705 14.195,42.088 1.564,8.025 -0.058,16.631 -3.303,24.66 z"
         id="path1541" />
      <path
         style="fill:#62163b"
         inkscape:connector-curvature="0"
         d="m 676.621,4826.276 c 0.822,-0.104 1.613,-0.133 2.402,-0.104 0.228,1.551 0.308,3.081 0.244,4.61 -0.451,-0.427 -0.919,-0.844 -1.417,-1.255 -0.032,-0.024 -0.067,0.021 -0.035,0.046 0.521,0.374 0.999,0.801 1.45,1.256 -0.054,1.227 -0.203,2.453 -0.445,3.684 -0.283,-0.472 -0.558,-0.949 -0.814,-1.438 -0.03,-0.061 -0.078,-0.091 -0.127,-0.101 0,-0.016 0,-0.037 -0.002,-0.051 -0.129,-2.021 -0.174,-4.048 -1.08,-5.896 -0.108,-0.219 -0.418,-0.059 -0.373,0.158 0.647,3.107 0.123,6.459 0.294,9.613 0.092,1.721 0.394,3.536 2.135,4.226 1.392,0.551 9.188,1.69 9.458,-0.581 0.048,-0.404 -0.396,-0.637 -0.74,-0.557 0,0 10e-4,0 0.002,-0.01 0.488,-0.131 0.268,-0.152 -0.289,-0.305 -0.154,-0.044 -0.323,-0.064 -0.498,-0.072 0.021,-0.041 0.043,-0.08 0.053,-0.129 0.821,-3.92 -0.402,-8.543 -1.104,-12.424 -0.182,-1.004 -2.914,-1.313 -3.655,-1.473 -1.837,-0.404 -3.725,-0.264 -5.554,0.098 -0.392,0.078 -0.305,0.75 0.095,0.701 z m 2.714,8.796 c 0.201,-1.292 0.299,-2.575 0.304,-3.854 0.382,0.422 0.737,0.867 1.068,1.332 -0.386,1.221 -0.632,2.463 -0.751,3.742 -0.24,-0.354 -0.475,-0.709 -0.702,-1.071 0.038,-0.036 0.07,-0.079 0.081,-0.149 z m 4.224,1.667 c -0.006,-0.029 -0.007,-0.059 -0.021,-0.089 -0.726,-1.603 -1.62,-2.96 -2.676,-4.199 0.136,-0.492 0.297,-0.979 0.483,-1.457 0.82,0.985 1.658,1.979 2.59,2.831 -0.047,0.985 -0.17,1.955 -0.376,2.914 z m -0.581,0.147 c 0.104,0.277 0.397,0.256 0.528,0.093 -0.202,0.882 -0.471,1.757 -0.795,2.627 -0.117,0 -0.236,0 -0.356,0 -0.713,-0.942 -1.42,-1.892 -2.094,-2.862 0.027,-1.379 0.194,-2.742 0.539,-4.063 0.91,1.304 1.631,2.754 2.178,4.209 z m -1.255,2.695 c -0.451,-0.021 -0.899,-0.057 -1.34,-0.113 -0.07,-0.641 -0.109,-1.284 -0.123,-1.924 0.478,0.686 0.967,1.363 1.463,2.037 z m -3.823,-5.841 c 0.604,1.136 1.281,2.226 2.002,3.286 -0.042,0.777 -0.037,1.568 0.01,2.375 -0.195,-0.032 -0.391,-0.066 -0.583,-0.109 -1.343,-0.301 -1.398,-3.734 -1.429,-5.552 z m 7.855,5.634 c 0.015,0.062 0.041,0.115 0.073,0.164 -0.263,0.021 -0.521,0.046 -0.751,0.048 -0.607,0.01 -1.234,0.02 -1.865,0.022 0.591,-1.85 0.922,-3.691 0.953,-5.574 0.249,0.218 0.503,0.425 0.767,0.617 0.054,0.037 0.112,0.049 0.169,0.043 0.132,1.596 0.307,3.182 0.654,4.68 z m -3.968,-12.838 c 2.361,0.541 2.699,1.229 2.938,3.441 0.135,1.253 0.217,2.551 0.313,3.854 -0.278,-0.347 -0.574,-0.683 -0.891,-1.005 -0.036,-0.688 -0.1,-1.38 -0.219,-2.084 -0.01,-0.057 -0.107,-0.042 -0.101,0.014 0.079,0.637 0.114,1.262 0.126,1.883 -0.76,-0.748 -1.592,-1.443 -2.412,-2.125 0.317,-0.742 0.699,-1.465 1.152,-2.162 0.02,-0.03 -0.03,-0.061 -0.049,-0.029 -0.434,0.714 -0.815,1.432 -1.144,2.156 -0.401,-0.332 -0.798,-0.666 -1.178,-1.004 -0.1,-0.088 -0.231,0.045 -0.145,0.145 0.377,0.426 0.75,0.871 1.123,1.322 -0.197,0.465 -0.371,0.934 -0.526,1.406 -0.36,-0.416 -0.735,-0.824 -1.135,-1.217 0,-1.654 -0.165,-3.305 -0.499,-4.959 0.875,0.04 1.746,0.157 2.647,0.364 z"
         id="path1543" />
      <path
         style="fill:#62163b"
         inkscape:connector-curvature="0"
         d="m 694.923,4910.374 c -0.092,-0.332 -0.414,-0.594 -0.766,-0.582 -2.829,0.086 -5.555,0.285 -8.145,1.518 -0.222,0.105 -0.291,0.32 -0.263,0.527 -0.185,-0.158 -0.407,-0.209 -0.678,-0.067 -0.026,0.015 -0.013,0.052 0.015,0.053 0.502,0.026 1.17,11.61 1.515,12.921 0.078,0.299 0.345,0.592 0.655,0.655 0.99,0.2 3.352,0.708 5.595,0.802 0.125,0.098 0.253,0.178 0.382,0.262 0.145,0.302 0.64,0.246 0.677,-0.154 0.002,-0.033 0.005,-0.064 0.009,-0.098 1.686,-0.043 3.156,-0.408 3.699,-1.433 0.41,-0.185 0.705,-0.603 0.547,-1.159 -1.24,-4.374 -2.036,-8.86 -3.242,-13.245 z m -1.198,11.4 c -0.72,-0.453 -1.393,-0.944 -2.022,-1.501 10e-4,-0.481 -10e-4,-0.964 0.027,-1.435 0.033,-0.551 0.079,-1.098 0.134,-1.646 0.308,0.304 0.594,0.642 0.856,1.021 0.625,0.905 0.889,1.909 1.166,2.916 -0.054,0.216 -0.109,0.431 -0.161,0.645 z m -0.464,2.49 c -0.325,0 -0.654,-0.016 -0.983,-0.039 -0.393,-0.405 -0.797,-0.801 -1.181,-1.198 0.162,0.013 0.336,-0.07 0.382,-0.252 0.107,-0.406 0.159,-0.828 0.189,-1.254 0.56,0.473 1.178,0.854 1.866,1.107 -0.116,0.542 -0.212,1.086 -0.273,1.636 z m -6.601,-9.384 c 0.688,0.865 1.324,1.882 1.982,2.895 -0.109,0.713 -0.178,1.438 -0.214,2.172 -0.425,-0.51 -0.845,-1.021 -1.267,-1.535 -0.165,-1.183 -0.316,-2.366 -0.501,-3.532 z m 2.362,5.381 c -0.006,-0.613 0.018,-1.217 0.063,-1.817 0.514,0.767 1.052,1.511 1.646,2.169 -0.08,0.709 -0.092,1.414 0.045,2.068 -0.057,-0.061 -0.113,-0.119 -0.168,-0.182 -0.58,-0.658 -1.146,-1.328 -1.709,-2 0.071,-0.049 0.124,-0.125 0.123,-0.238 z m 2.411,-3.457 c -0.088,0.43 -0.184,0.856 -0.264,1.289 -0.084,0.447 -0.184,0.921 -0.271,1.404 -0.241,-0.252 -0.479,-0.514 -0.708,-0.794 -0.343,-0.42 -0.671,-0.849 -0.999,-1.276 0.077,-0.576 0.18,-1.145 0.322,-1.703 0.712,0.258 1.353,0.613 1.92,1.08 z m -1.873,-1.245 c 0.289,-1.081 0.713,-2.124 1.302,-3.12 0.44,0.424 0.854,0.875 1.241,1.359 -0.211,0.875 -0.408,1.754 -0.594,2.635 -0.614,-0.385 -1.271,-0.684 -1.949,-0.874 z m 2.356,1.147 c 0.096,-0.909 0.213,-1.818 0.341,-2.725 0.019,0.025 0.041,0.047 0.06,0.072 0.928,1.219 1.319,2.723 2.184,3.943 0.047,0.066 0.105,0.105 0.167,0.127 -0.103,0.439 -0.215,0.879 -0.333,1.316 -0.574,-1.075 -1.423,-2.017 -2.419,-2.733 z m 1.594,-5.342 c 0.329,1.578 0.627,3.161 0.928,4.742 -0.477,-0.865 -1.135,-1.681 -1.703,-2.377 -0.12,-0.148 -0.256,-0.277 -0.385,-0.418 0.015,-0.099 0.027,-0.196 0.043,-0.293 0.009,-0.064 -0.082,-0.094 -0.099,-0.029 -0.017,0.069 -0.031,0.139 -0.049,0.207 -0.367,-0.394 -0.755,-0.768 -1.17,-1.109 0.052,-0.079 0.094,-0.162 0.147,-0.24 0.074,-0.111 -0.101,-0.207 -0.178,-0.104 -0.048,0.064 -0.087,0.135 -0.134,0.199 -0.215,-0.171 -0.441,-0.328 -0.667,-0.487 1.078,-0.101 2.167,-0.11 3.267,-0.091 z m -7.064,0.971 c 1.099,-0.447 2.218,-0.697 3.351,-0.834 0.309,0.245 0.609,0.501 0.897,0.768 -0.669,1.008 -1.163,2.078 -1.514,3.193 -0.149,-0.032 -0.3,-0.066 -0.451,-0.088 -0.062,-0.01 -0.092,0.082 -0.026,0.098 0.148,0.037 0.289,0.08 0.432,0.125 -0.131,0.432 -0.246,0.867 -0.338,1.311 -0.699,-0.914 -1.408,-1.814 -2.229,-2.637 -0.065,-0.458 -0.199,-1.338 -0.48,-1.945 0.105,0.05 0.226,0.064 0.358,0.01 z m 0.906,7.35 c 0.761,0.97 1.522,1.935 2.301,2.891 0.378,0.464 0.765,0.98 1.17,1.492 -0.913,-0.125 -1.801,-0.287 -2.595,-0.408 -0.4,-1.292 -0.662,-2.628 -0.876,-3.975 z m 6.844,3.139 c 0.095,0.021 0.19,0.038 0.289,0.056 0.199,0.242 0.62,0.179 0.634,-0.199 0.041,-1.01 -0.195,-1.996 -0.619,-2.903 0.068,-0.547 0.149,-1.094 0.244,-1.642 0.031,0 0.059,0 0.088,-0.01 0.373,1.884 0.773,3.761 1.263,5.621 -0.608,0.273 -1.29,0.421 -2.01,0.48 0.036,-0.468 0.073,-0.937 0.111,-1.405 z"
         id="path1545" />
      <path
         style="fill:#62163b"
         inkscape:connector-curvature="0"
         d="m 722.496,4881.962 c 0.156,0.289 0.583,0.492 0.904,0.367 4.101,-1.604 8.133,-2.014 12.486,-2.273 1.177,-0.07 1.189,-1.791 0,-1.836 -0.128,-0.01 -0.257,0 -0.386,0 -0.272,-1.602 -0.534,-3.205 -0.806,-4.808 0.045,-0.019 0.092,-0.037 0.137,-0.056 0.342,-0.146 0.08,-0.615 -0.236,-0.56 -0.002,0 -0.005,0 -0.006,0 -0.089,-0.518 -0.179,-1.035 -0.271,-1.553 0.187,-0.121 0.368,-0.25 0.539,-0.393 0.214,-0.178 -0.022,-0.469 -0.249,-0.426 -0.14,0.027 -0.279,0.064 -0.418,0.096 -0.152,-0.836 -0.307,-1.67 -0.474,-2.504 -0.073,-0.365 -0.485,-0.674 -0.854,-0.65 -4.063,0.259 -7.698,1.934 -11.626,2.813 -0.653,0.147 -0.364,1.085 0.271,0.984 1.495,-0.235 2.955,-0.596 4.412,-0.946 -0.37,1.135 -0.811,2.241 -1.337,3.307 -0.687,0.184 -1.373,0.374 -2.054,0.579 -0.252,0.076 -0.148,0.459 0.107,0.393 0.549,-0.137 1.098,-0.27 1.646,-0.398 -0.421,0.794 -0.886,1.564 -1.404,2.305 -0.121,0.023 -0.242,0.051 -0.365,0.07 -0.262,0.047 -0.218,0.365 -0.025,0.464 -0.058,0.077 -0.111,0.157 -0.17,0.234 -0.237,0.306 0.304,0.638 0.527,0.308 0.139,-0.201 0.267,-0.408 0.396,-0.615 1.221,-0.203 2.453,-0.469 3.687,-0.788 -0.291,0.883 -0.561,1.772 -0.784,2.679 -0.574,0.09 -1.154,0.158 -1.748,0.181 -0.261,0.011 -0.262,0.412 0,0.407 0.557,-0.01 1.104,-0.057 1.646,-0.125 -0.038,0.165 -0.073,0.33 -0.108,0.498 -0.804,0.256 -1.598,0.533 -2.379,0.844 -1.539,-2.959 -2.211,-6.264 -4.384,-8.894 -0.229,-0.276 -0.642,0.077 -0.482,0.37 1.694,3.111 2.114,6.775 3.808,9.927 z m 11.059,-3.709 c -0.776,0.045 -1.549,0.111 -2.317,0.219 0.18,-0.135 0.355,-0.275 0.524,-0.436 0.144,-0.135 -0.073,-0.353 -0.217,-0.217 -0.325,0.309 -0.679,0.563 -1.046,0.774 -0.051,0.01 -0.103,0.018 -0.153,0.026 0.062,-0.186 0.123,-0.373 0.177,-0.566 0.843,-0.32 1.674,-0.68 2.494,-1.07 0.354,-0.17 0.045,-0.707 -0.309,-0.527 -0.666,0.336 -1.336,0.652 -2.017,0.941 0.187,-0.832 0.306,-1.707 0.378,-2.59 0.609,-0.213 1.211,-0.436 1.806,-0.664 0.225,1.372 0.455,2.741 0.68,4.11 z m -0.828,-5.029 c -0.533,0.146 -1.063,0.313 -1.588,0.486 0.017,-0.405 0.026,-0.807 0.028,-1.201 0.466,-0.121 0.928,-0.258 1.377,-0.418 0.061,0.379 0.122,0.755 0.183,1.133 z m -2.165,0.683 c -0.887,0.31 -1.769,0.645 -2.654,0.971 0.174,-0.576 0.352,-1.15 0.535,-1.724 0.305,-0.069 0.609,-0.138 0.914,-0.21 0.455,-0.107 0.928,-0.215 1.401,-0.33 -0.056,0.432 -0.121,0.864 -0.196,1.293 z m 1.828,-2.823 c -0.407,0.151 -0.814,0.312 -1.223,0.469 -0.004,-0.3 -0.01,-0.597 -0.018,-0.881 -0.004,-0.134 -0.195,-0.132 -0.203,0 -0.02,0.334 -0.049,0.665 -0.08,0.997 -0.563,0.219 -1.127,0.428 -1.696,0.597 -0.162,0.048 -0.325,0.093 -0.489,0.14 0.317,-0.988 0.633,-1.977 0.924,-2.973 0.826,-0.137 1.656,-0.238 2.5,-0.277 0.09,0.644 0.189,1.284 0.285,1.928 z m -6.307,-0.907 c 1.072,-0.258 2.145,-0.507 3.23,-0.697 -0.36,1.025 -0.742,2.045 -1.125,3.064 -1.054,0.297 -2.113,0.578 -3.172,0.861 0.431,-1.047 0.782,-2.127 1.067,-3.228 z m -2.462,6.062 c 0.427,-0.73 0.811,-1.482 1.15,-2.254 1.047,-0.24 2.098,-0.473 3.147,-0.711 -0.229,0.613 -0.45,1.227 -0.666,1.844 -1.193,0.43 -2.397,0.829 -3.631,1.121 z m 3.985,-0.346 c 0.917,-0.252 1.832,-0.529 2.735,-0.831 -0.023,0.115 -0.045,0.229 -0.071,0.346 -0.174,0.799 -0.431,1.592 -0.592,2.396 -0.897,0.336 -1.812,0.606 -2.746,0.803 0.193,-0.915 0.419,-1.817 0.674,-2.714 z m 1.977,2.497 c -0.014,0.125 -0.027,0.246 -0.035,0.371 -0.935,0.188 -1.86,0.42 -2.774,0.689 0.021,-0.116 0.036,-0.233 0.058,-0.35 0.935,-0.163 1.851,-0.408 2.751,-0.71 z"
         id="path1547" />
      <path
         style="fill:#62163b"
         inkscape:connector-curvature="0"
         d="m 675.751,4888.11 c -0.473,0.611 -0.403,1.635 0.558,1.834 2.771,0.574 5.615,1.202 8.501,1.799 -0.074,0.277 0.251,0.566 0.494,0.311 0.055,-0.057 0.1,-0.12 0.153,-0.177 9.087,1.86 18.563,3.354 27.476,1.874 0.098,-0.018 0.098,-0.18 0,-0.198 -0.783,-0.138 -1.568,-0.267 -2.354,-0.39 -0.01,-0.42 -0.019,-0.844 -0.028,-1.265 0.641,-0.046 0.844,-1.089 0.111,-1.306 -0.784,-0.23 -1.575,-0.424 -2.37,-0.596 0.037,-0.211 0.087,-0.421 0.137,-0.631 0.26,0.1 0.52,0.191 0.781,0.299 0.285,0.115 0.414,-0.313 0.195,-0.467 -0.256,-0.182 -0.522,-0.347 -0.795,-0.504 0.117,-0.392 0.25,-0.777 0.401,-1.162 1.584,2.152 3.197,4.277 4.887,6.336 0.225,0.273 0.655,-0.078 0.48,-0.371 -6.751,-11.345 -13.46,-23.027 -23.444,-31.887 0.109,-0.613 0.196,-1.225 0.25,-1.824 0.006,-0.051 -0.072,-0.068 -0.095,-0.027 -0.248,0.473 -0.485,0.959 -0.726,1.439 -0.107,-0.043 -0.217,-0.069 -0.324,-0.076 -11.595,-3.5 -25.039,-3.826 -35.14,-11.102 -0.083,-0.061 -0.193,0.058 -0.14,0.141 3.11,4.715 9.592,6.598 14.721,8.217 6.47,2.044 13.291,2.82 19.797,4.758 0.029,0.026 0.057,0.053 0.085,0.079 -0.776,1.612 -1.527,3.245 -2.261,4.878 -0.269,0 -0.538,0 -0.805,0.01 -0.198,0 -0.198,0.305 0,0.307 0.22,0 0.439,0 0.66,0.01 -0.04,0.091 -0.081,0.183 -0.122,0.274 -0.188,-0.1 -0.379,-0.195 -0.584,-0.273 -2.033,-0.758 -4.023,0.061 -5.621,1.354 -1.713,1.383 -2.874,3.711 -3.06,5.89 -0.141,1.644 0.183,3.97 1.604,4.908 -0.509,0.815 -0.582,2.038 -0.885,2.915 -0.324,0.94 -0.69,1.867 -1.06,2.791 -4.991,-13.701 -17.615,-22.929 -23.458,-36.236 -0.072,-0.161 -0.326,-0.045 -0.28,0.118 4.144,14.388 17.397,23.667 22.145,37.726 0.032,0.087 0.072,0.165 0.116,0.233 z m 6.025,-1.136 c -0.182,-0.832 -0.171,-1.672 -0.003,-2.494 0.293,0.082 0.588,0.152 0.883,0.226 0.111,0.851 -0.013,1.673 -0.348,2.427 -0.178,-0.052 -0.355,-0.105 -0.532,-0.159 z m 2.02,-4.69 c 0.35,0.039 0.688,0.041 1.015,0.025 -0.278,0.838 -0.588,1.672 -0.91,2.5 -0.307,-0.059 -0.612,-0.122 -0.916,-0.186 -0.042,-0.229 -0.098,-0.46 -0.17,-0.689 -0.059,-0.188 -0.348,-0.109 -0.295,0.082 0.048,0.178 0.08,0.354 0.11,0.529 -0.276,-0.063 -0.55,-0.129 -0.823,-0.197 0.179,-0.797 0.489,-1.57 0.88,-2.295 0.348,0.104 0.717,0.184 1.109,0.231 z m 6.454,-7.701 c -0.131,-0.73 -0.324,-1.503 -0.598,-2.249 0.294,-0.914 0.609,-1.821 0.969,-2.706 1.086,0.043 2.064,0.207 3.033,0.627 -0.255,0.902 -0.506,1.803 -0.757,2.705 -0.587,0.011 -1.175,0.02 -1.762,0.029 -0.132,0 -0.132,0.201 0,0.202 0.564,0.01 1.128,0.018 1.691,0.026 -0.863,3.09 -1.748,6.172 -2.889,9.137 -0.853,-0.229 -1.688,-0.512 -2.503,-0.854 2.168,-1.355 3.306,-4.175 2.816,-6.917 z m 2.093,-6.535 c -0.339,0 -0.679,0.01 -1.018,0.01 0.32,-0.648 0.681,-1.275 1.084,-1.877 0.631,0.653 1.248,1.314 1.854,1.986 -0.178,0.594 -0.353,1.191 -0.522,1.791 -0.959,-0.41 -1.93,-0.578 -2.997,-0.63 0.125,-0.297 0.258,-0.591 0.395,-0.882 0.402,0 0.804,0.01 1.205,0.01 0.263,0 0.263,-0.41 -0.001,-0.408 z m 6.481,5.592 c -0.333,0.842 -0.648,1.688 -0.949,2.542 -1.236,-0.028 -2.471,-0.095 -3.705,-0.32 0.153,-0.876 0.29,-1.749 0.405,-2.617 1.069,0.017 2.142,0.032 3.212,0.05 0.263,0.01 0.263,-0.412 0,-0.407 -1.057,0.015 -2.112,0.032 -3.169,0.048 0.091,-0.721 0.168,-1.435 0.234,-2.141 0.07,-0.061 0.092,-0.189 -0.013,-0.256 -0.25,-0.159 -0.499,-0.293 -0.748,-0.418 0.141,-0.56 0.285,-1.111 0.434,-1.658 1.492,1.673 2.916,3.407 4.299,5.177 z m 1.993,2.609 c -0.931,-0.042 -1.857,-0.046 -2.784,-0.064 0.279,-0.816 0.572,-1.629 0.878,-2.434 0.643,0.825 1.278,1.658 1.906,2.498 z m 3.573,5.295 c -0.148,0.611 -0.285,1.227 -0.422,1.84 -1.471,-0.039 -2.973,0.029 -4.438,0.042 0.252,-0.967 0.525,-1.929 0.832,-2.882 0.069,-0.059 0.097,-0.152 0.082,-0.242 0.325,-0.995 0.676,-1.98 1.068,-2.951 0.051,-0.122 -0.146,-0.174 -0.195,-0.055 -0.39,0.924 -0.738,1.861 -1.065,2.805 -0.017,0 -0.028,-0.01 -0.048,-0.01 -0.336,0 -0.673,0.01 -1.01,0.01 0.15,-0.986 0.307,-1.976 0.449,-2.971 0.619,0.027 1.229,0.027 1.828,0 1.572,2.124 3.11,4.276 4.652,6.424 -0.623,-0.088 -1.259,-0.137 -1.903,-0.16 0.085,-0.607 0.175,-1.215 0.268,-1.822 0.01,-0.063 -0.082,-0.091 -0.098,-0.026 z m -1.133,5.331 c -1.47,-0.27 -2.969,-0.427 -4.406,-0.556 0.137,-0.662 0.284,-1.32 0.443,-1.976 1.461,0.144 2.961,0.247 4.416,0.228 -0.145,0.693 -0.287,1.387 -0.412,2.082 -0.013,0.073 -0.027,0.148 -0.041,0.222 z m -4.704,2.043 c -0.019,-0.296 -0.032,-0.591 -0.04,-0.882 0.072,-0.389 0.147,-0.773 0.226,-1.16 1.479,0.221 2.926,0.496 4.362,0.838 -0.09,0.49 -0.172,0.99 -0.223,1.488 -1.435,-0.131 -2.879,-0.217 -4.325,-0.284 z m -10.216,-1.017 c 0.01,0.129 0.027,0.26 0.044,0.391 -0.084,-0.011 -0.17,-0.02 -0.255,-0.031 0.071,-0.117 0.143,-0.239 0.211,-0.36 z m 0.546,0.446 c -0.08,-0.402 -0.136,-0.799 -0.147,-1.186 0.225,-0.428 0.441,-0.861 0.647,-1.304 0.309,0.035 0.618,0.069 0.927,0.103 -0.227,0.814 -0.435,1.637 -0.613,2.467 -0.272,-0.024 -0.543,-0.051 -0.814,-0.08 z m 5.306,-15.108 c -0.187,0.842 -0.402,1.672 -0.636,2.498 -0.262,-0.062 -0.522,-0.131 -0.785,-0.207 0.191,-0.771 0.379,-1.539 0.563,-2.305 0.286,0 0.572,0.01 0.858,0.014 z m -0.793,-0.286 c 0.205,-0.852 0.41,-1.698 0.618,-2.529 0.21,0.105 0.419,0.222 0.63,0.354 -0.105,0.729 -0.234,1.449 -0.387,2.162 -0.287,0.01 -0.574,0.01 -0.861,0.013 z m -0.684,2.798 c 0.248,0.092 0.498,0.188 0.757,0.271 -0.649,2.245 -1.43,4.444 -2.156,6.659 -0.196,-0.04 -0.392,-0.08 -0.586,-0.126 0.784,-2.212 1.413,-4.51 1.985,-6.804 z m -2.175,7.338 c 0.197,0.05 0.396,0.102 0.596,0.146 -0.257,0.797 -0.504,1.599 -0.732,2.404 -0.293,-0.023 -0.587,-0.051 -0.879,-0.076 0.364,-0.806 0.703,-1.63 1.015,-2.474 z m 1.783,0.387 c 0.979,0.178 1.968,0.313 2.959,0.428 -0.06,0.172 -0.117,0.345 -0.178,0.515 -0.096,-0.155 -0.188,-0.313 -0.294,-0.468 -0.036,-0.055 -0.123,-0.01 -0.089,0.051 0.119,0.193 0.225,0.387 0.326,0.578 -0.162,0.463 -0.336,0.918 -0.508,1.375 -0.999,-0.072 -1.999,-0.145 -2.998,-0.223 0.278,-0.741 0.539,-1.493 0.782,-2.256 z m 0.842,-2.918 c 1.079,0.01 2.156,0.014 3.234,0.02 -0.294,0.895 -0.592,1.787 -0.895,2.678 -1,-0.082 -2.005,-0.193 -2.998,-0.354 0.237,-0.776 0.456,-1.556 0.659,-2.344 z m 2.041,4.33 c 0.186,0.383 0.344,0.767 0.469,1.155 -0.287,-0.022 -0.572,-0.045 -0.859,-0.067 0.13,-0.362 0.263,-0.724 0.39,-1.088 z m 0.068,-0.194 c 0.088,-0.252 0.168,-0.508 0.253,-0.762 0.155,0.018 0.313,0.037 0.468,0.053 0.729,0.08 1.5,0.168 2.285,0.254 -0.079,0.668 -0.139,1.339 -0.179,2.014 -0.312,-0.028 -0.622,-0.057 -0.927,-0.084 -0.422,-0.037 -0.845,-0.074 -1.268,-0.107 -0.165,-0.463 -0.376,-0.916 -0.632,-1.368 z m 3.383,-0.414 c 0.109,0.012 0.221,0.021 0.33,0.033 -0.164,0.637 -0.314,1.277 -0.459,1.92 0.025,-0.653 0.068,-1.302 0.129,-1.953 z m 0.088,-0.853 c 0.105,-0.944 0.237,-1.887 0.379,-2.832 0.318,0 0.637,0 0.955,0.01 -0.313,0.932 -0.591,1.877 -0.852,2.826 -0.161,0 -0.322,0 -0.482,0 z m -0.362,-0.01 c -0.215,-0.01 -0.432,-0.01 -0.643,-0.018 -0.662,-0.031 -1.328,-0.076 -1.996,-0.127 0.294,-0.898 0.582,-1.795 0.866,-2.695 0.739,0 1.478,0.01 2.216,0.014 -0.162,0.941 -0.316,1.884 -0.443,2.826 z m -1.624,-3.306 c 0.331,-1.047 0.667,-2.095 1.014,-3.136 0.554,0.069 1.108,0.115 1.661,0.144 -0.167,0.999 -0.348,1.991 -0.521,2.979 -0.718,0.01 -1.436,0.011 -2.154,0.013 z m -0.207,0 c -1.092,0.01 -2.184,0.014 -3.274,0.021 0.325,-1.303 0.596,-2.615 0.831,-3.926 1.117,0.328 2.301,0.582 3.503,0.742 -0.361,1.054 -0.714,2.107 -1.06,3.163 z m -5.138,5.958 c 0.992,0.099 1.985,0.19 2.978,0.284 -0.3,0.781 -0.611,1.559 -0.947,2.328 -1.016,-0.051 -2.031,-0.114 -3.041,-0.198 0.358,-0.782 0.693,-1.591 1.01,-2.414 z m 3.256,0.31 c 0.381,0.036 0.753,0.078 1.127,0.117 0.186,0.744 0.246,1.506 0.172,2.303 -0.736,-0.031 -1.472,-0.063 -2.207,-0.1 0.323,-0.766 0.621,-1.541 0.908,-2.32 z m 1.378,0.144 c 0.682,0.075 1.357,0.158 2.024,0.25 -0.023,0.578 -0.029,1.158 -0.016,1.741 -0.023,0.125 -0.047,0.249 -0.07,0.37 -0.557,-0.024 -1.113,-0.047 -1.671,-0.07 0.035,-0.797 -0.056,-1.555 -0.267,-2.291 z m -9.19,-4.715 c 0.936,0.438 1.9,0.781 2.881,1.063 -0.556,0.848 -0.957,1.703 -1.189,2.593 -1.492,-0.153 -2.98,-0.351 -4.455,-0.624 0.238,-0.855 0.49,-1.705 0.771,-2.539 0.721,-0.043 1.39,-0.213 1.992,-0.493 z m -3.852,2.975 c 0.275,0.066 0.553,0.137 0.83,0.195 -0.256,0.656 -0.514,1.309 -0.758,1.961 -0.09,0.244 0.318,0.363 0.394,0.109 0.198,-0.671 0.384,-1.35 0.573,-2.029 1.465,0.307 2.946,0.533 4.434,0.721 0,0 0,0.01 -0.002,0.01 -0.391,0.811 -0.816,1.605 -1.271,2.389 -1.508,-0.213 -3.001,-0.5 -4.472,-0.896 0.3,-0.775 0.394,-1.608 0.272,-2.46 z m 3.768,4.096 c -0.15,0.244 -0.314,0.483 -0.473,0.727 -1.48,-0.286 -2.959,-0.586 -4.437,-0.891 0.252,-0.313 0.469,-0.639 0.644,-0.979 1.402,0.485 2.827,0.855 4.266,1.143 z m 8.356,2.248 c -2.67,-0.391 -5.327,-0.855 -7.979,-1.359 0.168,-0.238 0.33,-0.48 0.487,-0.728 2.681,0.476 5.409,0.697 8.149,0.882 -0.004,0.016 -0.005,0.027 -0.008,0.041 -0.064,0.258 0.342,0.366 0.393,0.109 0.008,-0.041 0.011,-0.081 0.017,-0.123 0.531,0.035 1.061,0.07 1.59,0.105 -0.063,0.374 -0.128,0.744 -0.187,1.119 -0.041,0.258 0.356,0.366 0.394,0.107 0.055,-0.392 0.117,-0.783 0.179,-1.174 0.095,0.203 0.417,0.205 0.476,0.01 1.401,0.098 2.803,0.207 4.199,0.357 0.012,0.286 0.039,0.567 0.098,0.839 0.063,0.299 0.52,0.289 0.59,0 0.059,-0.246 0.098,-0.494 0.129,-0.748 1.332,0.162 2.658,0.366 3.972,0.641 -0.036,0.504 -0.044,1.015 0.003,1.533 -4.161,-0.563 -8.348,-0.997 -12.502,-1.606 z m 15.184,0.74 c 0.038,0.01 0.074,0.016 0.111,0.021 -0.008,0.414 -0.018,0.828 -0.026,1.243 -0.72,-0.11 -1.441,-0.216 -2.163,-0.317 -0.07,-0.506 -0.091,-1.004 -0.072,-1.498 0.719,0.16 1.436,0.342 2.15,0.551 z m -2.513,-1.98 c -1.342,-0.266 -2.697,-0.458 -4.061,-0.602 0.01,-0.475 0.008,-0.949 0.023,-1.42 1.405,0.358 2.804,0.799 4.211,1.32 -0.061,0.235 -0.124,0.467 -0.173,0.702 z m 0.398,-1.429 c -1.338,-0.705 -2.833,-1.162 -4.378,-1.479 0.063,-0.805 0.145,-1.611 0.246,-2.414 0.901,-0.025 1.775,-0.105 2.609,-0.258 0.676,0.94 1.356,1.877 2.04,2.811 -0.197,0.442 -0.366,0.889 -0.517,1.34 z m -17.841,-24.317 c 0.654,0.621 1.293,1.254 1.918,1.897 -0.477,0.642 -0.9,1.316 -1.283,2.017 -0.661,0 -1.324,0.011 -1.986,0.016 0.523,-1.282 0.985,-2.602 1.351,-3.93 z m 0.428,4.296 c -0.148,0.287 -0.291,0.58 -0.43,0.875 -0.142,0 -0.282,-0.01 -0.427,-0.01 -0.198,0 -0.198,0.308 0,0.308 0.098,0 0.19,0 0.287,0.01 -0.303,0.664 -0.58,1.34 -0.846,2.022 -0.297,-0.658 -0.668,-1.278 -1.127,-1.813 0.213,-0.459 0.42,-0.926 0.619,-1.402 0.642,0.01 1.284,0.011 1.924,0.015 z m -8.797,3.596 c 1.416,-1.428 2.668,-1.414 3.657,-0.684 -0.017,0.037 -0.034,0.076 -0.052,0.115 -0.357,0.803 0.552,1.521 1.146,1.121 0.485,0.779 0.843,1.736 1.046,2.672 0.609,2.807 -1.3,4.764 -3.986,4.965 -1.301,0.1 -2.316,-0.314 -3.068,-1.025 -0.262,-1.039 -0.809,-2.004 -0.741,-3.202 0.087,-1.496 0.972,-2.925 1.998,-3.962 z m -0.882,9.27 c 0.324,0.223 0.679,0.41 1.065,0.566 -0.442,0.721 -0.8,1.494 -1.034,2.301 -0.291,-0.08 -0.582,-0.16 -0.872,-0.249 -0.062,-0.019 -0.089,0.079 -0.026,0.099 0.287,0.096 0.576,0.17 0.865,0.256 -0.215,0.781 -0.307,1.587 -0.246,2.396 -0.391,-0.134 -0.781,-0.274 -1.17,-0.429 -0.161,-0.063 -0.272,0.205 -0.118,0.279 0.444,0.217 0.892,0.414 1.341,0.602 0.029,0.201 0.058,0.398 0.109,0.6 0.142,0.559 1.011,0.328 0.889,-0.203 0.057,0.021 0.115,0.043 0.172,0.063 -0.208,0.359 -0.467,0.701 -0.773,1.018 -1.206,-0.25 -2.41,-0.506 -3.613,-0.76 1.363,-2.067 2.661,-4.149 3.411,-6.539 z"
         id="path1549" />
      <path
         style="fill:#62163b"
         inkscape:connector-curvature="0"
         d="m 623.31,4870.604 c -0.168,-4.271 0.158,-8.453 0.975,-12.484 -0.948,4.051 -1.31,8.244 -0.975,12.484 z"
         id="path1551" />
      <path
         style="fill:#62163b"
         inkscape:connector-curvature="0"
         d="m 623.431,4871.88 c -0.048,-0.426 -0.087,-0.85 -0.121,-1.275 0.018,0.426 0.037,0.85 0.064,1.275 0.002,0.037 0.061,0.037 0.057,0 z"
         id="path1553" />
      <path
         style="fill:#62163b"
         inkscape:connector-curvature="0"
         d="m 630.639,4837.995 c -0.023,0.027 0.017,0.066 0.04,0.038 5.5,-6.315 12.668,-11.22 20.467,-14.575 -4.347,2.37 -8.398,5.291 -12.049,8.629 -7.85,7.18 -12.807,16.152 -14.813,26.033 2.283,-9.752 7.955,-18.672 15.424,-25.42 5.338,-4.824 11.695,-8.449 18.43,-10.928 3.279,-1.205 6.704,-2.076 10.131,-2.742 2.272,-0.439 4.573,-0.551 6.859,-0.77 3.735,-0.063 7.479,0.166 11.172,0.604 7.05,0.834 13.667,3.102 20.437,5.079 0.498,0.146 0.813,-0.589 0.354,-0.84 -11.873,-6.47 -27.071,-7.988 -40.293,-6.091 -6.93,0.994 -13.639,3.273 -19.809,6.563 -6.48,3.458 -11.691,8.863 -16.35,14.42 z"
         id="path1555" />
      <path
         style="fill:#62163b"
         inkscape:connector-curvature="0"
         d="m 632.858,4881.429 c -0.145,0.34 0.329,0.537 0.467,0.195 0.149,-0.373 0.306,-0.744 0.465,-1.114 0.368,2.062 0.856,4.097 1.581,6.087 0.132,0.361 0.521,0.682 0.934,0.529 2.033,-0.748 4.103,-1.299 6.2,-1.764 0.138,0.186 0.497,0.146 0.546,-0.121 0.775,-0.168 1.557,-0.326 2.341,-0.479 0.122,-0.022 0.223,-0.067 0.305,-0.125 0.482,0.442 1.54,0.222 1.605,-0.661 0.353,-4.799 -1.606,-9.598 -0.11,-14.291 0.188,-0.592 -0.434,-1.231 -1.03,-1.031 -3.94,1.316 -7.819,2.387 -11.914,3.08 -0.185,0.029 -0.115,0.281 0.042,0.299 1.625,0.199 3.253,0.157 4.871,-0.028 -0.438,0.613 -0.818,1.271 -1.162,1.959 -0.42,-0.309 -0.841,-0.614 -1.265,-0.917 -0.003,0 -0.007,0 -0.01,0 0.044,-0.172 0.094,-0.344 0.131,-0.518 0.042,-0.192 -0.249,-0.275 -0.294,-0.081 -0.48,2.027 -1.34,3.913 -2.229,5.785 -0.377,-1.724 -0.693,-3.467 -1.006,-5.208 -0.051,-0.282 -0.531,-0.219 -0.502,0.066 0.231,2.209 0.467,4.415 0.822,6.596 -0.271,0.578 -0.539,1.157 -0.788,1.744 z m 2.03,-0.871 c 0.236,0.354 0.486,0.696 0.758,1.018 -0.064,0.323 -0.127,0.643 -0.187,0.961 -0.208,-0.656 -0.396,-1.316 -0.571,-1.979 z m 0.993,3.235 c 0.169,-0.489 0.319,-0.985 0.454,-1.487 0.499,0.475 1.055,0.885 1.66,1.223 -0.11,0.492 -0.207,0.99 -0.282,1.489 -0.4,0.132 -0.8,0.27 -1.195,0.415 -0.23,-0.542 -0.439,-1.091 -0.637,-1.64 z m 7.258,-4.526 c 0.077,0.105 0.179,0.131 0.269,0.11 -0.389,1.415 -0.694,2.849 -0.852,4.329 -1.385,0.314 -2.758,0.662 -4.112,1.08 0.068,-0.313 0.134,-0.625 0.208,-0.932 0.322,0.143 0.658,0.268 1.01,0.367 0.318,0.088 0.454,-0.407 0.137,-0.492 -0.357,-0.096 -0.696,-0.221 -1.021,-0.362 0.309,-1.21 0.66,-2.399 1.05,-3.573 0.512,0.311 1.063,0.578 1.65,0.799 0.27,0.102 0.457,-0.346 0.196,-0.465 -0.573,-0.266 -1.119,-0.582 -1.646,-0.931 0.283,-0.824 0.579,-1.644 0.89,-2.462 0.799,0.786 1.549,1.619 2.221,2.532 z m -3.636,-0.439 c -0.366,-0.265 -0.725,-0.538 -1.072,-0.821 -0.266,-0.22 -0.626,-0.539 -0.947,-0.9 0.216,-0.92 0.467,-1.824 0.789,-2.701 0.783,0.636 1.548,1.295 2.277,1.984 -0.364,0.806 -0.717,1.617 -1.047,2.438 z m -0.238,0.601 c -0.456,1.186 -0.855,2.389 -1.158,3.611 -0.607,-0.342 -1.148,-0.77 -1.641,-1.252 0.355,-1.447 0.621,-2.93 0.951,-4.385 0.467,0.801 1.092,1.477 1.848,2.026 z m 6.242,3.833 c -0.155,-0.081 -0.34,-0.116 -0.551,-0.073 -0.611,0.127 -1.222,0.256 -1.828,0.391 0.219,-2.869 0.99,-5.568 1.852,-8.323 0.16,2.652 0.642,5.316 0.527,8.005 z m -6.055,-11.292 c 1.945,-0.248 3.872,-0.706 5.748,-1.264 -0.257,1.305 -0.302,2.614 -0.251,3.925 -0.514,1.443 -1.004,2.873 -1.418,4.315 -0.756,-0.933 -1.592,-1.772 -2.479,-2.558 0.573,-1.491 1.18,-2.976 1.801,-4.481 0.045,-0.107 -0.138,-0.182 -0.186,-0.078 -0.637,1.401 -1.321,2.816 -1.975,4.248 -0.757,-0.648 -1.543,-1.264 -2.348,-1.86 0.298,-0.777 0.657,-1.532 1.108,-2.247 z m -2.754,1.177 c 0.409,0.321 0.815,0.646 1.222,0.973 -0.358,0.736 -0.668,1.508 -0.941,2.3 -0.036,-0.065 -0.073,-0.13 -0.102,-0.195 0.026,0.079 0.062,0.149 0.092,0.228 -0.51,1.49 -0.891,3.041 -1.207,4.561 -0.458,-0.566 -0.865,-1.184 -1.221,-1.842 -0.018,-0.078 -0.033,-0.157 -0.052,-0.236 0.85,-1.889 1.697,-3.779 2.209,-5.789 z"
         id="path1557" />
      <path
         style="fill:#62163b"
         inkscape:connector-curvature="0"
         d="m 636.876,4876.225 c -0.047,-0.149 -0.088,-0.302 -0.127,-0.456 0.021,0.15 0.059,0.302 0.127,0.456 z"
         id="path1559" />
      <path
         style="fill:#62163b"
         inkscape:connector-curvature="0"
         d="m 636.68,4875.517 c 0.017,0.088 0.048,0.166 0.069,0.252 -0.011,-0.086 -0.023,-0.174 -0.014,-0.26 0.005,-0.038 -0.065,-0.035 -0.055,0.01 z"
         id="path1561" />
    </g>
  </g>
</svg>
