<?xml version="1.0" encoding="UTF-8" standalone="no"?>
<!-- Created with Inkscape (http://www.inkscape.org/) -->

<svg
   xmlns:dc="http://purl.org/dc/elements/1.1/"
   xmlns:cc="http://creativecommons.org/ns#"
   xmlns:rdf="http://www.w3.org/1999/02/22-rdf-syntax-ns#"
   xmlns:svg="http://www.w3.org/2000/svg"
   xmlns="http://www.w3.org/2000/svg"
   xmlns:sodipodi="http://sodipodi.sourceforge.net/DTD/sodipodi-0.dtd"
   xmlns:inkscape="http://www.inkscape.org/namespaces/inkscape"
   width="320"
   height="450"
   id="svg3702"
   version="1.1"
   inkscape:version="0.48.5 r10040"
   sodipodi:docname="Documento nuevo 4">
  <defs
     id="defs3704" />
  <sodipodi:namedview
     id="base"
     pagecolor="#ffffff"
     bordercolor="#666666"
     borderopacity="1.0"
     inkscape:pageopacity="0.0"
     inkscape:pageshadow="2"
     inkscape:zoom="0.98994949"
     inkscape:cx="272.28239"
     inkscape:cy="243.20589"
     inkscape:document-units="px"
     inkscape:current-layer="layer1"
     showgrid="false"
     inkscape:window-width="1280"
     inkscape:window-height="734"
     inkscape:window-x="0"
     inkscape:window-y="27"
     inkscape:window-maximized="1" />
  <metadata
     id="metadata3707">
    <rdf:RDF>
      <cc:Work
         rdf:about="">
        <dc:format>image/svg+xml</dc:format>
        <dc:type
           rdf:resource="http://purl.org/dc/dcmitype/StillImage" />
        <dc:title></dc:title>
      </cc:Work>
    </rdf:RDF>
  </metadata>
  <g
     inkscape:label="Capa 1"
     inkscape:groupmode="layer"
     id="layer1"
     transform="translate(0,-602.36218)">
    <g
       transform="matrix(10.372412,0,0,10.372412,-479.34488,270.82274)"
       style="opacity:0.2"
       id="g319">
      <path
         style="fill:#2a2729;fill-rule:evenodd"
         inkscape:connector-curvature="0"
         clip-rule="evenodd"
         d="m 47.822,65.67 c -0.191,-0.717 -0.382,-1.365 -0.527,-2.023 -0.035,-0.155 0.057,-0.354 0.13,-0.517 0.075,-0.169 0.192,-0.322 0.301,-0.476 1.307,-1.843 1.687,-3.955 1.808,-6.149 0.181,-3.256 0.394,-6.51 0.573,-9.765 0.312,-5.599 4.673,-10.383 10.254,-11.154 3.173,-0.438 6.166,0.013 8.745,2.108 1.587,1.289 2.551,2.995 3.277,4.866 0.647,1.666 1.208,3.372 2.258,4.85 0.142,0.2 0.26,0.428 0.435,0.592 0.865,0.813 0.937,1.823 0.746,2.986 -0.672,-0.196 -1.262,-0.542 -1.625,-1.116 -0.926,-1.46 -1.813,-2.947 -2.671,-4.449 -0.465,-0.815 -0.848,-1.68 -1.259,-2.526 -1.568,-3.233 -4.225,-4.733 -7.739,-4.859 -1.479,-0.053 -2.939,0.074 -4.347,0.563 -2.418,0.841 -4.085,2.493 -5.14,4.792 -1.004,2.185 -1.321,4.488 -1.298,6.879 0.029,3.224 0.067,6.454 -0.098,9.671 -0.129,2.53 -1.555,4.381 -3.823,5.727 z"
         id="path321" />
      <path
         style="fill:#2a2729;fill-rule:evenodd"
         inkscape:connector-curvature="0"
         clip-rule="evenodd"
         d="m 58.769,60.478 c -0.081,0.511 -0.162,1.021 -0.252,1.589 -1.196,-1.186 -2.206,-2.464 -3.017,-3.894 -1.615,-2.851 -2.636,-5.88 -2.56,-9.195 0.057,-2.513 0.834,-4.825 2.287,-6.87 1.417,-1.992 3.499,-2.814 5.862,-2.898 1.156,-0.04 2.345,0.042 3.478,0.274 1.989,0.407 3.377,1.689 4.301,3.461 0.574,1.1 1.104,2.226 1.595,3.366 0.994,2.305 2.514,4.16 4.656,5.459 0.602,0.367 0.867,0.762 0.766,1.441 -0.035,0.237 -0.006,0.484 -0.006,0.773 -2.464,-0.226 -4.467,-1.115 -5.615,-3.38 -0.441,-0.87 -0.75,-1.807 -1.147,-2.702 -0.814,-1.839 -1.813,-3.562 -3.283,-4.967 -1.553,-1.484 -3.376,-1.993 -5.465,-1.438 -3.674,0.976 -5.51,3.444 -5.579,7.362 -0.065,3.674 1.255,6.848 3.404,9.733 0.264,0.353 0.342,0.648 0.233,1.08 -0.061,0.243 0.117,0.549 0.188,0.827 0.051,-0.007 0.102,-0.014 0.154,-0.021 z"
         id="path323" />
      <path
         style="fill:#2a2729;fill-rule:evenodd"
         inkscape:connector-curvature="0"
         clip-rule="evenodd"
         d="m 75.73,47.09 c -0.466,-1.016 -0.956,-2.021 -1.393,-3.05 -0.508,-1.194 -0.854,-2.47 -1.472,-3.6 -2.04,-3.728 -5.283,-5.729 -9.481,-6.027 -4.322,-0.309 -8.08,1.14 -11.182,4.164 -2.048,1.996 -3.006,4.532 -3.238,7.337 -0.304,3.643 -0.524,7.292 -0.815,10.937 -0.088,1.104 -0.261,2.206 -0.461,3.298 -0.08,0.437 -0.334,0.843 -0.51,1.262 -0.06,-0.014 -0.119,-0.027 -0.179,-0.041 0,-0.366 -0.001,-0.733 0,-1.099 0.01,-4.054 0.105,-8.11 10e-4,-12.162 -0.074,-2.86 0.377,-5.553 1.769,-8.05 2.229,-4 5.631,-6.315 10.166,-7.006 2.559,-0.391 5.078,-0.253 7.545,0.487 2.416,0.724 4.359,2.211 5.977,4.104 2.248,2.629 3.398,5.698 3.458,9.164 0.002,0.072 -0.012,0.145 -0.02,0.217 -0.055,0.021 -0.11,0.043 -0.165,0.065 z"
         id="path325" />
      <path
         style="fill:#2a2729;fill-rule:evenodd"
         inkscape:connector-curvature="0"
         clip-rule="evenodd"
         d="m 75.876,57.124 c -4.246,-0.314 -7.25,-2.259 -8.88,-6.146 -0.437,-1.04 -0.767,-2.125 -1.147,-3.188 -0.075,-0.213 -0.146,-0.428 -0.227,-0.64 -0.72,-1.888 -1.992,-2.831 -3.799,-2.815 -1.858,0.015 -3.388,1.115 -4.036,2.906 -0.475,1.313 -0.473,2.626 0.053,3.92 0.333,0.817 0.867,1.588 1.027,2.433 0.161,0.843 -0.029,1.753 -0.067,2.633 -0.006,0.165 -0.02,0.329 -0.031,0.491 -0.066,-0.003 -0.122,0.007 -0.132,-0.008 -1.361,-2.376 -2.449,-4.865 -2.538,-7.641 -0.085,-2.646 0.947,-4.787 3.35,-6.092 1.973,-1.072 4.303,-0.594 5.98,1.141 0.879,0.91 1.486,1.986 1.966,3.144 0.417,1.009 0.841,2.015 1.237,3.033 1.058,2.727 3.116,4.165 5.934,4.617 1.309,0.21 1.313,0.191 1.311,1.532 -10e-4,0.202 -10e-4,0.407 -10e-4,0.68 z"
         id="path327" />
      <path
         style="fill:#2a2729;fill-rule:evenodd"
         inkscape:connector-curvature="0"
         clip-rule="evenodd"
         d="m 59.534,51.719 c -0.606,-1.257 -0.829,-2.615 -0.5,-4.014 0.354,-1.506 1.756,-2.4 3.287,-2.207 0.649,0.082 1.16,0.389 1.426,0.976 0.496,1.095 1,2.193 1.394,3.326 0.739,2.127 1.679,4.116 3.394,5.647 1.961,1.754 4.316,2.554 6.879,2.854 0.129,0.015 0.258,0.032 0.424,0.055 0,0.719 0,1.427 0,2.202 -0.967,-0.269 -1.917,-0.538 -2.871,-0.797 -2.349,-0.637 -4.587,-1.5 -6.384,-3.221 -0.967,-0.927 -1.881,-1.89 -2.188,-3.281 -0.111,-0.503 -0.446,-0.953 -0.625,-1.444 -0.141,-0.38 -0.212,-0.788 -0.281,-1.188 -0.019,-0.109 0.047,-0.264 0.127,-0.351 0.144,-0.158 0.468,-0.282 0.466,-0.418 -0.003,-0.482 -0.037,-0.991 -0.2,-1.439 -0.2,-0.555 -0.641,-1.028 -0.42,-1.696 0.02,-0.063 -0.209,-0.306 -0.303,-0.294 -0.998,0.123 -2.044,0.065 -2.914,0.724 -0.56,0.424 -0.665,0.747 -0.41,1.413 0.067,0.176 0.144,0.348 0.222,0.519 0.444,0.978 0.654,1.921 -0.523,2.634 z"
         id="path329" />
      <path
         style="fill:#2a2729;fill-rule:evenodd"
         inkscape:connector-curvature="0"
         clip-rule="evenodd"
         d="m 53.411,57.454 c 1.906,1.925 2.271,3.9 1.218,6.259 -1.077,2.414 -3.125,3.663 -5.49,4.644 -0.278,-0.522 -0.531,-0.998 -0.802,-1.504 0.19,-0.132 0.335,-0.251 0.496,-0.34 2.525,-1.382 3.755,-3.591 4.11,-6.379 0.113,-0.874 0.302,-1.739 0.468,-2.68 z"
         id="path331" />
      <path
         style="fill:#2a2729;fill-rule:evenodd"
         inkscape:connector-curvature="0"
         clip-rule="evenodd"
         d="m 65.078,60.633 c 2.94,2.367 6.519,3.326 10.312,3.847 -0.25,0.724 -0.456,1.322 -0.698,2.02 -1.435,-0.36 -2.841,-0.683 -4.229,-1.069 -2.021,-0.564 -3.942,-1.377 -5.734,-2.482 -0.632,-0.39 -0.667,-0.854 -0.168,-1.396 0.213,-0.234 0.322,-0.563 0.517,-0.92 z"
         id="path333" />
      <path
         style="fill:#2a2729;fill-rule:evenodd"
         inkscape:connector-curvature="0"
         clip-rule="evenodd"
         d="m 75.815,61.841 c -0.067,0.54 -0.128,1.032 -0.21,1.69 -1.257,-0.272 -2.457,-0.475 -3.623,-0.799 -2.493,-0.696 -4.76,-1.861 -6.764,-3.507 -0.195,-0.161 -0.339,-0.481 -0.361,-0.739 -0.052,-0.614 -0.016,-1.235 -0.016,-1.976 2.952,3.3 6.624,4.961 10.974,5.331 z"
         id="path335" />
      <path
         style="fill:#2a2729;fill-rule:evenodd"
         inkscape:connector-curvature="0"
         clip-rule="evenodd"
         d="m 56.644,62.289 c 0.741,0.621 1.486,1.145 2.097,1.797 0.326,0.349 0.789,0.769 0.541,1.42 -0.072,0.189 0.019,0.441 0.043,0.779 -0.747,-0.67 -1.433,-1.286 -2.162,-1.94 -0.486,0.862 -0.954,1.656 -1.389,2.466 -1,1.869 -2.597,2.993 -4.547,3.671 -0.157,0.055 -0.417,-0.047 -0.569,-0.157 -0.193,-0.14 -0.328,-0.361 -0.483,-0.551 -0.105,-0.131 -0.202,-0.268 -0.358,-0.477 3.495,-1.157 5.779,-3.476 6.827,-7.008 z"
         id="path337" />
      <path
         style="fill:#2a2729;fill-rule:evenodd"
         inkscape:connector-curvature="0"
         clip-rule="evenodd"
         d="m 63.704,65.827 c 0.13,-0.666 0.251,-1.288 0.388,-1.988 3.094,1.913 6.425,3.082 10.092,3.681 -0.25,0.408 -0.443,0.762 -0.681,1.085 -0.063,0.084 -0.273,0.11 -0.401,0.087 -3.06,-0.563 -6.083,-1.256 -8.912,-2.606 -0.152,-0.074 -0.297,-0.159 -0.486,-0.259 z"
         id="path339" />
      <path
         style="fill:#2a2729;fill-rule:evenodd"
         inkscape:connector-curvature="0"
         clip-rule="evenodd"
         d="m 63.435,66.982 c 2.937,1.431 5.959,2.325 9.198,2.883 -0.43,0.457 -0.772,0.854 -1.157,1.205 -0.113,0.104 -0.354,0.129 -0.523,0.102 -2.67,-0.428 -5.27,-1.098 -7.729,-2.25 -0.084,-0.04 -0.163,-0.092 -0.3,-0.172 0.164,-0.562 0.327,-1.13 0.511,-1.768 z"
         id="path341" />
      <path
         style="fill:#2a2729;fill-rule:evenodd"
         inkscape:connector-curvature="0"
         clip-rule="evenodd"
         d="m 70.157,72.284 c -0.668,0.405 -1.331,0.82 -2.01,1.207 -0.128,0.072 -0.337,0.08 -0.482,0.034 -1.556,-0.492 -3.124,-0.958 -4.655,-1.519 -1.018,-0.374 -1.172,-1.163 -0.486,-2.111 2.382,1.192 4.906,1.96 7.633,2.389 z"
         id="path343" />
      <path
         style="fill:#2a2729;fill-rule:evenodd"
         inkscape:connector-curvature="0"
         clip-rule="evenodd"
         d="m 57.521,66.522 c 0.625,0.483 1.201,0.907 1.742,1.37 0.118,0.101 0.177,0.36 0.148,0.526 -0.07,0.404 -0.207,0.798 -0.319,1.207 -0.009,0.002 -0.049,0.02 -0.073,0.009 -1.18,-0.582 -1.5,-0.522 -2.408,0.441 -0.297,0.316 -0.576,0.61 -1.082,0.657 -0.36,0.033 -0.7,0.301 -1.048,0.467 -0.067,0.031 -0.132,0.092 -0.201,0.093 -0.426,0.009 -0.853,0.005 -1.303,-0.034 2.047,-1.044 3.488,-2.662 4.544,-4.736 z"
         id="path345" />
      <path
         style="fill:#2a2729;fill-rule:evenodd"
         inkscape:connector-curvature="0"
         clip-rule="evenodd"
         d="m 63.967,74.431 c -0.188,-0.336 -0.336,-0.604 -0.538,-0.969 0.517,0.179 0.934,0.324 1.439,0.499 -0.333,0.174 -0.595,0.31 -0.901,0.47 z"
         id="path347" />
    </g>
  </g>
</svg>
