<?xml version="1.0" encoding="UTF-8" standalone="no"?>
<!-- Created with Inkscape (http://www.inkscape.org/) -->

<svg
   xmlns:dc="http://purl.org/dc/elements/1.1/"
   xmlns:cc="http://creativecommons.org/ns#"
   xmlns:rdf="http://www.w3.org/1999/02/22-rdf-syntax-ns#"
   xmlns:svg="http://www.w3.org/2000/svg"
   xmlns="http://www.w3.org/2000/svg"
   xmlns:sodipodi="http://sodipodi.sourceforge.net/DTD/sodipodi-0.dtd"
   xmlns:inkscape="http://www.inkscape.org/namespaces/inkscape"
   width="55"
   height="100"
   id="svg4578"
   version="1.1"
   inkscape:version="0.48.5 r10040"
   sodipodi:docname="Documento nuevo 20">
  <defs
     id="defs4580" />
  <sodipodi:namedview
     id="base"
     pagecolor="#ffffff"
     bordercolor="#666666"
     borderopacity="1.0"
     inkscape:pageopacity="0.0"
     inkscape:pageshadow="2"
     inkscape:zoom="3.959798"
     inkscape:cx="44.325326"
     inkscape:cy="54.211374"
     inkscape:document-units="px"
     inkscape:current-layer="layer1"
     showgrid="false"
     inkscape:window-width="1280"
     inkscape:window-height="734"
     inkscape:window-x="0"
     inkscape:window-y="27"
     inkscape:window-maximized="1" />
  <metadata
     id="metadata4583">
    <rdf:RDF>
      <cc:Work
         rdf:about="">
        <dc:format>image/svg+xml</dc:format>
        <dc:type
           rdf:resource="http://purl.org/dc/dcmitype/StillImage" />
        <dc:title></dc:title>
      </cc:Work>
    </rdf:RDF>
  </metadata>
  <g
     inkscape:label="Capa 1"
     inkscape:groupmode="layer"
     id="layer1"
     transform="translate(0,-952.36218)">
    <g
       transform="translate(-655.73018,-2697.8158)"
       style="opacity:0.2"
       id="g1183">
      <g
         id="g1185">
        <path
           style="fill:#62163b"
           inkscape:connector-curvature="0"
           d="m 709.101,3669.431 c -1.727,-7.103 -7.843,-13.521 -14.56,-16.125 -9.19,-3.563 -19.549,0.613 -26.648,6.844 -0.113,-0.033 -0.225,-0.061 -0.336,-0.08 -0.239,-0.04 -0.48,0.193 -0.333,0.433 0.032,0.052 0.069,0.102 0.104,0.153 -0.397,0.364 -0.785,0.732 -1.158,1.107 -2.613,2.621 -4.802,5.849 -6.164,9.313 -0.187,0.074 -0.239,0.28 -0.167,0.44 -0.931,2.511 -1.419,5.137 -1.315,7.737 -0.498,0.336 -0.971,0.691 -1.41,1.053 -0.336,0.276 0.092,0.764 0.445,0.578 0.353,-0.188 0.698,-0.387 1.037,-0.592 0.27,2.629 1.173,5.211 2.868,7.606 -0.015,0.237 0.101,0.478 0.366,0.514 2.743,0.378 5.459,-0.44 7.969,-1.508 0.495,-0.211 0.559,-0.892 0.343,-1.308 -2.865,-5.499 -1.401,-11.128 3.58,-14.742 2.314,-1.678 5.176,-2.865 8.112,-3.293 0.079,0.083 0.154,0.171 0.24,0.249 0.12,0.108 0.328,-0.033 0.232,-0.178 -0.025,-0.039 -0.048,-0.082 -0.073,-0.121 2.216,-0.271 4.461,-0.111 6.534,0.609 3.858,1.339 5.358,5.022 5.008,8.664 -0.191,0 -0.381,-0.01 -0.571,0 -0.144,0 -0.142,0.211 0,0.221 0.18,0.012 0.361,0.035 0.541,0.051 -0.169,1.396 -0.608,2.778 -1.293,4.01 -0.657,1.183 -1.456,2.281 -2.346,3.321 -0.174,-0.08 -0.347,-0.16 -0.522,-0.239 -0.128,-0.057 -0.238,0.122 -0.11,0.191 0.152,0.083 0.305,0.167 0.457,0.25 -3.359,3.847 -7.98,6.867 -11.653,10.16 -0.158,0.142 -0.313,0.282 -0.469,0.425 -0.397,-0.024 -0.782,-0.031 -1.143,-0.017 -0.143,0.01 -0.141,0.211 0,0.221 0.281,0.02 0.557,0.05 0.831,0.088 -5.448,5.095 -9.631,11.317 -9.353,19.095 0.013,0.378 0.205,0.85 0.581,1.013 2.124,0.926 4.474,1.057 6.779,1.077 0.247,0.832 1.343,1.4 2.021,0.605 1.927,-2.258 4.302,-4.096 6.114,-6.457 1.806,-2.354 4.362,-4.969 6.633,-7.245 5.121,-5.13 10.377,-10.146 14.486,-16.163 3.587,-5.261 5.891,-11.593 4.343,-17.959 z m -42.09,13.465 c -1.292,1.48 -3.493,2.107 -5.212,2.895 -0.384,0.176 -0.049,0.771 0.333,0.572 1.693,-0.886 3.781,-1.606 4.958,-3.183 0.242,0.84 0.555,1.666 0.936,2.467 -1.896,0.868 -3.838,1.297 -5.894,1.709 -1.392,-2.723 -1.88,-5.511 -1.669,-8.245 1.573,-0.989 3.172,-1.87 5.176,-2.001 0.281,-0.019 0.287,-0.446 0,-0.441 -1.696,0.028 -3.444,0.572 -5.058,1.376 0.289,-2.035 0.953,-4.034 1.903,-5.945 0.828,0.07 1.663,0.118 2.466,0.269 1.144,0.213 2.269,0.53 3.385,0.862 -0.022,0.036 -0.048,0.069 -0.072,0.105 -1.88,2.977 -2.11,6.356 -1.252,9.56 z m 1.698,-10.221 c -1.704,-0.646 -3.694,-1.434 -5.619,-1.716 1.728,-3.052 4.164,-5.847 6.929,-8.182 0.379,0.228 0.748,0.451 1.076,0.684 1.591,1.122 3.119,2.328 4.58,3.611 -2.739,1.268 -5.222,3.156 -6.966,5.603 z m 12.554,-7.298 c -0.255,-0.734 -0.475,-1.481 -0.706,-2.15 -0.483,-1.396 -0.738,-3.916 -1.821,-4.945 -0.166,-0.157 -0.51,-0.112 -0.554,0.146 -0.267,1.599 1.191,3.998 1.778,5.475 0.201,0.51 0.4,1.057 0.627,1.593 -0.642,0.125 -1.271,0.275 -1.878,0.449 -0.879,0.25 -1.749,0.564 -2.596,0.933 -1.278,-1.289 -2.621,-2.507 -4.011,-3.678 -0.379,-0.318 -0.799,-0.71 -1.248,-1.109 3.08,-2.44 6.505,-4.307 9.779,-5.326 3.48,-1.083 7.029,-1.249 10.343,-0.463 0.047,1.426 0.232,2.836 0.022,4.301 -0.265,1.845 -0.735,3.522 -1.629,5.169 -0.018,0.033 -0.024,0.064 -0.024,0.094 -2.534,-0.883 -5.405,-0.927 -8.082,-0.489 z m -10.787,48.382 c 0.007,-3.462 0.898,-6.383 2.349,-8.967 1.24,0.224 2.471,0.553 3.681,0.871 0.72,0.189 1.474,0.535 2.231,0.768 -1.737,2.374 -2.996,4.972 -3.263,7.874 -1.671,0.01 -3.44,-0.022 -4.998,-0.546 z m 9.063,-8.371 c -0.871,-0.366 -1.885,-0.52 -2.756,-0.731 -1.24,-0.301 -2.437,-0.386 -3.659,-0.381 1.812,-3.016 4.383,-5.575 7.176,-8.014 0.072,0.032 0.142,0.062 0.213,0.097 1.381,0.675 2.137,1.888 3.292,2.79 0.208,0.163 0.594,0.024 0.491,-0.286 -0.515,-1.553 -1.875,-2.524 -3.436,-3.085 1.58,-1.356 3.216,-2.683 4.819,-4.037 1.152,0.173 2.171,0.718 3.107,1.591 0.593,0.555 0.932,1.21 1.228,1.883 -0.659,0.598 -1.317,1.198 -1.97,1.802 -2.723,2.526 -5.98,5.253 -8.505,8.371 z m 24.755,-26.438 c -1.321,3.468 -4.171,6.508 -6.704,9.126 -2.134,2.207 -4.412,4.271 -6.688,6.333 -0.562,-0.896 -1.318,-1.702 -1.982,-2.239 -0.755,-0.609 -1.658,-0.912 -2.591,-0.984 2.019,-1.732 3.959,-3.523 5.628,-5.493 0.435,0.237 0.87,0.476 1.306,0.713 1.079,0.589 2.38,1.645 3.613,1.802 0.27,0.035 0.368,-0.336 0.208,-0.502 -0.829,-0.858 -2.474,-1.271 -3.552,-1.761 -0.431,-0.197 -0.862,-0.393 -1.293,-0.59 0.743,-0.903 1.428,-1.844 2.036,-2.835 0.948,-1.544 1.564,-3.319 1.797,-5.133 2.112,0.407 4.196,1.052 6.208,1.731 0.496,0.166 0.713,-0.624 0.215,-0.78 -2.085,-0.66 -4.208,-1.184 -6.371,-1.422 0.237,-2.56 -0.298,-5.164 -1.741,-7.28 1.373,-0.086 2.698,-0.44 3.858,-1.247 1.246,-0.866 2.772,-2.764 2.64,-4.36 -0.028,-0.336 -0.424,-0.441 -0.616,-0.167 -0.386,0.544 -0.506,1.192 -0.789,1.797 -0.341,0.731 -0.853,1.355 -1.434,1.907 -1.06,1.007 -2.463,1.521 -3.889,1.749 -0.345,-0.465 -0.735,-0.905 -1.176,-1.312 -0.98,-0.904 -2.106,-1.561 -3.316,-2.022 0.007,-0.01 0.017,-0.012 0.022,-0.021 1.833,-2.479 3.12,-6.086 2.599,-9.291 2.612,0.837 5.046,2.289 7.134,4.4 4.865,4.915 7.419,11.209 4.878,17.881 z"
           id="path1187" />
        <path
           style="fill:#62163b"
           inkscape:connector-curvature="0"
           d="m 673.441,3725.676 c -4.382,-1.976 -9.183,-0.713 -10.49,4.264 -0.06,0.224 -0.013,0.455 0.098,0.651 -0.393,0.428 -0.756,0.881 -1.093,1.352 -0.041,0.01 -0.079,0.041 -0.063,0.088 l 0,0 c -2.592,3.702 -3.318,8.568 -0.23,12.478 0.058,0.075 0.123,0.143 0.183,0.213 -0.013,0.02 -0.027,0.039 -0.041,0.058 -0.124,0.181 0.139,0.351 0.282,0.22 1.305,1.388 3.073,2.221 4.92,2.743 -0.577,0.817 -1.115,1.653 -1.592,2.511 -0.139,0.25 0.203,0.534 0.404,0.312 0.751,-0.826 1.456,-1.694 2.142,-2.581 0.762,0.172 1.528,0.3 2.269,0.396 3.017,0.395 6.17,0.331 8.937,-1.062 4.427,-2.226 4.594,-7.699 3.047,-11.785 -1.55,-4.095 -4.719,-8.03 -8.773,-9.858 z m 4.305,9.722 c -0.976,-1.14 -1.984,-2.259 -2.824,-3.441 -0.08,-0.115 -0.27,-0.01 -0.191,0.11 0.885,1.361 1.828,2.751 2.815,4.102 -0.802,0.729 -1.588,1.476 -2.358,2.239 -1.648,-1.372 -3.123,-2.859 -4.381,-4.542 1.021,-1.019 2.079,-2.007 3.171,-2.969 0.158,0.129 0.315,0.263 0.472,0.405 1.189,1.07 2.388,2.51 3.296,4.096 z m -3.77,-4.502 c -1.11,0.921 -2.17,1.908 -3.186,2.946 -1.057,-1.416 -1.957,-2.971 -2.683,-4.71 2,-0.388 3.918,0.173 5.869,1.764 z m -7.938,-0.59 c 0.331,-0.326 0.682,-0.626 1.05,-0.9 0.136,-0.047 0.271,-0.087 0.405,-0.126 0.667,1.843 1.541,3.631 2.628,5.265 -0.199,0.211 -0.401,0.421 -0.596,0.636 0.199,-0.209 0.402,-0.416 0.605,-0.623 1.176,1.768 2.599,3.354 4.269,4.633 -0.658,0.672 -1.306,1.355 -1.943,2.051 -0.436,0.478 -0.876,0.963 -1.316,1.453 -1.618,-1.343 -3.127,-2.662 -4.49,-4.086 0.918,-1.176 1.874,-2.325 2.875,-3.427 -1.024,1.079 -2.01,2.19 -2.966,3.329 -1.205,-1.269 -2.294,-2.625 -3.245,-4.16 0.69,-1.58 1.682,-3.019 2.724,-4.045 z m -2.948,4.585 c 0.765,1.582 1.69,3.092 2.808,4.422 -0.775,0.951 -1.53,1.919 -2.266,2.909 -1.668,-1.996 -1.518,-4.796 -0.542,-7.331 z m 1.833,8.469 c -0.424,-0.276 -0.785,-0.583 -1.096,-0.914 0.704,-1.011 1.431,-2.016 2.184,-3.004 1.306,1.525 2.873,2.804 4.74,3.685 -0.525,0.588 -1.042,1.187 -1.552,1.796 -1.752,-0.365 -3.322,-0.942 -4.276,-1.563 z m 14.142,-1.235 c -0.899,3.087 -5.158,3.557 -8.927,2.966 0.875,-1.181 1.756,-2.355 2.694,-3.475 0.619,-0.74 1.256,-1.464 1.906,-2.176 1.125,0.816 2.354,1.501 3.695,2.006 0.288,0.108 0.427,-0.315 0.198,-0.47 -1.105,-0.748 -2.155,-1.519 -3.147,-2.328 0.724,-0.77 1.466,-1.524 2.224,-2.261 0.381,0.517 0.767,1.028 1.162,1.529 0.451,1.428 0.584,2.877 0.195,4.209 z"
           id="path1189" />
      </g>
    </g>
  </g>
</svg>
