<?xml version="1.0" encoding="UTF-8" standalone="no"?>
<!-- Created with Inkscape (http://www.inkscape.org/) -->

<svg
   xmlns:dc="http://purl.org/dc/elements/1.1/"
   xmlns:cc="http://creativecommons.org/ns#"
   xmlns:rdf="http://www.w3.org/1999/02/22-rdf-syntax-ns#"
   xmlns:svg="http://www.w3.org/2000/svg"
   xmlns="http://www.w3.org/2000/svg"
   xmlns:sodipodi="http://sodipodi.sourceforge.net/DTD/sodipodi-0.dtd"
   xmlns:inkscape="http://www.inkscape.org/namespaces/inkscape"
   width="182"
   height="80"
   id="svg4666"
   version="1.1"
   inkscape:version="0.48.5 r10040"
   sodipodi:docname="Documento nuevo 24">
  <defs
     id="defs4668" />
  <sodipodi:namedview
     id="base"
     pagecolor="#ffffff"
     bordercolor="#666666"
     borderopacity="1.0"
     inkscape:pageopacity="0.0"
     inkscape:pageshadow="2"
     inkscape:zoom="1.979899"
     inkscape:cx="115.22025"
     inkscape:cy="54.655921"
     inkscape:document-units="px"
     inkscape:current-layer="layer1"
     showgrid="false"
     inkscape:window-width="1280"
     inkscape:window-height="734"
     inkscape:window-x="0"
     inkscape:window-y="27"
     inkscape:window-maximized="1" />
  <metadata
     id="metadata4671">
    <rdf:RDF>
      <cc:Work
         rdf:about="">
        <dc:format>image/svg+xml</dc:format>
        <dc:type
           rdf:resource="http://purl.org/dc/dcmitype/StillImage" />
        <dc:title></dc:title>
      </cc:Work>
    </rdf:RDF>
  </metadata>
  <g
     inkscape:label="Capa 1"
     inkscape:groupmode="layer"
     id="layer1"
     transform="translate(0,-972.36218)">
    <g
       transform="translate(-871.26386,-3068.1167)"
       id="g1527">
      <g
         id="g1529">
        <path
           style="fill:#62163b"
           inkscape:connector-curvature="0"
           d="m 983.516,4093.689 c -1.303,-2.618 -2.484,-6.886 -4.966,-8.283 -0.035,-0.448 -0.271,-0.854 -0.753,-0.918 -9.539,-1.234 -19.18,-1.471 -28.739,-2.505 -4.537,-0.491 -9.185,-1.085 -13.559,-2.49 -2.163,-0.695 -5.154,-1.975 -5.405,-5.076 -0.41,-5.045 6.24,-10.696 9.021,-13.445 3.881,-3.838 8.095,-7.201 11.714,-11.418 0.284,-0.331 0.418,-0.821 0.163,-1.214 -1.031,-1.6 -1.965,-3.636 -3.433,-4.696 0.097,-0.785 -0.458,-1.637 -1.231,-1.185 -6.462,3.792 -12.412,8.772 -17.97,14.306 -2.926,2.913 -5.75,6.022 -8.325,9.383 -1.138,1.486 -3.094,3.63 -4.298,5.806 0.163,-2.666 0.229,-5.334 0.169,-7.996 -0.014,-0.554 -0.449,-1.024 -0.89,-1.072 -2.677,-0.294 -5.337,-0.565 -8.018,-0.719 0.106,-0.902 0.177,-1.799 0.166,-2.638 0.127,-0.143 0.098,-0.363 -0.017,-0.464 -0.043,-0.877 -0.19,-1.669 -0.488,-2.311 0.198,-0.211 0.386,-0.454 0.561,-0.738 0.293,-0.482 0.196,-1.189 -0.271,-1.405 -3.816,-1.772 -8.562,-1.321 -12.684,-2.141 -4.122,-0.818 -8.377,-2.719 -12.565,-2.966 -0.201,-0.146 -0.525,-0.089 -0.616,0.226 -3.108,10.666 -4.372,22.442 -5.788,33.467 -0.784,6.104 -1.533,12.237 -1.89,18.375 -0.095,1.633 -0.468,4.529 0.04,6.578 -0.227,0.133 -0.26,0.617 0.001,0.713 0.092,0.034 0.186,0.063 0.278,0.095 0.206,0.472 0.489,0.856 0.866,1.124 0.011,0.73 0.855,1.163 1.833,1.462 0.094,0.301 0.191,0.598 0.289,0.889 0.099,0.297 0.413,0.393 0.634,0.188 0.235,-0.219 0.455,-0.447 0.665,-0.688 0.479,0.104 0.89,0.194 1.127,0.294 1.103,0.463 2.324,0.663 3.575,0.721 0.059,0.02 0.123,0.021 0.187,0.01 1.604,0.059 3.248,-0.103 4.746,-0.23 0.878,-0.075 1.747,-0.14 2.608,-0.184 1.676,0.29 3.358,0.522 5.047,0.602 0.423,0.021 0.766,-0.134 1.027,-0.385 0.552,0.085 1.107,0.179 1.664,0.307 0.966,0.225 2.151,-0.857 2.228,-2.065 0.003,-0.051 0.007,-0.1 0.01,-0.15 0.768,-1.321 1.129,-3.305 1.343,-5.323 2.55,1.247 5.563,1.225 8.242,0.162 1.486,-0.591 1.538,-2.379 0.816,-3.505 0.021,-0.231 0.042,-0.463 0.061,-0.695 0.257,-1.025 0.509,-2.054 0.756,-3.087 8.959,3.283 19.032,3.759 28.338,4.598 11.408,1.026 22.868,1.521 34.229,2.98 0.959,0.123 1.42,-1.084 1.155,-1.899 3.01,-2.24 5.573,-6.081 8.121,-8.719 0.451,-0.469 0.506,-1.106 0.226,-1.673 z m -87.795,7.781 c 0.002,-0.136 0,-0.271 0.002,-0.404 0.068,-0.446 0.13,-0.893 0.194,-1.34 0.356,-0.462 0.621,-0.836 0.719,-1.044 0.129,-0.278 -0.147,-0.59 -0.373,-0.456 -0.051,0.032 -0.104,0.055 -0.155,0.083 0.071,-0.546 0.137,-1.091 0.199,-1.638 0.182,-0.732 0.341,-1.468 0.476,-2.209 0.011,-0.021 0.022,-0.042 0.032,-0.063 0.282,-0.241 0.566,-0.478 0.854,-0.709 -0.39,2.126 -0.764,4.249 -1.082,6.374 -0.261,0.494 -0.551,0.961 -0.866,1.406 z m -18.99,6.54 c 0.016,-0.152 0.028,-0.302 0.042,-0.45 0.367,0.17 0.737,0.328 1.113,0.472 -0.385,-0.013 -0.769,-0.02 -1.155,-0.022 z m 20.907,-50.379 c -0.098,0.052 -0.186,0.133 -0.24,0.249 -0.037,0.076 -0.066,0.155 -0.103,0.231 -0.326,0.228 -0.649,0.466 -0.969,0.707 -0.163,-0.249 -0.33,-0.498 -0.506,-0.742 0.178,-0.313 0.366,-0.611 0.563,-0.903 0.413,0.079 0.825,0.164 1.239,0.231 0.005,0.075 0.012,0.152 0.016,0.227 z m 2.48,0.135 c 0.267,0.031 0.534,0.054 0.8,0.081 -0.162,0.106 -0.325,0.215 -0.488,0.319 -0.102,-0.135 -0.207,-0.267 -0.312,-0.4 z m 2.502,17.236 c -0.017,0.01 -0.031,0.018 -0.047,0.025 -0.002,-0.152 -0.007,-0.305 -0.009,-0.457 0.066,-0.191 0.129,-0.386 0.193,-0.578 -0.042,0.337 -0.09,0.674 -0.137,1.01 z m -21.635,30.015 c 0.013,-0.073 0.028,-0.146 0.042,-0.22 0.086,0.688 0.188,1.37 0.3,2.045 -0.031,0.018 -0.063,0.037 -0.096,0.055 -10e-4,-0.586 -0.106,-1.174 -0.246,-1.88 z m -4.085,0.889 c 0.189,0.059 0.378,0.117 0.567,0.177 -0.192,0.013 -0.386,0.017 -0.579,0.011 0.004,-0.063 0.008,-0.125 0.012,-0.188 z m 1.961,-28.375 c 0.032,-0.248 0.063,-0.494 0.095,-0.74 0.085,-0.063 0.173,-0.124 0.259,-0.189 -0.007,0.078 -0.012,0.154 -0.019,0.229 -0.113,0.232 -0.228,0.464 -0.335,0.7 z m 23.807,-15.61 c 0.032,-0.021 0.065,-0.038 0.097,-0.058 -0.072,0.054 -0.145,0.106 -0.217,0.16 0.004,-0.012 0.007,-0.024 0.01,-0.036 0.036,-0.02 0.075,-0.045 0.11,-0.066 z m -16.065,42.372 c -0.041,0.015 -0.082,0.023 -0.122,0.035 0.039,-0.05 0.077,-0.1 0.117,-0.149 0.002,0.037 0.002,0.077 0.005,0.114 z m -1.359,-45.291 c 0.037,0.456 0.063,0.915 0.073,1.373 -0.174,0.317 -0.326,0.66 -0.466,1.014 -0.343,-0.336 -0.653,-0.701 -0.929,-1.093 -0.01,-0.054 -0.019,-0.11 -0.029,-0.165 0.434,-0.397 0.867,-0.79 1.31,-1.172 0.014,0.014 0.026,0.029 0.041,0.043 z m 0.765,44.428 c -0.017,-0.688 -0.029,-1.378 -0.048,-2.066 0.078,-0.064 0.155,-0.129 0.23,-0.195 0.147,0.378 0.295,0.757 0.455,1.127 -0.02,0.169 -0.039,0.336 -0.049,0.506 -0.134,0.153 -0.273,0.299 -0.405,0.458 -0.062,0.053 -0.121,0.11 -0.183,0.17 z m -2.273,-0.013 c 0.007,0.029 0.014,0.056 0.021,0.084 -0.011,-0.01 -0.02,-0.019 -0.03,-0.029 0.003,-0.018 0.007,-0.037 0.009,-0.055 z m 7.057,-43.128 c 0.066,0.045 0.133,0.085 0.201,0.134 0.009,0.01 0.017,0.013 0.025,0.02 0.005,0.267 0.013,0.535 0.013,0.804 -0.487,-0.099 -0.982,-0.184 -1.48,-0.256 0.225,-0.201 0.45,-0.403 0.673,-0.604 0.19,-0.026 0.379,-0.058 0.568,-0.098 z m -1.277,38.936 c -0.014,-0.06 -0.024,-0.122 -0.038,-0.181 0.019,-0.039 0.042,-0.075 0.06,-0.114 -0.008,0.097 -0.013,0.197 -0.022,0.295 z m -4.795,1.889 c -0.039,-0.25 -0.075,-0.501 -0.111,-0.75 0.131,-0.05 0.262,-0.101 0.394,-0.16 -0.031,0.25 -0.061,0.5 -0.089,0.749 -0.065,0.052 -0.129,0.109 -0.194,0.161 z m -4.692,-10.149 c -0.011,-0.192 -0.019,-0.387 -0.027,-0.579 0.049,-0.064 0.098,-0.127 0.146,-0.191 -0.038,0.273 -0.074,0.544 -0.112,0.816 -0.003,-0.016 -0.005,-0.031 -0.007,-0.046 z m -0.887,1.544 c -0.045,0.014 -0.089,0.035 -0.128,0.071 -0.003,-0.203 0,-0.405 -0.002,-0.608 0.027,-0.054 0.055,-0.107 0.083,-0.161 0.016,0.233 0.029,0.464 0.047,0.698 z m 21.981,-19.464 c 0.018,-0.043 0.036,-0.088 0.054,-0.131 -0.018,0.091 -0.035,0.183 -0.055,0.274 0.001,-0.048 0,-0.096 0.001,-0.143 z m -2.79,8.05 c -0.004,0 -0.008,0.01 -0.011,0.011 0.076,-0.495 0.159,-0.988 0.237,-1.482 0.009,0 0.017,-0.01 0.025,-0.012 0.195,0.03 0.328,0.091 0.401,0.18 -0.211,0.441 -0.431,0.873 -0.652,1.303 z m -5.935,18.694 c -0.006,0 -0.013,0 -0.02,0.01 0.003,-0.151 0.007,-0.302 0.011,-0.453 0.007,0.137 0.009,0.276 0.021,0.414 -0.004,0.012 -0.009,0.022 -0.012,0.034 z m -10.662,-32.564 c 0.251,-0.39 0.509,-0.777 0.766,-1.16 -0.006,0.316 -0.017,0.633 -0.025,0.948 -0.274,0.304 -0.545,0.614 -0.813,0.93 0.024,-0.24 0.048,-0.479 0.072,-0.718 z m 1.553,-2.329 c 0.097,-0.143 0.192,-0.286 0.288,-0.429 0.017,0.454 0.015,0.91 0.017,1.366 -0.109,0.111 -0.222,0.223 -0.33,0.336 0.009,-0.425 0.021,-0.849 0.025,-1.273 z m 9.775,28.82 c -0.091,-0.162 -0.226,-0.284 -0.381,-0.335 0.027,-0.395 0.058,-0.788 0.087,-1.183 0.145,-0.396 0.298,-0.793 0.456,-1.188 -10e-4,0.875 0.002,1.75 0.015,2.625 -0.063,0.015 -0.12,0.044 -0.177,0.081 z m -11.321,-18.027 c 0.034,0.293 0.065,0.585 0.099,0.877 -0.004,0.043 -0.007,0.088 -0.014,0.132 -0.025,0.028 -0.052,0.054 -0.079,0.082 10e-4,-0.362 -0.009,-0.728 -0.006,-1.091 z m 3.399,-6.03 c -0.191,0.149 -0.382,0.308 -0.571,0.465 0.062,-0.405 0.131,-0.81 0.194,-1.215 0.052,-0.055 0.102,-0.114 0.146,-0.201 0.187,-0.367 0.352,-0.741 0.507,-1.118 -0.1,0.687 -0.193,1.377 -0.276,2.069 z m 4.048,0.771 c 0.313,-0.105 0.641,-0.182 0.986,-0.224 -0.013,0.124 -0.027,0.248 -0.039,0.373 -0.127,0.069 -0.254,0.144 -0.381,0.213 -0.202,-0.106 -0.394,-0.223 -0.566,-0.362 z m 1.29,-2.901 c -0.007,0.06 -0.016,0.122 -0.023,0.182 -0.126,-0.063 -0.259,-0.115 -0.382,-0.181 0.135,-0.01 0.269,0 0.405,0 z m 1.755,0.303 c -0.021,0.167 -0.039,0.334 -0.058,0.503 -0.192,-0.05 -0.383,-0.103 -0.57,-0.164 0.012,-0.169 0.021,-0.338 0.032,-0.508 0.203,0.047 0.404,0.1 0.596,0.169 z m -0.469,5.275 c -0.055,0.832 -0.106,1.659 -0.158,2.47 -0.266,0.136 -0.522,0.261 -0.761,0.361 0.117,-0.97 0.228,-1.938 0.33,-2.91 0.196,0.033 0.392,0.057 0.589,0.079 z m -5.454,5.479 c 0.09,0.172 0.179,0.346 0.277,0.51 -0.156,0.104 -0.309,0.215 -0.461,0.333 0.008,-0.198 0.014,-0.395 0.023,-0.593 0.053,-0.085 0.107,-0.166 0.161,-0.25 z m 4.16,7.349 c -0.006,-0.194 -0.018,-0.389 -0.025,-0.583 0.021,0.04 0.041,0.078 0.062,0.12 -0.011,0.154 -0.026,0.308 -0.037,0.463 z m -4.069,-2.554 c 0.007,-10e-4 0.014,0 0.02,0 0.017,0.67 -0.004,1.35 -0.054,2.032 -0.055,0.062 -0.108,0.125 -0.162,0.188 -0.035,-0.614 -0.061,-1.229 -0.081,-1.842 0.092,-0.126 0.183,-0.255 0.277,-0.373 z m 4.224,-0.252 c 0.034,-0.053 0.066,-0.105 0.1,-0.155 -0.007,0.079 -0.015,0.161 -0.024,0.243 -0.024,-0.031 -0.05,-0.059 -0.076,-0.088 z m 0.105,-2.258 c -0.164,-0.042 -0.326,-0.107 -0.485,-0.188 0.008,-0.063 0.017,-0.128 0.025,-0.191 0.161,0.103 0.322,0.221 0.478,0.361 -0.006,0.01 -0.012,0.011 -0.018,0.018 z m -2.283,7.071 c -0.012,-0.465 -0.01,-0.932 -0.016,-1.397 0.331,-0.509 0.66,-1.021 0.986,-1.53 0.109,-0.022 0.221,-0.029 0.333,-0.03 0.036,0.615 0.075,1.229 0.099,1.848 -0.465,0.444 -0.931,0.897 -1.396,1.359 -0.001,-0.084 -0.004,-0.167 -0.006,-0.25 z m 3.904,-8.236 c -0.044,-0.034 -0.092,-0.061 -0.144,-0.071 0.161,-1.021 0.34,-2.049 0.524,-3.08 0.013,1.026 0.009,2.052 -0.021,3.081 -0.12,-0.032 -0.251,-0.01 -0.359,0.07 z m -0.924,-1.54 c -0.059,0.308 -0.113,0.617 -0.166,0.928 -0.245,-0.204 -0.493,-0.365 -0.746,-0.494 0.082,-0.64 0.163,-1.279 0.242,-1.921 0.269,-0.102 0.534,-0.212 0.799,-0.332 -0.041,0.617 -0.083,1.224 -0.129,1.819 z m -2.231,3.833 c -0.252,-0.126 -0.506,-0.229 -0.764,-0.304 10e-4,-0.097 10e-4,-0.193 10e-4,-0.289 0.247,0.218 0.5,0.412 0.763,0.577 0,0.01 0,0.012 0,0.016 z m -4.693,4.441 c 0.098,0.27 0.216,0.528 0.328,0.785 -0.222,0.276 -0.441,0.55 -0.657,0.83 -0.009,-0.289 -0.024,-0.564 -0.05,-0.818 0.121,-0.273 0.249,-0.534 0.379,-0.797 z m -0.156,3.546 c -0.035,-0.229 -0.073,-0.459 -0.107,-0.689 0.146,-0.197 0.293,-0.393 0.442,-0.584 -0.134,0.418 -0.25,0.846 -0.335,1.273 z m -0.478,2.841 c 0.017,0.093 0.034,0.184 0.053,0.275 -0.038,0.044 -0.073,0.091 -0.111,0.135 -0.044,-0.063 -0.086,-0.13 -0.127,-0.196 0.061,-0.072 0.122,-0.142 0.185,-0.214 z m 2.989,-1.935 c 0.052,-0.054 0.102,-0.11 0.153,-0.162 0,0 0,0.01 0.002,0.014 -0.06,0.079 -0.121,0.157 -0.18,0.234 0.009,-0.027 0.017,-0.058 0.025,-0.086 z m 3.022,-2.626 c 0.014,0.688 0.03,1.373 0.03,2.061 -0.396,-0.12 -0.797,-0.331 -1.182,-0.594 0.383,-0.498 0.766,-0.988 1.152,-1.467 z m 1.645,-4.091 c 0.048,-0.53 0.104,-1.061 0.163,-1.591 0.031,-0.01 0.06,-0.016 0.09,-0.023 -0.07,0.563 -0.134,1.123 -0.187,1.688 -0.022,-0.025 -0.044,-0.052 -0.066,-0.074 z m 2.121,-5.464 c 0.023,-1.155 0.021,-2.311 -0.013,-3.464 0.186,-0.113 0.369,-0.23 0.555,-0.348 -0.044,0.948 -0.084,1.898 -0.129,2.853 -0.119,0.332 -0.257,0.653 -0.413,0.959 z m -3.977,-2.513 c -0.062,-0.462 -0.131,-0.923 -0.202,-1.382 0.057,-0.175 0.124,-0.361 0.216,-0.577 0.052,-0.125 0.116,-0.245 0.171,-0.367 -0.059,0.776 -0.117,1.553 -0.175,2.327 -0.003,0 -0.006,10e-4 -0.01,0 z m -0.556,2.053 c -0.212,0 -0.426,0.01 -0.638,0.047 0.005,-0.347 0.007,-0.692 0.01,-1.037 0.034,0.01 0.068,0.017 0.104,0.012 0.129,-0.021 0.255,-0.055 0.383,-0.079 0.052,0.35 0.093,0.704 0.141,1.057 z m -0.619,-2.501 c 0.002,-0.455 0.009,-0.911 0.008,-1.366 0.052,0.276 0.092,0.565 0.14,0.845 -0.054,0.171 -0.102,0.346 -0.148,0.521 z m -2.502,17.893 c 0.06,0.513 0.121,1.025 0.186,1.538 -0.005,0 -0.011,-0.01 -0.016,-0.01 -0.165,-0.272 -0.3,-0.57 -0.4,-0.894 0.079,-0.209 0.152,-0.425 0.23,-0.638 z m 1.094,-1.739 c 0.065,1.002 0.138,2.003 0.222,2.999 -0.057,0.063 -0.115,0.125 -0.174,0.189 -0.116,-0.934 -0.229,-1.869 -0.337,-2.808 0.097,-0.124 0.195,-0.253 0.289,-0.38 z m 1.614,1.604 c -0.049,-0.625 -0.086,-1.249 -0.119,-1.872 0.429,0.17 0.87,0.272 1.313,0.303 -0.002,0.175 -0.002,0.349 -0.004,0.523 -0.405,0.336 -0.802,0.684 -1.19,1.046 z m 0.886,-0.062 c -0.24,0.433 -0.498,0.854 -0.778,1.259 -0.017,-0.16 -0.03,-0.319 -0.044,-0.479 0.27,-0.267 0.542,-0.53 0.822,-0.78 z m 3.917,-11.061 c 0.008,-0.143 0.016,-0.289 0.023,-0.435 0.031,-0.011 0.062,-0.024 0.093,-0.036 -0.02,0.202 -0.041,0.404 -0.06,0.606 -0.018,-0.043 -0.037,-0.089 -0.056,-0.135 z m 1.06,-0.868 c 0.006,-10e-4 0.011,0 0.016,-0.01 -0.021,0.187 -0.047,0.372 -0.071,0.558 0.016,-0.185 0.035,-0.368 0.055,-0.552 z m 0.08,-0.778 c 0,0 10e-4,0 10e-4,-0.01 0.012,-0.015 0.023,-0.026 0.033,-0.041 -10e-4,0.01 -0.002,0.021 -0.004,0.032 -0.009,0 -0.02,0.01 -0.03,0.015 z m -0.416,-6.691 c -0.207,0.134 -0.412,0.271 -0.62,0.397 -0.018,-0.416 -0.037,-0.835 -0.064,-1.25 0.249,0 0.491,-0.01 0.726,-0.012 -0.016,0.289 -0.028,0.577 -0.042,0.865 z m -0.598,-2.399 c -0.004,0 -0.009,-10e-4 -0.013,0 10e-4,-0.01 10e-4,-0.01 0.003,-0.014 0.004,0.01 0.006,0.01 0.01,0.013 z m -0.849,-0.041 c -0.031,0 -0.062,-0.01 -0.092,-0.013 0.02,-0.269 0.042,-0.54 0.064,-0.811 0.051,0.034 0.102,0.07 0.151,0.109 -0.04,0.24 -0.082,0.476 -0.123,0.715 z m -0.817,-1.138 c -0.029,0.325 -0.056,0.651 -0.08,0.977 -0.196,-0.044 -0.377,-0.086 -0.54,-0.128 10e-4,-0.01 0.003,-0.019 0.003,-0.03 0.198,-0.28 0.404,-0.552 0.617,-0.819 z m -2.696,3.116 c -0.075,-0.418 -0.159,-0.831 -0.241,-1.246 0.223,0.118 0.456,0.221 0.696,0.31 -0.163,0.307 -0.314,0.62 -0.455,0.936 z m -2.778,1.352 c 0.093,-0.703 0.204,-1.403 0.332,-2.102 0.088,-0.029 0.179,-0.061 0.268,-0.092 -0.073,1.129 -0.131,2.257 -0.178,3.382 -0.158,-0.381 -0.298,-0.78 -0.422,-1.188 z m 0.507,-2.947 c 0.007,-0.034 0.014,-0.066 0.021,-0.1 0.047,-0.051 0.094,-0.105 0.142,-0.154 -0.005,0.068 -0.01,0.137 -0.015,0.207 -0.049,0.016 -0.099,0.033 -0.148,0.047 z m -2.337,0.213 c -10e-4,0.029 0.002,0.062 0.001,0.091 -0.098,0.232 -0.198,0.466 -0.287,0.706 -0.05,0.137 -0.002,0.273 0.086,0.347 -0.153,0.22 -0.304,0.443 -0.46,0.661 0.084,-0.594 0.172,-1.188 0.259,-1.782 0.144,-0.135 0.287,-0.272 0.43,-0.407 -0.01,0.126 -0.025,0.25 -0.029,0.384 z m -1.26,-1.033 c -0.127,0.119 -0.25,0.243 -0.374,0.366 0.069,-1.051 0.131,-2.1 0.173,-3.147 0.125,-0.128 0.249,-0.257 0.37,-0.386 -0.008,0.267 -0.015,0.535 -0.024,0.802 -0.03,0.789 -0.086,1.575 -0.145,2.365 z m -0.528,2.495 c 0.11,-0.125 0.223,-0.252 0.334,-0.379 -0.071,0.69 -0.146,1.378 -0.228,2.064 -0.085,0.106 -0.172,0.211 -0.26,0.313 -0.003,-0.033 -0.006,-0.067 -0.01,-0.102 0.058,-0.629 0.112,-1.262 0.164,-1.896 z m 0.299,6.325 c 10e-4,-0.01 0.005,-0.014 0.007,-0.023 0.058,-0.428 0.117,-0.854 0.175,-1.282 -0.031,0.616 -0.033,1.234 -0.005,1.855 -0.037,0.044 -0.073,0.089 -0.109,0.133 -0.023,-0.228 -0.045,-0.455 -0.068,-0.683 z m -0.839,16.366 c 10e-4,0 10e-4,0.01 0.002,0.014 -0.014,0.014 -0.027,0.029 -0.041,0.044 0.012,-0.02 0.025,-0.038 0.039,-0.058 z m 11.213,-29.666 c -0.105,-0.061 -0.206,-0.132 -0.316,-0.188 10e-4,0 10e-4,-0.01 0.002,-0.01 0.113,0.01 0.224,0.01 0.337,0.02 -0.007,0.061 -0.015,0.119 -0.023,0.178 z m -5.187,2.288 c -0.005,-0.105 -0.008,-0.21 -0.014,-0.313 0.054,-0.094 0.107,-0.185 0.161,-0.276 0.157,0.112 0.31,0.231 0.477,0.334 -0.213,0.071 -0.42,0.158 -0.624,0.255 z m -5.112,-2.008 c 0.001,0 0,0 0,-0.01 0.019,-0.021 0.038,-0.04 0.058,-0.062 -0.02,0.024 -0.038,0.044 -0.058,0.068 z m -0.862,2.381 c -0.042,0.834 -0.096,1.668 -0.151,2.502 -0.094,-0.639 -0.192,-1.273 -0.298,-1.9 0.149,-0.201 0.295,-0.406 0.449,-0.602 z m -0.164,10.812 c 0.055,0.53 0.109,1.06 0.164,1.591 -0.055,0.068 -0.108,0.138 -0.162,0.207 -0.04,-0.242 -0.089,-0.479 -0.129,-0.719 0.042,-0.36 0.086,-0.72 0.127,-1.079 z m -0.436,17.854 c 0.064,-0.059 0.13,-0.114 0.194,-0.173 -0.071,0.267 -0.132,0.532 -0.193,0.796 -0.008,-0.142 -0.014,-0.284 -0.017,-0.43 0.005,-0.065 0.011,-0.129 0.016,-0.193 z m 2.961,-1.301 c 0.109,0.415 0.222,0.826 0.341,1.232 -0.249,0.188 -0.495,0.383 -0.739,0.582 -0.033,-0.257 -0.066,-0.514 -0.1,-0.768 0.169,-0.345 0.336,-0.694 0.498,-1.046 z m 14.742,-21.673 c 0,0 -0.001,0.01 0,0.01 -0.009,0.013 -0.018,0.023 -0.026,0.036 0.007,-0.015 0.017,-0.029 0.026,-0.044 z m -1.706,-1.56 c -0.015,-0.147 -0.027,-0.297 -0.047,-0.443 -0.017,-0.117 -0.055,-0.211 -0.101,-0.296 0.005,-0.066 0.009,-0.132 0.015,-0.2 0.121,-0.083 0.239,-0.165 0.359,-0.248 -0.076,0.396 -0.151,0.792 -0.226,1.187 z m -3.41,-6.632 c 0.006,-0.042 0.011,-0.085 0.016,-0.125 0.006,0.03 0.013,0.063 0.02,0.093 -0.013,0.01 -0.026,0.02 -0.036,0.032 z m -0.612,-1.978 c -0.082,0 -0.165,-0.017 -0.247,-0.023 0.044,-0.232 0.088,-0.467 0.136,-0.695 0.049,0.125 0.098,0.248 0.142,0.376 -0.011,0.114 -0.02,0.228 -0.031,0.342 z m -1.062,-0.111 c -0.299,-0.038 -0.598,-0.082 -0.899,-0.137 0.005,-0.127 0.012,-0.254 0.017,-0.382 0.011,-0.056 0.023,-0.113 0.036,-0.169 0.107,-0.03 0.216,-0.069 0.323,-0.09 0.243,-0.051 0.472,-0.063 0.691,-0.05 -0.059,0.275 -0.117,0.549 -0.168,0.828 z m -1.755,-0.311 c -0.012,0 -0.026,-0.01 -0.04,-0.01 0.015,-0.01 0.03,-0.014 0.046,-0.021 -10e-4,0.01 -0.003,0.019 -0.006,0.029 z m -0.78,1.503 c -0.368,0.033 -0.733,0.108 -1.095,0.21 0.122,-0.14 0.244,-0.278 0.368,-0.416 0.241,0.074 0.482,0.144 0.727,0.206 z m -3.506,0.502 c -0.054,0.399 -0.111,0.798 -0.173,1.195 -0.113,0.112 -0.218,0.234 -0.324,0.358 0.081,-0.574 0.168,-1.146 0.262,-1.715 0.036,-0.017 0.073,-0.035 0.108,-0.053 0.04,0.073 0.083,0.145 0.127,0.215 z m -5.041,2.228 c -0.011,0.01 -0.02,0.02 -0.03,0.027 10e-4,-0.012 0.003,-0.021 0.004,-0.03 0.008,0 0.016,0 0.026,0 z m -0.449,20.176 c -0.031,0.081 -0.067,0.16 -0.099,0.243 0.006,-0.045 0.013,-0.091 0.019,-0.138 0.028,-0.034 0.054,-0.069 0.08,-0.105 z m 6.398,9.573 c 0.03,-0.027 0.058,-0.057 0.088,-0.084 0.003,0.021 0.005,0.045 0.008,0.069 -0.028,0.03 -0.057,0.06 -0.085,0.089 -0.004,-0.024 -0.008,-0.048 -0.011,-0.074 z m 7.379,-9.727 c 0.17,-0.038 0.34,-0.066 0.51,-0.112 -0.203,0.122 -0.4,0.247 -0.603,0.37 0.032,-0.087 0.064,-0.171 0.093,-0.258 z m 3.982,-11.361 c 0.073,-0.441 0.146,-0.884 0.22,-1.324 0.121,-0.128 0.237,-0.263 0.351,-0.396 0.014,0.426 0.035,0.848 0.062,1.27 -0.211,0.145 -0.424,0.294 -0.633,0.45 z m -0.741,-5.938 c -0.157,0.102 -0.314,0.204 -0.473,0.306 0.036,-0.465 0.069,-0.927 0.104,-1.392 0.198,-0.017 0.396,-0.027 0.594,-0.034 -0.077,0.374 -0.15,0.746 -0.225,1.12 z m -1.376,0.905 c -0.058,0.039 -0.116,0.077 -0.174,0.118 -0.013,-0.482 -0.033,-0.962 -0.063,-1.438 0.039,-0.166 0.079,-0.332 0.118,-0.498 0.089,-0.02 0.175,-0.039 0.263,-0.058 -0.046,0.626 -0.094,1.252 -0.144,1.876 z m -14.293,-7.348 c -0.219,0.306 -0.436,0.615 -0.653,0.923 0.04,-0.434 0.078,-0.868 0.116,-1.303 0.179,-0.055 0.358,-0.115 0.536,-0.178 -0.002,0.187 0.003,0.371 10e-4,0.558 z m -0.452,-1.326 c 0.001,-0.01 0.002,-0.016 0.003,-0.023 0.15,-0.405 0.296,-0.815 0.438,-1.224 0.008,0.387 0.003,0.774 0.006,1.163 -0.143,0.028 -0.294,0.057 -0.447,0.084 z m -1.112,19.813 c 0.004,0.069 0.006,0.139 0.009,0.21 -0.044,0.063 -0.086,0.129 -0.131,0.191 0.041,-0.131 0.084,-0.268 0.122,-0.401 z m -0.465,4.289 c -0.01,0.067 -0.019,0.136 -0.028,0.205 -0.179,0.262 -0.348,0.53 -0.521,0.797 -0.002,-0.025 -0.002,-0.053 -0.002,-0.079 0.168,-0.316 0.353,-0.624 0.551,-0.923 z m 6.067,11.538 c 0.044,-0.033 0.087,-0.069 0.131,-0.103 0.009,0.066 0.017,0.132 0.024,0.2 -0.031,0.027 -0.061,0.059 -0.092,0.088 -0.021,-0.061 -0.041,-0.122 -0.063,-0.185 z m 7.594,-5.519 c -0.018,-1.217 -0.023,-2.432 -0.014,-3.646 0.439,-0.273 0.881,-0.543 1.325,-0.807 -0.363,0.995 -0.626,2.146 -0.821,3.295 -0.174,0.38 -0.334,0.768 -0.49,1.158 z m 5.498,-25.075 c 0.165,-0.736 0.341,-1.47 0.52,-2.202 -0.104,0.614 -0.198,1.234 -0.28,1.852 -0.054,0.115 -0.102,0.237 -0.153,0.354 -0.029,0 -0.059,0 -0.087,0 z m -0.883,-0.017 c -0.277,0 -0.554,0 -0.832,0.021 0.002,-0.045 0.004,-0.088 0.008,-0.133 0.578,-1.05 0.987,-2.173 1.457,-3.367 0.08,-0.059 0.158,-0.119 0.237,-0.182 -0.312,1.214 -0.597,2.436 -0.87,3.661 z m 1.129,-4.692 c 0.048,-0.117 0.068,-0.236 0.063,-0.35 0.018,-0.012 0.035,-0.023 0.052,-0.034 -0.032,0.123 -0.065,0.247 -0.098,0.371 -0.005,0 -0.01,0.01 -0.017,0.013 z m -2.739,0.378 c -0.216,-0.224 -0.435,-0.437 -0.661,-0.631 0.242,0.072 0.482,0.149 0.724,0.228 -0.022,0.133 -0.04,0.269 -0.063,0.403 z m -6.602,-1.515 c -0.545,0.264 -1.062,0.618 -1.533,1.051 -0.417,-0.148 -0.823,-0.323 -1.223,-0.509 0.024,-0.297 0.047,-0.593 0.065,-0.891 0.016,-0.014 0.032,-0.026 0.048,-0.042 0.892,0.108 1.779,0.221 2.643,0.391 z m -7.144,-0.669 c 0.045,0.362 0.075,0.728 0.102,1.096 -0.015,0.01 -0.03,0.018 -0.045,0.025 -0.048,0.023 -0.109,0.047 -0.176,0.069 -0.002,-0.466 -0.007,-0.932 -0.016,-1.396 0.041,0.049 0.085,0.096 0.128,0.145 0.002,0.019 0.005,0.045 0.007,0.061 z m -3.305,40.789 c 0.027,0.039 0.057,0.07 0.088,0.102 -0.037,0.059 -0.073,0.119 -0.11,0.177 0.006,-0.092 0.015,-0.188 0.022,-0.279 z m 2.29,-1.549 c 0.205,-0.219 0.415,-0.434 0.631,-0.643 0.017,0.534 0.006,1.07 -0.031,1.605 -0.027,0.019 -0.055,0.04 -0.083,0.059 -0.195,-0.316 -0.367,-0.658 -0.517,-1.021 z m 10.85,4.111 c -0.023,-0.1 -0.044,-0.198 -0.066,-0.298 0.113,-0.235 0.221,-0.471 0.325,-0.707 0.002,0.045 0.003,0.091 0.004,0.136 -0.085,0.289 -0.178,0.578 -0.263,0.869 z m 4.449,-19.511 c 0.047,-0.417 0.098,-0.836 0.138,-1.257 0.343,-0.566 0.674,-1.15 0.999,-1.741 -0.36,1.015 -0.74,2.012 -1.137,2.998 z m 2.623,-23.54 c -0.255,0.155 -0.512,0.315 -0.767,0.479 -0.055,-0.029 -0.111,-0.057 -0.17,-0.068 -0.381,-0.085 -0.752,-0.189 -1.12,-0.3 0.032,-0.25 0.063,-0.498 0.089,-0.749 0.709,-0.059 1.42,-0.044 2.139,0.057 -0.057,0.194 -0.117,0.387 -0.171,0.581 z m -2.946,-0.169 c -0.212,-0.07 -0.424,-0.138 -0.636,-0.204 10e-4,0 10e-4,0 0.002,-0.01 0.213,-0.052 0.425,-0.095 0.638,-0.133 -0.002,0.114 -10e-4,0.229 -0.004,0.345 z m -2.514,-1.284 c 10e-4,-0.037 10e-4,-0.075 0.002,-0.112 0.039,0.021 0.082,0.045 0.121,0.064 -0.041,0.015 -0.082,0.033 -0.123,0.048 z m -5.552,-0.464 c -0.129,0.116 -0.259,0.23 -0.389,0.348 -0.099,-0.014 -0.197,-0.027 -0.297,-0.04 0.174,-0.135 0.347,-0.271 0.519,-0.407 0.093,0 0.187,10e-4 0.28,0 -0.038,0.033 -0.076,0.066 -0.113,0.101 z m -1.362,-0.056 c 10e-4,-0.055 0.003,-0.109 0.005,-0.165 0.061,0.013 0.121,0.021 0.182,0.032 -0.062,0.045 -0.125,0.088 -0.187,0.133 z m -3.209,-1.931 c -0.328,0.287 -0.648,0.585 -0.973,0.88 -0.014,-0.066 -0.031,-0.132 -0.045,-0.197 0.339,-0.23 0.678,-0.456 1.018,-0.683 z m -5.452,15.691 c 0.029,-0.063 0.056,-0.13 0.087,-0.193 -0.019,0.451 -0.043,0.897 -0.069,1.345 -0.062,0.047 -0.123,0.094 -0.183,0.141 0.055,-0.431 0.11,-0.861 0.165,-1.293 z m -1.104,22.516 c 0.003,0.028 0.005,0.058 0.007,0.086 -0.055,0.034 -0.103,0.061 -0.152,0.086 0.031,-0.103 0.056,-0.207 0.09,-0.312 0.016,0.049 0.038,0.093 0.055,0.14 z m 4.45,8.247 c -0.083,0.397 -0.179,0.792 -0.283,1.188 -0.046,0.031 -0.098,0.065 -0.151,0.1 -0.064,-0.653 -0.106,-1.306 -0.124,-1.962 0.183,0.252 0.369,0.475 0.558,0.674 z m 6.429,-3.174 c 0.048,-0.046 0.096,-0.091 0.144,-0.138 0.003,0.01 0.003,0.012 0.006,0.019 -0.046,0.07 -0.093,0.141 -0.138,0.212 -0.004,-0.031 -0.007,-0.063 -0.012,-0.093 z m 8.233,-11.307 c 0.017,-0.226 -0.046,-0.434 -0.15,-0.604 0.039,-0.23 0.075,-0.465 0.112,-0.698 0.373,-0.931 0.631,-0.753 0.806,-0.205 -0.254,0.518 -0.512,1.033 -0.771,1.548 10e-4,-0.014 0.002,-0.027 0.003,-0.041 z m 1.052,-3.843 c 0.345,-0.831 0.676,-1.675 0.992,-2.529 -0.11,0.738 -0.227,1.478 -0.351,2.216 -0.212,0.109 -0.427,0.212 -0.641,0.313 z m 3.141,-6.522 c 0.016,-0.085 0.033,-0.169 0.05,-0.256 -0.006,0.088 -0.009,0.175 -0.015,0.261 -0.017,0.059 -0.032,0.117 -0.049,0.177 0.004,-0.061 0.009,-0.122 0.014,-0.182 z m 1.011,-12.78 c -0.118,0.434 -0.231,0.867 -0.342,1.302 -0.053,-0.01 -0.103,-0.016 -0.159,-0.012 -0.249,0.019 -0.491,0.02 -0.735,0.021 0.414,-0.854 0.866,-1.681 1.361,-2.467 -0.036,0.385 -0.082,0.771 -0.125,1.156 z m -1.218,-8.09 c -0.165,-0.227 -0.335,-0.461 -0.511,-0.697 0.313,-0.206 0.63,-0.408 0.94,-0.624 -0.149,0.438 -0.287,0.88 -0.429,1.321 z m -1.144,0.894 c -0.552,-0.048 -1.103,-0.048 -1.652,-0.011 0.002,-0.047 0.006,-0.094 0.008,-0.141 0.364,-0.22 0.726,-0.442 1.086,-0.67 0.189,0.276 0.377,0.552 0.558,0.822 z m -3.406,-0.749 c -0.031,-0.054 -0.061,-0.104 -0.093,-0.156 0.071,-0.052 0.141,-0.104 0.214,-0.155 -0.041,0.103 -0.08,0.206 -0.121,0.311 z m -2.73,-0.826 c -0.109,-0.105 -0.22,-0.213 -0.33,-0.316 -0.004,-0.078 10e-4,-0.138 -0.002,-0.213 0.078,-0.02 0.157,-0.042 0.234,-0.063 0.026,0.031 0.048,0.065 0.073,0.095 0.008,0.165 0.019,0.33 0.025,0.497 z m -0.126,1.711 c -0.076,0.211 -0.153,0.419 -0.223,0.635 -0.247,-0.356 -0.511,-0.694 -0.791,-1.008 0.033,-0.107 0.068,-0.215 0.101,-0.323 0.291,0.25 0.597,0.488 0.913,0.696 z m -6.753,-1.96 c -0.141,-0.068 -0.277,-0.144 -0.409,-0.227 0.017,-0.082 0.034,-0.163 0.05,-0.243 0.113,0.019 0.224,0.036 0.336,0.057 0.008,0.137 0.017,0.274 0.023,0.413 z m -3.56,0.189 c -0.004,-0.015 -0.007,-0.026 -0.01,-0.043 0.195,-0.198 0.419,-0.489 0.661,-0.831 0.063,0.107 0.127,0.212 0.194,0.314 -0.282,0.186 -0.564,0.374 -0.845,0.56 z m -7.318,43.62 c -0.05,0.51 -0.087,1.022 -0.122,1.538 0.028,-1.332 0.115,-2.672 0.222,-4.006 -0.04,0.822 -0.074,1.643 -0.1,2.468 z m 0.829,-0.153 c 0.135,-1.338 0.34,-2.658 0.652,-3.952 0.179,-0.101 0.355,-0.209 0.531,-0.313 0.02,0.291 0.04,0.583 0.062,0.874 -0.124,0.365 -0.241,0.734 -0.347,1.109 -0.093,0.325 0.084,0.65 0.348,0.629 -0.061,0.667 -0.104,1.334 -0.126,1.993 -0.059,0.151 -0.113,0.312 -0.161,0.482 -0.146,0.377 -0.285,0.756 -0.415,1.141 -0.208,0.066 -0.414,0.13 -0.622,0.188 0.029,-0.717 0.054,-1.433 0.078,-2.151 z m 4.405,5.621 c 0.003,0.014 0.005,0.028 0.007,0.042 -0.023,-0.01 -0.047,-0.01 -0.07,-0.015 0.021,-0.01 0.042,-0.016 0.063,-0.027 z m 1.579,-0.847 c 0.37,-0.227 0.735,-0.467 1.096,-0.72 0.022,0.01 0.045,0.018 0.068,0.024 -0.011,0.065 -0.011,0.131 -0.002,0.194 -0.104,0.605 -0.221,1.206 -0.354,1.802 -0.382,-0.056 -0.763,-0.116 -1.143,-0.182 0.12,-0.371 0.231,-0.742 0.335,-1.118 z m 1.779,0.836 c 0.06,0.211 0.125,0.417 0.187,0.626 -0.106,-0.015 -0.212,-0.028 -0.317,-0.043 0.042,-0.196 0.09,-0.388 0.13,-0.583 z m 9.975,-0.855 c -0.119,0.142 -0.241,0.281 -0.363,0.416 -0.001,-0.079 -0.001,-0.157 -0.002,-0.236 0.121,-0.061 0.244,-0.117 0.365,-0.18 z m 3.129,-14.537 c -0.014,0.071 -0.024,0.141 -0.039,0.21 -0.033,0.019 -0.065,0.038 -0.098,0.058 0.046,-0.091 0.092,-0.179 0.137,-0.268 z m 5.976,-30.105 c -0.062,0.065 -0.119,0.133 -0.178,0.199 0.004,-0.155 0.007,-0.307 0.01,-0.46 0.065,-0.048 0.13,-0.097 0.195,-0.144 -0.01,0.135 -0.018,0.269 -0.027,0.405 z m -1.1,1.293 c -0.319,0.414 -0.626,0.838 -0.916,1.274 0.125,-0.588 0.263,-1.175 0.407,-1.755 0.183,-0.139 0.364,-0.273 0.545,-0.409 -0.009,0.297 -0.021,0.593 -0.036,0.89 z m 0.01,-2.395 c 0.017,-0.06 0.035,-0.116 0.053,-0.175 -10e-4,0.05 10e-4,0.097 10e-4,0.146 -0.018,0.01 -0.038,0.019 -0.054,0.029 z m -4.113,-1.791 c -0.064,0.039 -0.13,0.075 -0.194,0.114 0.01,-0.446 0.014,-0.896 0.002,-1.342 0.013,-0.01 0.025,-0.015 0.037,-0.022 0.239,0.292 0.472,0.598 0.698,0.911 -0.182,0.112 -0.362,0.228 -0.543,0.339 z m -3.449,-1.934 c -0.082,-0.105 -0.16,-0.213 -0.244,-0.316 0.002,-0.033 0.001,-0.064 0,-0.097 0.145,0.029 0.289,0.061 0.435,0.09 -0.065,0.108 -0.127,0.216 -0.191,0.323 z m -16.813,23.484 c 0.064,-0.043 0.128,-0.089 0.192,-0.134 -0.092,0.817 -0.178,1.633 -0.251,2.451 -0.135,0.372 -0.266,0.753 -0.392,1.138 0.148,-1.151 0.299,-2.303 0.451,-3.455 z m -0.841,14.804 c -0.082,0.229 -0.167,0.461 -0.239,0.691 -0.015,-0.045 -0.037,-0.082 -0.06,-0.118 0.053,-0.22 0.129,-0.46 0.217,-0.708 0.024,0.048 0.055,0.091 0.082,0.135 z m 8.768,12.574 c -0.086,-0.521 -0.15,-1.049 -0.2,-1.582 0.288,-0.044 0.571,-0.106 0.851,-0.177 0.103,0.339 0.217,0.678 0.366,1.011 0.084,0.188 0.169,0.357 0.256,0.518 -0.271,0.063 -0.543,0.128 -0.814,0.186 -0.155,0.013 -0.308,0.029 -0.459,0.044 z m 17.379,-47.625 c -0.003,-0.724 -0.022,-1.443 -0.057,-2.161 0.049,-0.13 0.095,-0.262 0.143,-0.389 0.068,-0.01 0.137,-0.012 0.205,-0.019 0.017,0.805 0.008,1.615 -0.027,2.431 -0.088,0.046 -0.176,0.093 -0.264,0.138 z m -20.361,-6.412 c 0.011,-0.014 0.022,-0.028 0.034,-0.043 -0.012,0.019 -0.02,0.039 -0.031,0.058 0,-0.01 -0.002,-0.011 -0.003,-0.015 z m -6.572,40.219 c 0.063,-0.075 0.124,-0.149 0.185,-0.222 0.04,0.147 0.078,0.296 0.125,0.438 -0.156,0.503 -0.289,1.018 -0.404,1.538 -0.02,0.022 -0.04,0.044 -0.057,0.073 -0.008,0.013 -0.013,0.023 -0.021,0.036 0.058,-0.619 0.109,-1.241 0.172,-1.863 z m 18.551,13.086 c 0.021,0.125 0.039,0.249 0.06,0.374 -0.119,-0.012 -0.24,-0.018 -0.358,-0.028 0.1,-0.114 0.2,-0.229 0.298,-0.346 z m 0.727,-0.928 c 0.169,-0.23 0.343,-0.453 0.505,-0.691 -0.022,0.171 0.03,0.3 0.116,0.382 -0.083,0.583 -0.168,1.164 -0.249,1.747 -0.047,-0.01 -0.095,-0.014 -0.143,-0.021 -0.082,-0.474 -0.16,-0.946 -0.229,-1.417 z m -0.071,-2.05 c -0.022,0.22 0.05,0.381 0.16,0.477 -0.081,0.122 -0.165,0.238 -0.247,0.357 -0.019,-0.182 -0.043,-0.36 -0.06,-0.542 0.011,-0.017 0.023,-0.028 0.034,-0.045 0.19,-0.256 0.087,-0.581 -0.103,-0.739 -0.003,-0.046 -0.009,-0.092 -0.011,-0.139 0.116,-0.129 0.229,-0.265 0.343,-0.399 -0.038,0.343 -0.081,0.686 -0.116,1.03 z m 3.789,-15.215 c -0.033,0.138 -0.063,0.277 -0.096,0.415 -0.041,-0.242 -0.084,-0.48 -0.138,-0.717 0.112,-0.232 0.226,-0.466 0.338,-0.699 -0.037,0.332 -0.066,0.669 -0.104,1.001 z m 5.564,-31.599 c 0.122,-0.053 0.242,-0.111 0.359,-0.177 -0.127,0.239 -0.243,0.496 -0.348,0.766 0,-0.195 -0.007,-0.391 -0.011,-0.589 z m -21.275,-3.999 c -0.028,0.046 -0.056,0.091 -0.085,0.137 -0.222,0 -0.439,0.106 -0.582,0.292 0.153,-0.19 0.306,-0.377 0.453,-0.556 0.071,0.043 0.143,0.086 0.214,0.127 z m -0.794,0.156 c -0.082,-0.291 -0.18,-0.584 -0.296,-0.875 -0.006,-0.011 -0.014,-0.02 -0.02,-0.03 0.223,0.176 0.458,0.343 0.706,0.505 -0.129,0.133 -0.26,0.266 -0.39,0.4 z m -1.504,-1.072 c 0.018,-0.343 0.027,-0.686 0.04,-1.027 0.189,0.266 0.407,0.519 0.651,0.756 -0.25,-0.068 -0.521,0.01 -0.691,0.271 z m 15.89,52.651 c -0.017,0.126 -0.034,0.252 -0.051,0.38 -0.019,0.138 0.01,0.243 0.055,0.332 -0.057,0.162 -0.114,0.324 -0.17,0.486 0.057,-0.399 0.109,-0.8 0.166,-1.198 z m 10.625,-4.017 c -2.122,0.76 -4.307,0.253 -6.447,0.521 0.055,-0.712 0.111,-1.368 0.188,-1.927 0.766,-5.608 1.571,-11.212 2.289,-16.826 0.668,-5.209 1.372,-10.428 1.882,-15.652 0.092,-0.947 0.309,-2.17 0.512,-3.473 2.33,0.494 4.668,0.896 7.021,1.275 -0.188,10.475 -1.936,21.078 -4.301,31.327 -0.106,-0.011 -0.211,-0.024 -0.318,-0.033 -0.386,-0.036 -0.583,0.651 -0.204,0.816 0.103,0.045 0.209,0.085 0.312,0.128 -0.302,1.288 -0.615,2.569 -0.934,3.844 z m 69.617,-3.778 c -4.438,-0.384 -8.877,-0.719 -13.31,-1.179 -4.107,-0.426 -8.547,-0.784 -12.68,0.824 -0.079,0.031 -0.101,0.207 -0.01,0.212 4.485,0.171 8.911,0.348 13.355,0.945 3.486,0.469 7.009,1.244 10.556,1.326 -1.137,1.156 -2.282,2.301 -3.457,3.4 -10.303,-1.293 -20.675,-1.91 -31.037,-2.638 -5.242,-0.367 -10.474,-0.836 -15.686,-1.485 -4.628,-0.578 -9.233,-1.528 -13.863,-2.119 1.712,-7.359 3.112,-14.871 3.748,-22.405 1.613,-1.345 2.976,-4.013 4.271,-5.601 2.771,-3.394 5.75,-6.58 8.792,-9.611 5.642,-5.627 11.786,-10.81 18.332,-14.697 0.81,1.404 1.683,2.765 2.495,4.179 -4.376,4.354 -9.114,8.155 -13.442,12.599 -3.229,3.316 -7.759,7.941 -7.755,13.427 0.003,6.868 9.681,7.771 13.496,8.469 11.787,2.162 23.885,1.965 35.753,3.504 0.114,0.013 0.217,0 0.313,-0.023 1.044,1.498 1.825,3.071 2.546,4.731 -4.859,-0.446 -9.717,-0.863 -14.573,-1.388 -4.792,-0.516 -9.97,-0.976 -14.747,0.548 -0.091,0.027 -0.111,0.204 -0.005,0.21 5.223,0.271 10.381,0.547 15.569,1.244 4.842,0.65 9.753,1.75 14.672,1.582 0,0 0.003,0 0.005,0 0.065,0.161 0.13,0.317 0.196,0.48 -1.201,1.115 -2.371,2.284 -3.534,3.468 z"
           id="path1531" />
      </g>
    </g>
    <path
       style="fill:#62163b"
       inkscape:connector-curvature="0"
       d="m 71.310131,1000.8663 c 1.302,2.618 2.483,6.886 4.966,8.284 0.034,0.447 0.271,0.854 0.753,0.917 9.538,1.234 19.179,1.47 28.739009,2.505 4.535,0.491 9.184,1.085 13.558,2.49 2.163,0.695 5.154,1.975 5.406,5.076 0.409,5.045 -6.241,10.695 -9.022,13.445 -3.881,3.838 -8.095,7.201 -11.714,11.418 -0.284,0.331 -0.418,0.821 -0.163,1.214 1.031,1.599 1.964,3.636 3.433,4.696 -0.097,0.785 0.458,1.637 1.231,1.185 6.462,-3.792 12.412,-8.772 17.968,-14.306 2.927,-2.914 5.75,-6.022 8.327,-9.383 1.138,-1.486 3.094,-3.63 4.297,-5.806 -0.163,2.666 -0.229,5.334 -0.167,7.997 0.013,0.553 0.448,1.023 0.889,1.07 2.677,0.295 5.337,0.566 8.019,0.72 -0.107,0.902 -0.178,1.799 -0.167,2.638 -0.127,0.143 -0.099,0.363 0.017,0.464 0.043,0.877 0.19,1.669 0.488,2.31 -0.199,0.212 -0.386,0.455 -0.561,0.739 -0.293,0.482 -0.196,1.189 0.271,1.405 3.816,1.772 8.562,1.32 12.684,2.141 4.122,0.818 8.377,2.719 12.565,2.966 0.201,0.146 0.525,0.089 0.616,-0.226 3.108,-10.666 4.372,-22.442 5.789,-33.467 0.783,-6.104 1.532,-12.237 1.889,-18.37495 0.095,-1.633 0.468,-4.529 -0.04,-6.578 0.227,-0.133 0.26,-0.617 -10e-4,-0.713 -0.092,-0.034 -0.185,-0.063 -0.278,-0.095 -0.206,-0.472 -0.49,-0.856 -0.866,-1.124 -0.012,-0.73 -0.856,-1.163 -1.831,-1.462 -0.096,-0.301 -0.192,-0.598 -0.291,-0.889 -0.1,-0.297 -0.413,-0.393 -0.634,-0.188 -0.235,0.219 -0.456,0.447 -0.665,0.688 -0.479,-0.104 -0.89,-0.194 -1.127,-0.294 -1.103,-0.463 -2.324,-0.663 -3.575,-0.721 -0.06,-0.02 -0.123,-0.021 -0.187,-0.01 -1.604,-0.058 -3.248,0.104 -4.746,0.231 -0.879,0.075 -1.746,0.14 -2.607,0.184 -1.676,-0.29 -3.359,-0.522 -5.047,-0.602 -0.423,-0.021 -0.766,0.134 -1.027,0.384 -0.552,-0.084 -1.107,-0.178 -1.664,-0.306 -0.967,-0.225 -2.151,0.857 -2.228,2.065 0,0.051 -0.01,0.1 -0.01,0.15 -0.768,1.321 -1.129,3.305 -1.343,5.323 -2.551,-1.247 -5.563,-1.225 -8.242,-0.162 -1.486,0.591 -1.538,2.379 -0.816,3.505 -0.022,0.231 -0.042,0.463 -0.061,0.695 -0.256,1.025 -0.508,2.054 -0.755,3.08695 -8.959,-3.28295 -19.033,-3.75895 -28.338,-4.59795 -11.409,-1.026 -22.868009,-1.521 -34.229009,-2.981 -0.959,-0.122 -1.42,1.085 -1.155,1.9 -3.01,2.24 -5.573,6.08095 -8.12,8.71895 -0.453,0.47 -0.51,1.107 -0.228,1.673 z m 87.794009,-7.77995 c 0,0.136 0,0.271 0,0.404 -0.068,0.446 -0.131,0.893 -0.194,1.34 -0.356,0.462 -0.622,0.836 -0.719,1.044 -0.129,0.27805 0.147,0.58905 0.372,0.45605 0.052,-0.032 0.104,-0.055 0.156,-0.084 -0.071,0.547 -0.137,1.092 -0.199,1.639 -0.182,0.7319 -0.342,1.4679 -0.475,2.2089 -0.012,0.021 -0.021,0.042 -0.033,0.063 -0.282,0.241 -0.566,0.478 -0.854,0.709 0.389,-2.126 0.764,-4.249 1.082,-6.37395 0.261,-0.494 0.551,-0.962 0.866,-1.406 z m 18.99,-6.54 c -0.016,0.151 -0.028,0.302 -0.042,0.45 -0.368,-0.17 -0.737,-0.328 -1.113,-0.471 0.384,0.012 0.769,0.019 1.155,0.021 z m -20.907,50.37895 c 0.098,-0.052 0.186,-0.133 0.24,-0.249 0.037,-0.076 0.066,-0.155 0.103,-0.231 0.326,-0.228 0.649,-0.466 0.969,-0.707 0.163,0.249 0.33,0.498 0.506,0.742 -0.178,0.313 -0.365,0.61 -0.563,0.903 -0.413,-0.079 -0.825,-0.164 -1.239,-0.231 -0.01,-0.076 -0.012,-0.152 -0.016,-0.227 z m -2.48,-0.135 c -0.267,-0.031 -0.535,-0.054 -0.8,-0.081 0.162,-0.106 0.325,-0.215 0.488,-0.319 0.102,0.134 0.207,0.266 0.312,0.4 z m -2.502,-17.236 c 0.017,-0.01 0.031,-0.018 0.047,-0.025 0,0.152 0.01,0.305 0.01,0.456 -0.066,0.192 -0.129,0.387 -0.193,0.579 0.042,-0.337 0.089,-0.674 0.137,-1.01 z m 21.635,-30.01495 c -0.013,0.073 -0.029,0.146 -0.043,0.22 -0.085,-0.688 -0.188,-1.37 -0.299,-2.045 0.031,-0.018 0.063,-0.037 0.096,-0.054 0,0.585 0.105,1.173 0.246,1.879 z m 4.085,-0.889 c -0.189,-0.059 -0.378,-0.117 -0.566,-0.177 0.19,-0.014 0.385,-0.017 0.579,-0.011 -0.01,0.063 -0.01,0.125 -0.013,0.188 z m -1.961,28.37495 c -0.032,0.248 -0.063,0.494 -0.094,0.74 -0.085,0.063 -0.173,0.124 -0.259,0.189 0.01,-0.078 0.012,-0.154 0.019,-0.229 0.112,-0.232 0.227,-0.465 0.334,-0.7 z m -23.808,15.61 c -0.032,0.021 -0.066,0.038 -0.097,0.058 0.072,-0.054 0.144,-0.106 0.216,-0.16 0,0.012 -0.01,0.024 -0.01,0.036 -0.034,0.02 -0.073,0.044 -0.109,0.066 z m 16.067,-42.37295 c 0.04,-0.014 0.081,-0.021 0.121,-0.034 -0.039,0.05 -0.077,0.1 -0.117,0.149 0,-0.037 0,-0.077 0,-0.115 z m 1.358,45.29195 c -0.037,-0.456 -0.063,-0.915 -0.073,-1.373 0.174,-0.317 0.326,-0.66 0.467,-1.014 0.342,0.336 0.652,0.701 0.928,1.093 0.01,0.055 0.019,0.11 0.029,0.165 -0.434,0.397 -0.867,0.79 -1.31,1.172 -0.014,-0.014 -0.026,-0.029 -0.041,-0.043 z m -0.765,-44.42795 c 0.017,0.688 0.029,1.378 0.048,2.066 -0.078,0.064 -0.155,0.129 -0.23,0.195 -0.147,-0.378 -0.295,-0.757 -0.455,-1.127 0.021,-0.169 0.039,-0.336 0.05,-0.506 0.134,-0.153 0.273,-0.299 0.405,-0.458 0.06,-0.054 0.12,-0.11 0.182,-0.17 z m 2.273,0.013 c -0.01,-0.029 -0.014,-0.056 -0.021,-0.084 0.011,0.01 0.02,0.019 0.03,0.029 0,0.018 -0.01,0.037 -0.01,0.055 z m -7.058,43.12695 c -0.067,-0.044 -0.132,-0.084 -0.201,-0.133 -0.01,-0.01 -0.017,-0.013 -0.025,-0.02 0,-0.267 -0.013,-0.535 -0.013,-0.804 0.487,0.099 0.981,0.184 1.48,0.256 -0.225,0.2 -0.45,0.403 -0.673,0.604 -0.189,0.026 -0.378,0.058 -0.568,0.097 z m 1.278,-38.93495 c 0.016,0.06 0.024,0.122 0.037,0.181 -0.019,0.039 -0.041,0.075 -0.06,0.114 0.01,-0.097 0.014,-0.197 0.023,-0.295 z m 4.796,-1.889 c 0.038,0.25 0.073,0.501 0.11,0.75 -0.13,0.05 -0.261,0.101 -0.393,0.16 0.03,-0.25 0.06,-0.5 0.089,-0.749 0.064,-0.052 0.128,-0.109 0.194,-0.161 z m 4.691,10.14895 c 0.011,0.192 0.019,0.387 0.028,0.579 -0.05,0.064 -0.099,0.127 -0.147,0.191 0.038,-0.273 0.074,-0.544 0.112,-0.816 0,0.016 0.01,0.03 0.01,0.046 z m 0.887,-1.544 c 0.045,-0.014 0.089,-0.035 0.129,-0.071 0,0.203 0.001,0.405 0.001,0.608 -0.027,0.054 -0.055,0.107 -0.083,0.161 -0.016,-0.233 -0.029,-0.466 -0.047,-0.698 z m -21.98,19.464 c -0.019,0.043 -0.037,0.088 -0.055,0.131 0.018,-0.091 0.035,-0.183 0.055,-0.274 0,0.048 0,0.096 0,0.143 z m 2.789,-8.05 c 0,0 0.01,-0.01 0.011,-0.01 -0.076,0.494 -0.159,0.987 -0.237,1.481 -0.01,0 -0.017,0.01 -0.025,0.012 -0.195,-0.03 -0.328,-0.091 -0.402,-0.18 0.212,-0.442 0.432,-0.873 0.653,-1.303 z m 5.935,-18.69395 c 0.01,0 0.014,0 0.02,-0.01 0,0.151 -0.01,0.302 -0.011,0.453 -0.01,-0.137 -0.01,-0.276 -0.021,-0.414 0,-0.012 0.01,-0.022 0.012,-0.034 z m 10.662,32.56395 c -0.25,0.39 -0.508,0.776 -0.765,1.16 0.01,-0.316 0.016,-0.633 0.025,-0.948 0.274,-0.305 0.545,-0.615 0.813,-0.93 -0.025,0.24 -0.05,0.479 -0.073,0.718 z m -1.553,2.329 c -0.097,0.143 -0.192,0.286 -0.288,0.429 -0.017,-0.454 -0.015,-0.91 -0.017,-1.366 0.11,-0.111 0.222,-0.223 0.33,-0.336 -0.01,0.425 -0.021,0.849 -0.025,1.273 z m -9.776,-28.82 c 0.092,0.162 0.228,0.284 0.382,0.335 -0.027,0.395 -0.058,0.788 -0.087,1.183 -0.145,0.396 -0.298,0.793 -0.456,1.188 0.001,-0.875 0,-1.75 -0.014,-2.625 0.062,-0.017 0.119,-0.044 0.175,-0.081 z m 11.322,18.025 c -0.035,-0.292 -0.065,-0.584 -0.099,-0.876 0,-0.043 0.01,-0.088 0.014,-0.132 0.025,-0.028 0.051,-0.055 0.079,-0.082 -0.001,0.363 0.01,0.729 0.01,1.09 z m -3.399,6.032 c 0.192,-0.149 0.382,-0.308 0.571,-0.465 -0.062,0.405 -0.131,0.81 -0.194,1.215 -0.052,0.055 -0.102,0.114 -0.146,0.201 -0.187,0.367 -0.352,0.741 -0.507,1.118 0.101,-0.687 0.192,-1.377 0.276,-2.069 z m -4.048,-0.771 c -0.313,0.105 -0.641,0.182 -0.986,0.224 0.013,-0.124 0.027,-0.248 0.039,-0.373 0.127,-0.069 0.254,-0.144 0.381,-0.213 0.202,0.106 0.394,0.223 0.566,0.362 z m -1.29,2.901 c 0.01,-0.06 0.015,-0.122 0.023,-0.182 0.126,0.062 0.259,0.115 0.382,0.181 -0.136,0.01 -0.269,0 -0.405,10e-4 z m -1.755,-0.303 c 0.021,-0.167 0.04,-0.334 0.058,-0.503 0.192,0.05 0.383,0.103 0.57,0.164 -0.012,0.169 -0.021,0.338 -0.032,0.508 -0.203,-0.047 -0.405,-0.1 -0.596,-0.169 z m 0.469,-5.276 c 0.055,-0.832 0.106,-1.659 0.158,-2.47 0.266,-0.136 0.522,-0.261 0.76,-0.361 -0.116,0.97 -0.227,1.938 -0.329,2.91 -0.196,-0.032 -0.392,-0.056 -0.589,-0.079 z m 5.454,-5.478 c -0.09,-0.172 -0.179,-0.346 -0.276,-0.511 0.156,-0.103 0.309,-0.214 0.461,-0.332 -0.01,0.198 -0.014,0.395 -0.022,0.593 -0.057,0.085 -0.109,0.166 -0.163,0.25 z m -4.16,-7.349 c 0.01,0.194 0.018,0.389 0.026,0.583 -0.021,-0.04 -0.042,-0.078 -0.063,-0.12 0.011,-0.154 0.026,-0.308 0.037,-0.463 z m 4.069,2.554 c -0.01,0 -0.013,0 -0.019,0.01 -0.017,-0.67 0,-1.35 0.054,-2.032 0.055,-0.062 0.108,-0.126 0.162,-0.188 0.035,0.614 0.061,1.229 0.081,1.842 -0.093,0.126 -0.184,0.255 -0.278,0.373 z m -4.225,0.252 c -0.034,0.052 -0.067,0.104 -0.101,0.155 0.01,-0.079 0.015,-0.161 0.023,-0.243 0.027,0.031 0.053,0.059 0.078,0.088 z m -0.105,2.258 c 0.165,0.042 0.327,0.106 0.488,0.188 -0.01,0.063 -0.018,0.128 -0.026,0.191 -0.161,-0.103 -0.321,-0.22 -0.478,-0.361 0.01,-0.01 0.01,-0.011 0.016,-0.018 z m 2.285,-7.072 c 0.011,0.465 0.01,0.932 0.016,1.397 -0.332,0.509 -0.661,1.021 -0.987,1.53 -0.109,0.022 -0.221,0.029 -0.333,0.03 -0.035,-0.615 -0.075,-1.229 -0.099,-1.848 0.465,-0.444 0.932,-0.897 1.396,-1.359 0,0.084 0,0.167 0.01,0.25 z m -3.905,8.237 c 0.044,0.034 0.093,0.061 0.145,0.071 -0.161,1.021 -0.34,2.049 -0.524,3.081 -0.013,-1.027 -0.01,-2.053 0.021,-3.082 0.12,0.032 0.249,0.01 0.358,-0.07 z m 0.924,1.54 c 0.059,-0.308 0.114,-0.618 0.166,-0.928 0.245,0.204 0.493,0.365 0.746,0.494 -0.082,0.64 -0.163,1.278 -0.241,1.921 -0.27,0.102 -0.535,0.211 -0.799,0.332 0.04,-0.617 0.082,-1.224 0.128,-1.819 z m 2.231,-3.833 c 0.252,0.126 0.505,0.229 0.764,0.304 -0.001,0.097 -0.001,0.192 0,0.289 -0.246,-0.218 -0.5,-0.412 -0.763,-0.577 0.001,-0.01 0.001,-0.012 0.001,-0.016 z m 4.692,-4.442 c -0.099,-0.27 -0.215,-0.527 -0.328,-0.785 0.222,-0.276 0.441,-0.55 0.657,-0.83 0.01,0.289 0.023,0.564 0.05,0.818 -0.12,0.274 -0.249,0.535 -0.379,0.797 z m 0.157,-3.545 c 0.036,0.229 0.073,0.459 0.107,0.69 -0.146,0.196 -0.293,0.392 -0.442,0.582 0.135,-0.417 0.25,-0.845 0.335,-1.272 z m 0.478,-2.841 c -0.017,-0.093 -0.034,-0.184 -0.053,-0.275 0.038,-0.044 0.073,-0.091 0.11,-0.135 0.045,0.063 0.087,0.13 0.128,0.196 -0.061,0.072 -0.122,0.141 -0.185,0.214 z m -2.989,1.935 c -0.051,0.054 -0.101,0.11 -0.153,0.162 0,0 0,-0.01 0,-0.014 0.06,-0.079 0.12,-0.157 0.18,-0.234 -0.01,0.028 -0.017,0.057 -0.025,0.086 z m -3.022,2.626 c -0.015,-0.688 -0.03,-1.373 -0.03,-2.062 0.396,0.121 0.797,0.332 1.182,0.595 -0.382,0.498 -0.766,0.988 -1.152,1.467 z m -1.645,4.091 c -0.047,0.53 -0.103,1.061 -0.163,1.591 -0.031,0.01 -0.06,0.016 -0.09,0.023 0.07,-0.563 0.134,-1.123 0.188,-1.688 0.021,0.025 0.043,0.052 0.065,0.074 z m -2.121,5.464 c -0.023,1.155 -0.021,2.311 0.013,3.464 -0.186,0.113 -0.369,0.23 -0.555,0.348 0.044,-0.948 0.084,-1.898 0.129,-2.853 0.118,-0.332 0.257,-0.653 0.413,-0.959 z m 3.976,2.513 c 0.061,0.462 0.131,0.923 0.202,1.382 -0.057,0.175 -0.124,0.361 -0.216,0.577 -0.052,0.125 -0.116,0.245 -0.171,0.367 0.059,-0.776 0.118,-1.553 0.175,-2.327 0,0 0.01,0 0.01,10e-4 z m 0.558,-2.053 c 0.212,0 0.425,-0.01 0.637,-0.047 -0.01,0.347 -0.01,0.692 -0.01,1.037 -0.034,-0.01 -0.068,-0.017 -0.104,-0.012 -0.129,0.021 -0.254,0.055 -0.383,0.078 -0.052,-0.349 -0.094,-0.704 -0.14,-1.056 z m 0.618,2.501 c 0,0.455 -0.01,0.911 -0.01,1.366 -0.053,-0.276 -0.093,-0.565 -0.141,-0.845 0.054,-0.172 0.101,-0.346 0.148,-0.521 z m 2.503,-17.893 c -0.061,-0.513 -0.122,-1.025 -0.186,-1.538 0,0 0.01,0 0.014,0.01 0.166,0.272 0.301,0.57 0.402,0.893 -0.079,0.211 -0.153,0.425 -0.23,0.639 z m -1.096,1.739 c -0.065,-1.002 -0.138,-2.003 -0.223,-2.999 0.058,-0.063 0.115,-0.125 0.174,-0.189 0.117,0.934 0.229,1.869 0.338,2.808 -0.097,0.124 -0.194,0.253 -0.289,0.38 z m -1.613,-1.604 c 0.048,0.625 0.086,1.249 0.119,1.872 -0.429,-0.17 -0.87,-0.272 -1.313,-0.303 0,-0.175 0.001,-0.349 0.01,-0.523 0.403,-0.336 0.8,-0.685 1.188,-1.046 z m -0.887,0.062 c 0.24,-0.433 0.499,-0.853 0.778,-1.259 0.017,0.16 0.03,0.319 0.044,0.479 -0.269,0.267 -0.541,0.53 -0.822,0.78 z m -3.917,11.061 c -0.01,0.143 -0.017,0.289 -0.023,0.435 -0.03,0.012 -0.062,0.024 -0.093,0.036 0.02,-0.202 0.041,-0.404 0.06,-0.606 0.018,0.043 0.038,0.089 0.056,0.135 z m -1.059,0.868 c -0.01,0 -0.011,0.01 -0.016,0.01 0.021,-0.187 0.047,-0.372 0.072,-0.558 -0.017,0.185 -0.037,0.368 -0.056,0.552 z m -0.08,0.778 c 0,0 -0.001,0 -0.001,0.01 -0.012,0.015 -0.022,0.027 -0.032,0.041 0,-0.01 0,-0.021 0,-0.033 0.01,0 0.019,-0.01 0.029,-0.014 z m 0.416,6.691 c 0.207,-0.134 0.412,-0.271 0.621,-0.397 0.017,0.416 0.036,0.835 0.063,1.25 -0.249,10e-4 -0.491,0.01 -0.726,0.011 0.015,-0.288 0.028,-0.576 0.042,-0.864 z m 0.598,2.398 c 0,0 0.01,10e-4 0.013,0 -0.001,0.01 -0.001,0.01 0,0.014 0,0 -0.01,-0.01 -0.01,-0.013 z m 0.849,0.041 c 0.031,0 0.062,0.01 0.092,0.013 -0.02,0.269 -0.042,0.54 -0.064,0.811 -0.051,-0.034 -0.102,-0.07 -0.151,-0.109 0.039,-0.239 0.081,-0.476 0.123,-0.715 z m 0.817,1.139 c 0.028,-0.325 0.057,-0.651 0.08,-0.977 0.196,0.044 0.377,0.086 0.54,0.127 -0.001,0.01 0,0.02 0,0.031 -0.198,0.28 -0.405,0.552 -0.617,0.819 z m 2.696,-3.116 c 0.075,0.418 0.159,0.831 0.241,1.246 -0.222,-0.118 -0.456,-0.221 -0.696,-0.31 0.163,-0.307 0.313,-0.62 0.455,-0.936 z m 2.778,-1.353 c -0.093,0.703 -0.205,1.403 -0.332,2.102 -0.088,0.029 -0.179,0.061 -0.268,0.092 0.073,-1.129 0.131,-2.257 0.178,-3.382 0.158,0.382 0.298,0.781 0.422,1.188 z m -0.507,2.948 c -0.01,0.034 -0.014,0.066 -0.021,0.1 -0.047,0.051 -0.094,0.105 -0.142,0.154 0,-0.068 0.01,-0.137 0.015,-0.207 0.049,-0.016 0.099,-0.033 0.148,-0.047 z m 2.337,-0.213 c 0,-0.029 0,-0.061 0,-0.091 0.098,-0.233 0.198,-0.466 0.287,-0.706 0.05,-0.137 0,-0.273 -0.085,-0.347 0.152,-0.22 0.304,-0.443 0.459,-0.661 -0.084,0.594 -0.172,1.188 -0.259,1.782 -0.144,0.134 -0.288,0.272 -0.43,0.407 0.01,-0.126 0.025,-0.25 0.029,-0.384 z m 1.26,1.033 c 0.127,-0.119 0.25,-0.243 0.373,-0.366 -0.068,1.051 -0.129,2.1 -0.171,3.147 -0.125,0.127 -0.249,0.257 -0.371,0.386 0.01,-0.267 0.016,-0.535 0.025,-0.802 0.029,-0.789 0.084,-1.575 0.144,-2.365 z m 0.529,-2.495 c -0.111,0.125 -0.224,0.252 -0.335,0.379 0.071,-0.69 0.146,-1.378 0.228,-2.064 0.086,-0.106 0.173,-0.211 0.26,-0.313 0,0.033 0.01,0.067 0.011,0.102 -0.059,0.629 -0.113,1.262 -0.164,1.896 z m -0.3,-6.325 c -0.001,0.01 0,0.014 -0.01,0.023 -0.058,0.428 -0.118,0.854 -0.176,1.282 0.03,-0.616 0.032,-1.235 0.01,-1.855 0.035,-0.044 0.073,-0.089 0.109,-0.133 0.023,0.228 0.045,0.455 0.068,0.683 z m 0.839,-16.367 c -0.001,0 -0.001,-0.01 0,-0.014 0.014,-0.014 0.027,-0.03 0.041,-0.044 -0.012,0.021 -0.025,0.039 -0.039,0.058 z m -11.214,29.665 c 0.106,0.062 0.207,0.133 0.317,0.188 -10e-4,0 -10e-4,0.01 -10e-4,0.01 -0.114,-0.01 -0.225,-0.01 -0.338,-0.02 0.01,-0.059 0.015,-0.117 0.022,-0.178 z m 5.188,-2.286 c 0,0.105 0.01,0.21 0.014,0.313 -0.054,0.094 -0.107,0.185 -0.161,0.275 -0.157,-0.111 -0.31,-0.23 -0.477,-0.334 0.214,-0.07 0.42,-0.157 0.624,-0.254 z m 5.112,2.008 c 0,0 0,0 0,0.01 -0.019,0.021 -0.038,0.04 -0.058,0.062 0.02,-0.024 0.038,-0.045 0.058,-0.068 z m 0.862,-2.381 c 0.043,-0.834 0.096,-1.668 0.151,-2.502 0.095,0.639 0.193,1.272 0.3,1.9 -0.152,0.201 -0.296,0.406 -0.451,0.602 z m 0.164,-10.813 c -0.055,-0.529 -0.109,-1.059 -0.163,-1.59 0.054,-0.068 0.107,-0.138 0.162,-0.207 0.039,0.242 0.087,0.479 0.128,0.719 -0.043,0.36 -0.086,0.719 -0.127,1.078 z m 0.436,-17.8529 c -0.064,0.059 -0.13,0.114 -0.194,0.173 0.071,-0.267 0.133,-0.532 0.193,-0.79605 0.01,0.14205 0.014,0.28405 0.017,0.43005 0,0.065 -0.011,0.129 -0.016,0.193 z m -2.961,1.301 c -0.108,-0.415 -0.222,-0.826 -0.341,-1.232 0.249,-0.188 0.494,-0.383 0.739,-0.582 0.033,0.257 0.066,0.513 0.1,0.768 -0.169,0.345 -0.337,0.694 -0.498,1.046 z m -14.742,21.6729 c 0,0 0.001,-0.01 0,-0.01 0.01,-0.013 0.018,-0.023 0.026,-0.036 -0.01,0.015 -0.017,0.029 -0.026,0.044 z m 1.706,1.559 c 0.014,0.147 0.027,0.297 0.046,0.443 0.017,0.116 0.055,0.21 0.101,0.296 0,0.066 -0.01,0.132 -0.015,0.2 -0.121,0.083 -0.239,0.165 -0.359,0.248 0.077,-0.396 0.152,-0.791 0.227,-1.187 z m 3.411,6.632 c -0.01,0.043 -0.012,0.086 -0.017,0.126 -0.01,-0.03 -0.013,-0.063 -0.02,-0.093 0.013,-0.01 0.026,-0.02 0.037,-0.033 z m 0.611,1.979 c 0.082,0.01 0.165,0.016 0.247,0.023 -0.044,0.232 -0.088,0.467 -0.136,0.695 -0.049,-0.125 -0.098,-0.248 -0.143,-0.376 0.012,-0.115 0.02,-0.228 0.032,-0.342 z m 1.062,0.111 c 0.299,0.038 0.598,0.082 0.899,0.137 0,0.127 -0.013,0.254 -0.017,0.382 -0.011,0.056 -0.023,0.113 -0.036,0.169 -0.107,0.03 -0.216,0.069 -0.323,0.09 -0.243,0.051 -0.472,0.063 -0.691,0.049 0.059,-0.274 0.117,-0.549 0.168,-0.827 z m 1.755,0.311 c 0.012,0 0.027,0.01 0.04,0.01 -0.014,0.01 -0.03,0.014 -0.045,0.021 0,-0.01 0,-0.02 0,-0.029 z m 0.78,-1.503 c 0.368,-0.033 0.733,-0.108 1.095,-0.21 -0.123,0.14 -0.245,0.279 -0.369,0.416 -0.24,-0.074 -0.482,-0.144 -0.726,-0.206 z m 3.506,-0.503 c 0.055,-0.398 0.112,-0.796 0.172,-1.194 0.115,-0.112 0.218,-0.234 0.325,-0.358 -0.081,0.574 -0.168,1.146 -0.263,1.715 -0.035,0.017 -0.072,0.035 -0.107,0.053 -0.04,-0.074 -0.083,-0.145 -0.127,-0.216 z m 5.041,-2.227 c 0.01,-0.01 0.02,-0.02 0.03,-0.027 -0.001,0.012 0,0.021 0,0.031 -0.01,0 -0.016,0 -0.026,0 z m 0.448,-20.176 c 0.031,-0.081 0.067,-0.16 0.099,-0.243 -0.01,0.045 -0.013,0.091 -0.019,0.138 -0.027,0.034 -0.053,0.068 -0.08,0.105 z m -6.397,-9.5729 c -0.03,0.027 -0.058,0.057 -0.088,0.085 0,-0.022 0,-0.047 -0.01,-0.07 0.028,-0.03 0.057,-0.06 0.085,-0.089 0,0.024 0.01,0.048 0.01,0.074 z m -7.379,9.7269 c -0.169,0.038 -0.339,0.066 -0.509,0.112 0.203,-0.122 0.4,-0.247 0.603,-0.37 -0.033,0.087 -0.065,0.171 -0.094,0.258 z m -3.982,11.361 c -0.073,0.441 -0.146,0.884 -0.221,1.324 -0.119,0.128 -0.236,0.262 -0.351,0.396 -0.014,-0.426 -0.035,-0.848 -0.062,-1.27 0.212,-0.146 0.425,-0.295 0.634,-0.45 z m 0.741,5.938 c 0.157,-0.102 0.314,-0.204 0.472,-0.306 -0.035,0.465 -0.068,0.927 -0.103,1.392 -0.198,0.017 -0.396,0.027 -0.594,0.034 0.077,-0.374 0.15,-0.746 0.225,-1.12 z m 1.376,-0.906 c 0.057,-0.039 0.116,-0.077 0.174,-0.118 0.013,0.482 0.033,0.962 0.063,1.437 -0.04,0.167 -0.08,0.333 -0.118,0.499 -0.089,0.02 -0.175,0.039 -0.264,0.058 0.047,-0.626 0.095,-1.252 0.145,-1.876 z m 14.293,7.349 c 0.219,-0.306 0.436,-0.615 0.652,-0.923 -0.04,0.434 -0.077,0.868 -0.115,1.303 -0.179,0.055 -0.357,0.115 -0.535,0.178 0.001,-0.187 0,-0.371 0,-0.558 z m 0.452,1.326 c 0,0.01 0,0.016 0,0.022 -0.15,0.406 -0.296,0.816 -0.437,1.225 -0.01,-0.387 0,-0.774 -0.01,-1.163 0.142,-0.028 0.293,-0.057 0.446,-0.084 z m 1.112,-19.813 c 0,-0.07 -0.01,-0.139 -0.01,-0.211 0.045,-0.063 0.087,-0.128 0.132,-0.19 -0.04,0.131 -0.084,0.268 -0.122,0.401 z m 0.466,-4.289 c 0.01,-0.067 0.019,-0.136 0.029,-0.205 0.178,-0.262 0.346,-0.531 0.52,-0.797 0,0.025 0,0.053 0,0.079 -0.169,0.315 -0.354,0.624 -0.551,0.923 z m -6.068,-11.53795 c -0.044,0.033 -0.087,0.069 -0.131,0.103 -0.01,-0.066 -0.017,-0.133 -0.024,-0.2 0.031,-0.027 0.061,-0.059 0.092,-0.089 0.021,0.062 0.041,0.123 0.063,0.186 z m -7.595,5.51895 c 0.019,1.217 0.024,2.432 0.015,3.646 -0.439,0.274 -0.881,0.544 -1.325,0.808 0.363,-0.995 0.626,-2.146 0.821,-3.295 0.174,-0.382 0.334,-0.769 0.489,-1.159 z m -5.497,25.075 c -0.165,0.736 -0.341,1.47 -0.521,2.202 0.105,-0.614 0.199,-1.234 0.281,-1.852 0.054,-0.115 0.102,-0.237 0.153,-0.354 0.029,0 0.059,0 0.087,0 z m 0.882,0.017 c 0.278,0 0.555,-0.01 0.833,-0.021 0,0.045 0,0.088 -0.01,0.133 -0.578,1.05 -0.987,2.173 -1.457,3.367 -0.079,0.059 -0.157,0.119 -0.236,0.182 0.311,-1.214 0.596,-2.437 0.868,-3.661 z m -1.128,4.692 c -0.048,0.117 -0.068,0.236 -0.063,0.35 -0.018,0.012 -0.035,0.023 -0.052,0.034 0.032,-0.123 0.065,-0.247 0.098,-0.371 0,-0.01 0.01,-0.01 0.017,-0.013 z m 2.739,-0.379 c 0.216,0.224 0.435,0.437 0.662,0.631 -0.243,-0.072 -0.482,-0.149 -0.724,-0.228 0.021,-0.132 0.039,-0.268 0.062,-0.403 z m 6.602,1.516 c 0.546,-0.264 1.062,-0.618 1.533,-1.051 0.417,0.148 0.823,0.323 1.223,0.509 -0.025,0.297 -0.047,0.593 -0.066,0.89 -0.015,0.014 -0.032,0.027 -0.047,0.043 -0.892,-0.108 -1.779,-0.221 -2.643,-0.391 z m 7.144,0.669 c -0.045,-0.362 -0.075,-0.728 -0.102,-1.096 0.016,-0.01 0.029,-0.018 0.046,-0.025 0.047,-0.023 0.107,-0.047 0.175,-0.069 0,0.466 0.01,0.932 0.016,1.396 -0.041,-0.049 -0.085,-0.096 -0.128,-0.146 0,-0.018 -0.01,-0.044 -0.01,-0.06 z m 3.306,-40.78795 c -0.028,-0.04 -0.058,-0.071 -0.089,-0.104 0.037,-0.058 0.073,-0.118 0.11,-0.176 -0.01,0.092 -0.015,0.188 -0.021,0.28 z m -2.292,1.548 c -0.204,0.219 -0.414,0.433 -0.63,0.643 -0.017,-0.534 -0.01,-1.071 0.03,-1.605 0.028,-0.019 0.057,-0.04 0.084,-0.059 0.195,0.316 0.366,0.657 0.516,1.021 z m -10.849,-4.111 c 0.023,0.1 0.044,0.198 0.066,0.298 -0.113,0.235 -0.222,0.471 -0.325,0.708 0,-0.046 0,-0.092 0,-0.137 0.084,-0.291 0.178,-0.579 0.263,-0.869 z m -4.449,19.51095 c -0.047,0.417 -0.098,0.836 -0.138,1.257 -0.343,0.566 -0.674,1.15 -0.999,1.741 0.359,-1.015 0.739,-2.013 1.137,-2.998 z m -2.623,23.54 c 0.255,-0.155 0.511,-0.315 0.767,-0.479 0.055,0.029 0.111,0.057 0.17,0.068 0.381,0.084 0.752,0.189 1.119,0.3 -0.031,0.25 -0.063,0.498 -0.088,0.749 -0.709,0.059 -1.42,0.044 -2.139,-0.057 0.057,-0.194 0.117,-0.388 0.171,-0.581 z m 2.946,0.169 c 0.212,0.07 0.423,0.138 0.635,0.204 0,0 0,0 0,0.01 -0.212,0.052 -0.423,0.094 -0.636,0.133 0.001,-0.114 0,-0.229 0,-0.345 z m 2.514,1.284 c -0.001,0.037 -0.001,0.074 0,0.112 -0.039,-0.021 -0.082,-0.045 -0.121,-0.063 0.041,-0.017 0.082,-0.035 0.123,-0.049 z m 5.552,0.464 c 0.129,-0.116 0.259,-0.23 0.389,-0.348 0.099,0.014 0.197,0.026 0.297,0.04 -0.174,0.135 -0.347,0.271 -0.519,0.407 -0.094,0 -0.187,0 -0.28,0 0.037,-0.033 0.076,-0.066 0.113,-0.101 z m 1.362,0.056 c -0.001,0.055 0,0.109 0,0.165 -0.06,-0.013 -0.121,-0.021 -0.181,-0.032 0.061,-0.045 0.123,-0.088 0.186,-0.133 z m 3.209,1.93 c 0.328,-0.287 0.648,-0.585 0.973,-0.88 0.014,0.066 0.03,0.132 0.045,0.197 -0.338,0.231 -0.678,0.458 -1.018,0.683 z m 5.452,-15.69 c -0.029,0.063 -0.056,0.13 -0.087,0.193 0.019,-0.451 0.043,-0.897 0.07,-1.345 0.06,-0.047 0.122,-0.094 0.182,-0.142 -0.055,0.432 -0.11,0.861 -0.165,1.294 z m 1.103,-22.5169 c 0,-0.028 0,-0.058 -0.01,-0.086 0.055,-0.034 0.104,-0.061 0.152,-0.086 -0.031,0.103 -0.057,0.207 -0.09,0.312 -0.016,-0.048 -0.038,-0.092 -0.056,-0.14 z m -4.45,-8.24705 c 0.083,-0.396 0.178,-0.791 0.283,-1.188 0.046,-0.031 0.098,-0.065 0.15,-0.1 0.065,0.653 0.107,1.305 0.125,1.962 -0.183,-0.251 -0.368,-0.474 -0.558,-0.674 z m -6.428,3.174 c -0.048,0.047 -0.096,0.092 -0.144,0.139 0,-0.01 0,-0.012 -0.01,-0.019 0.045,-0.07 0.092,-0.142 0.138,-0.212 0,0.031 0.01,0.063 0.012,0.092 z m -8.233,11.30695 c -0.017,0.227 0.046,0.435 0.15,0.604 -0.039,0.23 -0.075,0.464 -0.112,0.698 -0.373,0.931 -0.631,0.752 -0.806,0.205 0.254,-0.518 0.512,-1.033 0.771,-1.548 -0.001,0.014 0,0.027 0,0.041 z m -1.052,3.844 c -0.345,0.831 -0.676,1.675 -0.992,2.529 0.11,-0.738 0.227,-1.478 0.351,-2.216 0.212,-0.109 0.427,-0.212 0.641,-0.313 z m -3.141,6.522 c -0.016,0.085 -0.033,0.169 -0.05,0.256 0.01,-0.088 0.01,-0.175 0.014,-0.261 0.018,-0.059 0.033,-0.117 0.05,-0.177 0,0.061 -0.01,0.121 -0.014,0.182 z m -1.012,12.78 c 0.119,-0.434 0.232,-0.867 0.343,-1.302 0.053,0.01 0.104,0.016 0.159,0.011 0.249,-0.018 0.491,-0.019 0.735,-0.021 -0.414,0.854 -0.865,1.681 -1.361,2.467 0.036,-0.384 0.082,-0.77 0.124,-1.155 z m 1.219,8.09 c 0.165,0.227 0.335,0.461 0.511,0.697 -0.313,0.206 -0.629,0.408 -0.939,0.624 0.148,-0.438 0.286,-0.881 0.428,-1.321 z m 1.143,-0.894 c 0.552,0.048 1.102,0.048 1.651,0.011 0,0.047 0,0.094 -0.01,0.141 -0.364,0.22 -0.725,0.442 -1.086,0.67 -0.187,-0.276 -0.375,-0.552 -0.557,-0.822 z m 3.407,0.749 c 0.031,0.054 0.061,0.104 0.093,0.156 -0.071,0.052 -0.142,0.104 -0.214,0.155 0.041,-0.103 0.08,-0.207 0.121,-0.311 z m 2.73,0.826 c 0.109,0.105 0.22,0.213 0.33,0.316 0,0.077 -0.001,0.138 0,0.213 -0.078,0.02 -0.158,0.042 -0.234,0.063 -0.025,-0.031 -0.047,-0.065 -0.072,-0.095 -0.01,-0.166 -0.02,-0.33 -0.026,-0.497 z m 0.126,-1.711 c 0.076,-0.211 0.153,-0.419 0.223,-0.635 0.247,0.356 0.512,0.694 0.791,1.007 -0.032,0.108 -0.067,0.216 -0.101,0.324 -0.291,-0.25 -0.597,-0.488 -0.913,-0.696 z m 6.753,1.96 c 0.141,0.068 0.277,0.144 0.409,0.227 -0.017,0.082 -0.033,0.163 -0.05,0.243 -0.113,-0.019 -0.225,-0.036 -0.337,-0.057 -0.01,-0.138 -0.016,-0.274 -0.022,-0.413 z m 3.56,-0.19 c 0,0.014 0.01,0.026 0.01,0.043 -0.194,0.198 -0.419,0.489 -0.661,0.831 -0.063,-0.107 -0.127,-0.212 -0.194,-0.313 0.282,-0.188 0.563,-0.374 0.845,-0.561 z m 7.318,-43.61895 c 0.05,-0.51 0.087,-1.023 0.124,-1.538 -0.029,1.332 -0.116,2.672 -0.224,4.006 0.039,-0.822 0.074,-1.644 0.1,-2.468 z m -0.829,0.153 c -0.135,1.338 -0.34,2.658 -0.652,3.95205 -0.18,0.101 -0.355,0.209 -0.53,0.313 -0.021,-0.291 -0.041,-0.583 -0.063,-0.87405 0.124,-0.365 0.241,-0.733 0.348,-1.109 0.094,-0.325 -0.084,-0.65 -0.349,-0.629 0.062,-0.667 0.104,-1.334 0.126,-1.993 0.06,-0.151 0.113,-0.312 0.161,-0.482 0.146,-0.377 0.285,-0.756 0.415,-1.141 0.208,-0.066 0.415,-0.13 0.623,-0.188 -0.03,0.717 -0.055,1.433 -0.079,2.151 z m -4.404,-5.622 c 0,-0.014 -0.01,-0.028 -0.01,-0.042 0.023,0.01 0.047,0.01 0.07,0.015 -0.021,0.01 -0.042,0.017 -0.062,0.027 z m -1.58,0.848 c -0.37,0.227 -0.735,0.467 -1.096,0.721 -0.022,-0.01 -0.046,-0.019 -0.068,-0.025 0.011,-0.065 0.011,-0.131 0,-0.195 0.104,-0.604 0.221,-1.205 0.354,-1.801 0.382,0.056 0.763,0.116 1.143,0.182 -0.121,0.371 -0.232,0.742 -0.335,1.118 z m -1.778,-0.836 c -0.061,-0.211 -0.126,-0.417 -0.188,-0.626 0.106,0.015 0.212,0.028 0.317,0.043 -0.042,0.195 -0.09,0.388 -0.129,0.583 z m -9.976,0.855 c 0.119,-0.142 0.24,-0.281 0.364,-0.416 0,0.079 0,0.157 10e-4,0.236 -0.121,0.061 -0.244,0.117 -0.365,0.18 z m -3.129,14.53695 c 0.014,-0.071 0.024,-0.141 0.039,-0.21 0.032,-0.02 0.064,-0.038 0.098,-0.058 -0.046,0.091 -0.092,0.179 -0.137,0.268 z m -5.975,30.105 c 0.061,-0.065 0.117,-0.132 0.177,-0.199 0,0.155 -0.01,0.307 -0.01,0.46 -0.065,0.048 -0.13,0.097 -0.195,0.143 0.01,-0.135 0.017,-0.268 0.028,-0.404 z m 1.099,-1.293 c 0.319,-0.415 0.626,-0.839 0.916,-1.274 -0.126,0.588 -0.263,1.175 -0.407,1.754 -0.183,0.14 -0.363,0.274 -0.545,0.41 0.01,-0.297 0.021,-0.593 0.036,-0.89 z m -0.01,2.395 c -0.016,0.06 -0.035,0.116 -0.052,0.175 0.001,-0.05 0,-0.097 0,-0.146 0.017,-0.011 0.036,-0.019 0.053,-0.029 z m 4.113,1.791 c 0.064,-0.039 0.13,-0.075 0.194,-0.114 -0.011,0.446 -0.014,0.895 0,1.342 -0.013,0.01 -0.025,0.015 -0.037,0.022 -0.239,-0.292 -0.473,-0.598 -0.698,-0.911 0.182,-0.112 0.362,-0.228 0.543,-0.339 z m 3.449,1.933 c 0.082,0.105 0.16,0.213 0.244,0.316 0,0.033 -0.001,0.065 0,0.097 -0.145,-0.029 -0.289,-0.061 -0.435,-0.09 0.066,-0.107 0.127,-0.215 0.191,-0.323 z m 16.813,-23.483 c -0.065,0.043 -0.127,0.089 -0.192,0.134 0.092,-0.817 0.178,-1.634 0.251,-2.451 0.135,-0.372 0.266,-0.753 0.392,-1.138 -0.148,1.15 -0.3,2.303 -0.451,3.455 z m 0.841,-14.805 c 0.082,-0.229 0.166,-0.461 0.239,-0.691 0.016,0.045 0.037,0.082 0.061,0.118 -0.054,0.22 -0.13,0.46 -0.218,0.708 -0.025,-0.047 -0.056,-0.09 -0.082,-0.135 z m -8.768,-12.57295 c 0.086,0.521 0.15,1.049 0.199,1.581 -0.287,0.045 -0.57,0.107 -0.851,0.178 -0.103,-0.339 -0.217,-0.678 -0.365,-1.011 -0.084,-0.188 -0.169,-0.357 -0.256,-0.518 0.272,-0.063 0.543,-0.128 0.814,-0.186 0.155,-0.014 0.308,-0.029 0.459,-0.044 z m -17.379,47.62495 c 0,0.724 0.022,1.443 0.056,2.161 -0.048,0.13 -0.094,0.262 -0.142,0.389 -0.069,0.01 -0.137,0.012 -0.205,0.018 -0.018,-0.804 -0.01,-1.614 0.027,-2.43 0.088,-0.046 0.175,-0.093 0.264,-0.138 z m 20.361,6.412 c -0.011,0.014 -0.022,0.028 -0.034,0.042 0.012,-0.018 0.019,-0.038 0.031,-0.057 0,0 0,0.011 0,0.015 z m 6.572,-40.219 c -0.063,0.074 -0.124,0.149 -0.185,0.222 -0.041,-0.147 -0.078,-0.296 -0.125,-0.438 0.156,-0.503 0.289,-1.018 0.404,-1.538 0.02,-0.022 0.04,-0.044 0.057,-0.073 0.01,-0.013 0.013,-0.023 0.021,-0.036 -0.058,0.619 -0.11,1.24 -0.172,1.863 z m -18.551,-13.08595 c -0.021,-0.125 -0.039,-0.249 -0.06,-0.374 0.119,0.012 0.239,0.018 0.357,0.028 -0.1,0.114 -0.198,0.228 -0.297,0.346 z m -0.727,0.928 c -0.169,0.229 -0.344,0.453 -0.505,0.691 0.022,-0.171 -0.03,-0.3 -0.116,-0.382 0.082,-0.583 0.168,-1.164 0.249,-1.746 0.048,0.01 0.095,0.013 0.143,0.021 0.082,0.473 0.16,0.945 0.229,1.416 z m 0.071,2.05 c 0.022,-0.22 -0.05,-0.381 -0.16,-0.477 0.08,-0.122 0.164,-0.238 0.246,-0.357 0.02,0.182 0.043,0.36 0.06,0.542 -0.01,0.017 -0.022,0.028 -0.033,0.045 -0.19,0.256 -0.087,0.581 0.103,0.739 0,0.045 0.01,0.092 0.012,0.139 -0.117,0.129 -0.231,0.265 -0.344,0.399 0.038,-0.343 0.081,-0.686 0.116,-1.03 z m -3.789,15.21495 c 0.033,-0.138 0.063,-0.277 0.097,-0.415 0.041,0.242 0.084,0.48 0.138,0.717 -0.112,0.232 -0.226,0.466 -0.338,0.699 0.035,-0.332 0.065,-0.669 0.103,-1.001 z m -5.565,31.599 c -0.122,0.053 -0.242,0.111 -0.36,0.177 0.127,-0.239 0.244,-0.496 0.348,-0.766 0,0.195 0.01,0.391 0.012,0.589 z m 21.276,3.999 c 0.028,-0.046 0.057,-0.091 0.085,-0.137 0.222,0 0.439,-0.106 0.582,-0.292 -0.154,0.19 -0.306,0.377 -0.453,0.556 -0.071,-0.043 -0.143,-0.086 -0.214,-0.127 z m 0.794,-0.156 c 0.082,0.291 0.18,0.584 0.296,0.875 0.01,0.011 0.015,0.02 0.02,0.03 -0.223,-0.176 -0.458,-0.344 -0.706,-0.505 0.129,-0.133 0.26,-0.266 0.39,-0.4 z m 1.504,1.072 c -0.018,0.342 -0.027,0.686 -0.04,1.027 -0.189,-0.266 -0.406,-0.518 -0.651,-0.756 0.25,0.067 0.521,-0.01 0.691,-0.271 z m -15.89,-52.65095 c 0.017,-0.126 0.035,-0.252 0.051,-0.38 0.019,-0.138 -0.01,-0.243 -0.055,-0.332 0.058,-0.162 0.114,-0.324 0.169,-0.486 -0.057,0.398 -0.108,0.8 -0.165,1.198 z m -10.625,4.017 c 2.123,-0.76 4.307,-0.253 6.448,-0.521 -0.055,0.712 -0.111,1.368 -0.188,1.928 -0.766,5.60695 -1.571,11.21095 -2.289,16.82495 -0.668,5.209 -1.372,10.428 -1.881,15.652 -0.093,0.947 -0.311,2.17 -0.513,3.473 -2.33,-0.495 -4.668,-0.896 -7.021,-1.275 0.187,-10.475 1.936,-21.078 4.301,-31.3269 0.106,0.011 0.212,0.024 0.317,0.033 0.386,0.036 0.583,-0.651 0.204,-0.816 -0.103,-0.045 -0.209,-0.085 -0.312,-0.129 0.302,-1.28805 0.615,-2.56805 0.934,-3.84305 z m -69.616009,3.77805 c 4.438,0.384 8.876,0.719 13.309,1.1789 4.107,0.426 8.547003,0.784 12.680009,-0.8239 0.079,-0.031 0.1,-0.207 0.009,-0.212 -4.484006,-0.171 -8.910009,-0.348 -13.354009,-0.945 -3.487,-0.46905 -7.008,-1.24405 -10.555,-1.32605 1.136,-1.156 2.282,-2.301 3.456,-3.4 10.303,1.293 20.675009,1.91 31.037009,2.637 5.242,0.368 10.474,0.837 15.686,1.486 4.629,0.57905 9.233,1.52805 13.863,2.11905 -1.712,7.3589 -3.112,14.8709 -3.748,22.4059 -1.613,1.344 -2.976,4.012 -4.271,5.6 -2.773,3.394 -5.75,6.58 -8.792,9.611 -5.642,5.627 -11.787,10.81 -18.332,14.697 -0.81,-1.404 -1.682,-2.765 -2.496,-4.179 4.376,-4.354 9.116,-8.155 13.443,-12.599 3.229,-3.316 7.759,-7.941 7.755,-13.427 -0.003,-6.868 -9.681,-7.771 -13.496,-8.469 -11.78801,-2.162 -23.885009,-1.965 -35.752009,-3.503 -0.115,-0.014 -0.218,0 -0.313,0.022 -1.044,-1.498 -1.825,-3.071 -2.547,-4.731 4.858,0.446 9.717,0.863 14.572,1.388 4.792,0.516 9.970003,0.976 14.747009,-0.548 0.089,-0.027 0.111,-0.204 0.005,-0.211 -5.223006,-0.27 -10.382009,-0.546 -15.569009,-1.243 -4.842,-0.65 -9.753,-1.75 -14.673,-1.582 0,0 -0.002,0 -0.005,0 -0.065,-0.16 -0.129,-0.316 -0.195,-0.479 1.203,-1.114 2.373,-2.284 3.536,-3.4679 z"
       id="path1537" />
  </g>
</svg>
